<svg xmlns="http://www.w3.org/2000/svg" xmlns:xlink="http://www.w3.org/1999/xlink" width="1366" zoomAndPan="magnify" viewBox="0 0 1024.5 576" height="768" preserveAspectRatio="xMidYMid meet" version="1.0"><defs><clipPath id="438d9dccae"><path d="M 242.078125 5.359375 L 781.816406 5.359375 L 781.816406 570.585938 L 242.078125 570.585938 Z M 242.078125 5.359375 " clip-rule="nonzero"/></clipPath></defs><g clip-path="url(#438d9dccae)"><path fill="#0066ff" d="M 684.398438 61.910156 L 658.15625 61.910156 L 658.15625 22.722656 C 658.15625 13.296875 650.488281 5.699219 641.128906 5.699219 C 631.703125 5.699219 624.105469 13.367188 624.105469 22.722656 L 624.105469 61.980469 L 390.105469 61.980469 L 390.105469 22.722656 C 390.105469 13.296875 382.4375 5.699219 373.078125 5.699219 C 363.652344 5.699219 356.054688 13.367188 356.054688 22.722656 L 356.054688 61.980469 L 339.519531 61.980469 C 285.699219 61.980469 242.078125 105.601562 242.078125 159.421875 L 242.078125 472.851562 C 242.078125 526.671875 285.699219 570.292969 339.519531 570.292969 L 684.398438 570.292969 C 738.21875 570.292969 781.839844 526.671875 781.839844 472.851562 L 781.839844 159.421875 C 781.910156 105.601562 738.21875 61.910156 684.398438 61.910156 Z M 624.035156 79.921875 L 624.035156 115.3125 C 624.035156 124.738281 631.703125 132.335938 641.058594 132.335938 C 650.488281 132.335938 658.085938 124.667969 658.085938 115.3125 L 658.085938 81.257812 C 668.992188 87.589844 676.378906 99.410156 676.378906 112.917969 C 676.378906 133.109375 659.984375 149.503906 639.792969 149.503906 C 619.601562 149.503906 603.210938 133.109375 603.210938 112.917969 C 603.351562 98.355469 611.792969 85.832031 624.035156 79.921875 Z M 355.984375 80.554688 L 355.984375 115.3125 C 355.984375 124.738281 363.652344 132.335938 373.007812 132.335938 C 382.4375 132.335938 390.035156 124.667969 390.035156 115.3125 L 390.035156 80.554688 C 401.644531 86.675781 409.523438 98.847656 409.523438 112.847656 C 409.523438 133.039062 393.128906 149.433594 372.9375 149.433594 C 352.746094 149.433594 336.355469 133.039062 336.355469 112.847656 C 336.496094 98.847656 344.445312 86.675781 355.984375 80.554688 Z M 747.789062 472.78125 C 747.789062 507.75 719.363281 536.101562 684.46875 536.101562 L 339.519531 536.101562 C 304.554688 536.101562 276.203125 507.679688 276.203125 472.78125 L 276.203125 213.175781 L 747.789062 213.175781 Z M 747.789062 472.78125 " fill-opacity="1" fill-rule="nonzero"/></g><path fill="#0066ff" d="M 390.597656 311.460938 L 343.390625 311.460938 C 339.589844 311.460938 336.496094 308.363281 336.496094 304.5625 L 336.496094 257.355469 C 336.496094 253.558594 339.589844 250.460938 343.390625 250.460938 L 390.597656 250.460938 C 394.398438 250.460938 397.492188 253.558594 397.492188 257.355469 L 397.492188 304.5625 C 397.421875 308.363281 394.398438 311.460938 390.597656 311.460938 Z M 390.597656 311.460938 " fill-opacity="1" fill-rule="nonzero"/><path fill="#0066ff" d="M 390.597656 408.265625 L 343.390625 408.265625 C 339.589844 408.265625 336.496094 405.171875 336.496094 401.371094 L 336.496094 354.164062 C 336.496094 350.363281 339.589844 347.269531 343.390625 347.269531 L 390.597656 347.269531 C 394.398438 347.269531 397.492188 350.367188 397.492188 354.164062 L 397.492188 401.371094 C 397.421875 405.242188 394.398438 408.265625 390.597656 408.265625 Z M 390.597656 408.265625 " fill-opacity="1" fill-rule="nonzero"/><path fill="#0066ff" d="M 390.597656 505.144531 L 343.390625 505.144531 C 339.589844 505.144531 336.496094 502.050781 336.496094 498.25 L 336.496094 451.042969 C 336.496094 447.242188 339.589844 444.148438 343.390625 444.148438 L 390.597656 444.148438 C 394.398438 444.148438 397.492188 447.242188 397.492188 451.042969 L 397.492188 498.320312 C 397.421875 502.050781 394.398438 505.144531 390.597656 505.144531 Z M 390.597656 505.144531 " fill-opacity="1" fill-rule="nonzero"/><path fill="#0066ff" d="M 487.40625 311.460938 L 440.199219 311.460938 C 436.398438 311.460938 433.304688 308.363281 433.304688 304.5625 L 433.304688 257.355469 C 433.304688 253.558594 436.398438 250.460938 440.199219 250.460938 L 487.40625 250.460938 C 491.203125 250.460938 494.300781 253.558594 494.300781 257.355469 L 494.300781 304.5625 C 494.300781 308.363281 491.203125 311.460938 487.40625 311.460938 Z M 487.40625 311.460938 " fill-opacity="1" fill-rule="nonzero"/><path fill="#0066ff" d="M 487.40625 408.265625 L 440.199219 408.265625 C 436.398438 408.265625 433.304688 405.171875 433.304688 401.371094 L 433.304688 354.164062 C 433.304688 350.363281 436.398438 347.269531 440.199219 347.269531 L 487.40625 347.269531 C 491.203125 347.269531 494.300781 350.367188 494.300781 354.164062 L 494.300781 401.371094 C 494.300781 405.242188 491.203125 408.265625 487.40625 408.265625 Z M 487.40625 408.265625 " fill-opacity="1" fill-rule="nonzero"/><path fill="#0066ff" d="M 487.40625 505.144531 L 440.199219 505.144531 C 436.398438 505.144531 433.304688 502.050781 433.304688 498.25 L 433.304688 451.042969 C 433.304688 447.242188 436.398438 444.148438 440.199219 444.148438 L 487.40625 444.148438 C 491.203125 444.148438 494.300781 447.242188 494.300781 451.042969 L 494.300781 498.320312 C 494.300781 502.050781 491.203125 505.144531 487.40625 505.144531 Z M 487.40625 505.144531 " fill-opacity="1" fill-rule="nonzero"/><path fill="#0066ff" d="M 584.285156 311.460938 L 537.074219 311.460938 C 533.277344 311.460938 530.179688 308.363281 530.179688 304.5625 L 530.179688 257.355469 C 530.179688 253.558594 533.277344 250.460938 537.074219 250.460938 L 584.285156 250.460938 C 588.082031 250.460938 591.179688 253.558594 591.179688 257.355469 L 591.179688 304.5625 C 591.109375 308.363281 588.082031 311.460938 584.285156 311.460938 Z M 584.285156 311.460938 " fill-opacity="1" fill-rule="nonzero"/><path fill="#0066ff" d="M 584.285156 408.265625 L 537.074219 408.265625 C 533.277344 408.265625 530.179688 405.171875 530.179688 401.371094 L 530.179688 354.164062 C 530.179688 350.363281 533.277344 347.269531 537.074219 347.269531 L 584.285156 347.269531 C 588.082031 347.269531 591.179688 350.367188 591.179688 354.164062 L 591.179688 401.371094 C 591.109375 405.242188 588.082031 408.265625 584.285156 408.265625 Z M 584.285156 408.265625 " fill-opacity="1" fill-rule="nonzero"/><path fill="#0066ff" d="M 584.285156 505.144531 L 537.074219 505.144531 C 533.277344 505.144531 530.179688 502.050781 530.179688 498.25 L 530.179688 451.042969 C 530.179688 447.242188 533.277344 444.148438 537.074219 444.148438 L 584.285156 444.148438 C 588.082031 444.148438 591.179688 447.242188 591.179688 451.042969 L 591.179688 498.320312 C 591.109375 502.050781 588.082031 505.144531 584.285156 505.144531 Z M 584.285156 505.144531 " fill-opacity="1" fill-rule="nonzero"/><path fill="#0066ff" d="M 681.160156 311.460938 L 633.953125 311.460938 C 630.15625 311.460938 627.058594 308.363281 627.058594 304.5625 L 627.058594 257.355469 C 627.058594 253.558594 630.15625 250.460938 633.953125 250.460938 L 681.160156 250.460938 C 684.960938 250.460938 688.058594 253.558594 688.058594 257.355469 L 688.058594 304.5625 C 687.984375 308.363281 684.890625 311.460938 681.160156 311.460938 Z M 681.160156 311.460938 " fill-opacity="1" fill-rule="nonzero"/><path fill="#0066ff" d="M 681.160156 408.265625 L 633.953125 408.265625 C 630.15625 408.265625 627.058594 405.171875 627.058594 401.371094 L 627.058594 354.164062 C 627.058594 350.363281 630.15625 347.269531 633.953125 347.269531 L 681.160156 347.269531 C 684.960938 347.269531 688.058594 350.367188 688.058594 354.164062 L 688.058594 401.371094 C 687.984375 405.242188 684.890625 408.265625 681.160156 408.265625 Z M 681.160156 408.265625 " fill-opacity="1" fill-rule="nonzero"/></svg>