<svg xmlns="http://www.w3.org/2000/svg" xmlns:xlink="http://www.w3.org/1999/xlink" width="1366" zoomAndPan="magnify" viewBox="0 0 1024.5 576" height="768" preserveAspectRatio="xMidYMid meet" version="1.0"><defs><clipPath id="469b74d330"><path d="M 275 404 L 574 404 L 574 543.449219 L 275 543.449219 Z M 275 404 " clip-rule="nonzero"/></clipPath></defs><path fill="#ffffff" d="M 608.339844 199.183594 C 609.113281 196.859375 609.296875 194.308594 608.722656 191.746094 C 607.03125 184.230469 599.574219 179.511719 592.066406 181.203125 C 591.546875 181.320312 591.042969 181.398438 590.527344 181.507812 C 595.636719 188.191406 601.582031 194.089844 608.339844 199.183594 Z M 608.339844 199.183594 " fill-opacity="1" fill-rule="nonzero"/><path fill="#ffffff" d="M 559.269531 189.546875 C 559.582031 187.253906 560.328125 185.089844 561.457031 183.144531 C 540.667969 181.042969 523.335938 172.125 510.542969 162.894531 C 503.25 157.628906 497.535156 152.324219 493.730469 148.410156 C 491.824219 146.453125 490.394531 144.847656 489.476562 143.773438 C 489.015625 143.238281 488.6875 142.835938 488.488281 142.585938 C 488.386719 142.46875 488.320312 142.378906 488.285156 142.339844 C 487.414062 141.207031 486.402344 140.242188 485.296875 139.457031 C 469.90625 124.023438 454.515625 108.582031 439.125 93.144531 C 438.511719 92.519531 437.699219 91.929688 436.75 91.386719 C 434.476562 89.449219 430.515625 86.335938 425.121094 83.152344 C 416.832031 78.316406 404.980469 73.117188 390.535156 73.074219 C 376.484375 72.941406 360.425781 78.667969 346.667969 92.496094 C 332.8125 106.289062 320.644531 127.449219 310.332031 159.351562 C 307.96875 166.679688 311.996094 174.535156 319.324219 176.894531 C 320.746094 177.355469 322.1875 177.574219 323.605469 177.574219 C 329.492188 177.574219 334.964844 173.8125 336.867188 167.902344 C 346.261719 138.675781 356.925781 121.527344 366.296875 112.296875 C 375.769531 103.097656 383.324219 101.085938 390.535156 100.957031 C 393.820312 100.933594 397.113281 101.53125 400.265625 102.46875 C 372.339844 135.957031 356.621094 177.160156 342.203125 218.894531 C 341.722656 220.28125 341.425781 221.675781 341.265625 223.046875 C 339.507812 228.8125 340.121094 235.269531 343.515625 240.796875 C 343.515625 240.796875 343.546875 240.855469 343.628906 240.984375 C 344.683594 242.796875 352.460938 257.515625 352.378906 277.96875 C 352.359375 288.824219 350.351562 301.386719 344.011719 315.535156 C 337.648438 329.667969 326.855469 345.515625 308.535156 362.425781 C 299.691406 370.578125 299.128906 384.355469 307.285156 393.203125 C 311.578125 397.863281 317.433594 400.222656 323.304688 400.222656 C 328.582031 400.222656 333.875 398.316406 338.0625 394.457031 C 360.136719 374.117188 374.78125 353.363281 383.746094 333.390625 C 392.734375 313.433594 395.957031 294.375 395.9375 277.964844 C 395.925781 273.367188 395.671875 268.992188 395.246094 264.84375 C 399.503906 267.089844 408.351562 272.335938 416.59375 280.617188 C 422.265625 286.269531 427.664062 293.242188 431.609375 301.597656 C 435.546875 309.984375 438.171875 319.730469 438.191406 331.902344 C 438.183594 342.539062 436.132812 355.132812 430.535156 370.15625 C 426.328125 381.425781 432.058594 393.96875 443.328125 398.175781 C 445.835938 399.113281 448.40625 399.554688 450.9375 399.554688 C 459.773438 399.554688 468.082031 394.144531 471.351562 385.378906 C 478.539062 366.132812 481.757812 348.242188 481.75 331.902344 C 481.777344 312.621094 477.21875 295.640625 470.359375 281.664062 C 460.042969 260.632812 445.050781 246.375 432.824219 237.242188 C 429.5625 234.820312 426.492188 232.757812 423.703125 231.007812 C 434.011719 194.746094 450.609375 181.800781 475.320312 169.445312 C 479.949219 174.054688 486.273438 179.75 494.21875 185.5 C 511.824219 198.214844 537.785156 211.324219 570.234375 211.488281 C 567.589844 208.601562 565.054688 205.59375 562.660156 202.445312 C 559.84375 198.738281 558.640625 194.160156 559.269531 189.546875 Z M 559.269531 189.546875 " fill-opacity="1" fill-rule="nonzero"/><path fill="#ffffff" d="M 514.976562 51.628906 C 516.09375 52.261719 517.175781 52.953125 518.222656 53.695312 C 519.269531 54.433594 520.28125 55.226562 521.25 56.066406 C 522.222656 56.90625 523.148438 57.792969 524.03125 58.726562 C 524.914062 59.65625 525.75 60.628906 526.539062 61.644531 C 527.324219 62.65625 528.0625 63.707031 528.746094 64.792969 C 529.429688 65.878906 530.058594 66.996094 530.632812 68.144531 C 531.207031 69.292969 531.726562 70.464844 532.183594 71.664062 C 532.644531 72.863281 533.042969 74.082031 533.382812 75.320312 C 533.722656 76.558594 534.003906 77.808594 534.21875 79.074219 C 534.433594 80.339844 534.589844 81.613281 534.679688 82.894531 C 534.773438 84.175781 534.800781 85.457031 534.765625 86.738281 C 534.734375 88.023438 534.636719 89.300781 534.476562 90.574219 C 534.316406 91.847656 534.09375 93.113281 533.808594 94.363281 C 533.527344 95.617188 533.179688 96.851562 532.777344 98.070312 C 532.371094 99.289062 531.90625 100.484375 531.382812 101.65625 C 530.859375 102.828125 530.28125 103.972656 529.648438 105.085938 C 529.011719 106.203125 528.324219 107.285156 527.582031 108.332031 C 526.839844 109.382812 526.050781 110.390625 525.207031 111.359375 C 524.367188 112.332031 523.480469 113.257812 522.550781 114.140625 C 521.617188 115.023438 520.644531 115.859375 519.632812 116.648438 C 518.617188 117.433594 517.566406 118.171875 516.480469 118.855469 C 515.394531 119.539062 514.277344 120.167969 513.128906 120.742188 C 511.980469 121.316406 510.808594 121.835938 509.609375 122.292969 C 508.410156 122.753906 507.191406 123.152344 505.953125 123.492188 C 504.71875 123.832031 503.464844 124.109375 502.199219 124.328125 C 500.933594 124.542969 499.660156 124.699219 498.378906 124.789062 C 497.101562 124.882812 495.816406 124.910156 494.535156 124.875 C 493.25 124.839844 491.972656 124.742188 490.699219 124.585938 C 489.425781 124.425781 488.164062 124.203125 486.910156 123.917969 C 485.660156 123.632812 484.421875 123.289062 483.207031 122.882812 C 481.988281 122.480469 480.792969 122.015625 479.621094 121.492188 C 478.445312 120.96875 477.300781 120.390625 476.1875 119.753906 C 475.070312 119.121094 473.988281 118.429688 472.941406 117.6875 C 471.894531 116.949219 470.882812 116.15625 469.914062 115.316406 C 468.945312 114.476562 468.015625 113.589844 467.132812 112.65625 C 466.25 111.726562 465.414062 110.753906 464.628906 109.738281 C 463.839844 108.726562 463.105469 107.675781 462.417969 106.589844 C 461.734375 105.503906 461.105469 104.386719 460.53125 103.238281 C 459.957031 102.089844 459.4375 100.917969 458.980469 99.71875 C 458.519531 98.519531 458.121094 97.300781 457.78125 96.0625 C 457.441406 94.824219 457.164062 93.574219 456.945312 92.308594 C 456.730469 91.042969 456.574219 89.769531 456.484375 88.488281 C 456.390625 87.207031 456.363281 85.925781 456.398438 84.644531 C 456.429688 83.359375 456.527344 82.082031 456.6875 80.808594 C 456.847656 79.535156 457.070312 78.269531 457.355469 77.019531 C 457.636719 75.765625 457.984375 74.53125 458.386719 73.3125 C 458.792969 72.09375 459.257812 70.898438 459.78125 69.726562 C 460.304688 68.554688 460.882812 67.410156 461.519531 66.296875 C 462.152344 65.179688 462.839844 64.097656 463.582031 63.050781 C 464.324219 62 465.117188 60.992188 465.957031 60.023438 C 466.796875 59.050781 467.683594 58.125 468.613281 57.242188 C 469.546875 56.359375 470.519531 55.523438 471.53125 54.734375 C 472.546875 53.949219 473.597656 53.210938 474.683594 52.527344 C 475.769531 51.84375 476.886719 51.214844 478.035156 50.640625 C 479.183594 50.066406 480.355469 49.546875 481.554688 49.089844 C 482.753906 48.628906 483.972656 48.230469 485.210938 47.890625 C 486.449219 47.550781 487.699219 47.273438 488.964844 47.054688 C 490.230469 46.839844 491.503906 46.683594 492.785156 46.59375 C 494.0625 46.5 495.347656 46.472656 496.628906 46.507812 C 497.914062 46.542969 499.191406 46.640625 500.464844 46.796875 C 501.738281 46.957031 503.003906 47.179688 504.253906 47.464844 C 505.507812 47.75 506.742188 48.09375 507.960938 48.5 C 509.175781 48.902344 510.371094 49.367188 511.546875 49.890625 C 512.71875 50.414062 513.863281 50.992188 514.976562 51.628906 Z M 514.976562 51.628906 " fill-opacity="1" fill-rule="nonzero"/><path fill="#ffffff" d="M 716.316406 135.140625 C 717.597656 135.191406 718.875 135.304688 720.144531 135.480469 C 721.417969 135.65625 722.675781 135.894531 723.925781 136.195312 C 725.171875 136.496094 726.402344 136.855469 727.617188 137.277344 C 728.828125 137.699219 730.019531 138.179688 731.183594 138.71875 C 732.351562 139.253906 733.484375 139.851562 734.59375 140.5 C 735.699219 141.148438 736.773438 141.851562 737.8125 142.605469 C 738.851562 143.363281 739.847656 144.164062 740.808594 145.019531 C 741.765625 145.871094 742.683594 146.769531 743.550781 147.714844 C 744.421875 148.65625 745.246094 149.640625 746.019531 150.664062 C 746.792969 151.6875 747.515625 152.746094 748.1875 153.84375 C 748.855469 154.9375 749.472656 156.0625 750.03125 157.21875 C 750.589844 158.375 751.09375 159.554688 751.535156 160.757812 C 751.980469 161.960938 752.363281 163.1875 752.6875 164.429688 C 753.011719 165.671875 753.273438 166.925781 753.472656 168.195312 C 753.671875 169.460938 753.8125 170.738281 753.886719 172.019531 C 753.960938 173.300781 753.972656 174.582031 753.921875 175.863281 C 753.871094 177.148438 753.757812 178.425781 753.578125 179.695312 C 753.402344 180.96875 753.164062 182.226562 752.863281 183.476562 C 752.5625 184.722656 752.203125 185.953125 751.78125 187.167969 C 751.359375 188.378906 750.882812 189.566406 750.34375 190.734375 C 749.804688 191.898438 749.210938 193.035156 748.5625 194.140625 C 747.910156 195.25 747.207031 196.324219 746.453125 197.359375 C 745.699219 198.398438 744.894531 199.398438 744.042969 200.355469 C 743.1875 201.316406 742.289062 202.230469 741.347656 203.101562 C 740.402344 203.972656 739.417969 204.792969 738.394531 205.570312 C 737.371094 206.34375 736.3125 207.066406 735.21875 207.734375 C 734.121094 208.40625 732.996094 209.019531 731.839844 209.582031 C 730.6875 210.140625 729.507812 210.640625 728.300781 211.085938 C 727.097656 211.527344 725.875 211.914062 724.632812 212.234375 C 723.390625 212.558594 722.132812 212.820312 720.867188 213.019531 C 719.597656 213.222656 718.324219 213.359375 717.042969 213.433594 C 715.757812 213.507812 714.476562 213.519531 713.195312 213.46875 C 711.910156 213.417969 710.632812 213.304688 709.363281 213.128906 C 708.089844 212.953125 706.832031 212.710938 705.582031 212.414062 C 704.335938 212.113281 703.105469 211.75 701.890625 211.332031 C 700.679688 210.910156 699.492188 210.429688 698.324219 209.890625 C 697.160156 209.351562 696.023438 208.757812 694.914062 208.109375 C 693.808594 207.460938 692.734375 206.757812 691.699219 206.003906 C 690.660156 205.246094 689.660156 204.441406 688.703125 203.589844 C 687.742188 202.738281 686.828125 201.839844 685.957031 200.894531 C 685.085938 199.953125 684.261719 198.96875 683.488281 197.945312 C 682.714844 196.921875 681.992188 195.859375 681.320312 194.765625 C 680.652344 193.671875 680.035156 192.546875 679.476562 191.390625 C 678.917969 190.234375 678.414062 189.054688 677.972656 187.851562 C 677.527344 186.644531 677.144531 185.421875 676.820312 184.179688 C 676.496094 182.9375 676.234375 181.683594 676.035156 180.414062 C 675.835938 179.148438 675.699219 177.871094 675.625 176.589844 C 675.546875 175.308594 675.535156 174.027344 675.585938 172.746094 C 675.640625 171.460938 675.753906 170.183594 675.929688 168.914062 C 676.105469 167.640625 676.34375 166.382812 676.644531 165.132812 C 676.945312 163.886719 677.304688 162.65625 677.726562 161.441406 C 678.148438 160.230469 678.628906 159.039062 679.167969 157.875 C 679.703125 156.710938 680.296875 155.574219 680.949219 154.464844 C 681.597656 153.359375 682.300781 152.285156 683.054688 151.25 C 683.808594 150.210938 684.613281 149.210938 685.46875 148.253906 C 686.320312 147.292969 687.21875 146.378906 688.164062 145.507812 C 689.105469 144.636719 690.089844 143.8125 691.113281 143.039062 C 692.136719 142.265625 693.195312 141.542969 694.292969 140.875 C 695.386719 140.203125 696.511719 139.589844 697.667969 139.027344 C 698.824219 138.46875 700.003906 137.96875 701.207031 137.523438 C 702.410156 137.078125 703.636719 136.695312 704.878906 136.371094 C 706.121094 136.050781 707.375 135.789062 708.644531 135.585938 C 709.910156 135.386719 711.1875 135.25 712.46875 135.175781 C 713.75 135.101562 715.03125 135.089844 716.316406 135.140625 Z M 716.316406 135.140625 " fill-opacity="1" fill-rule="nonzero"/><path fill="#ffffff" d="M 791.832031 215.558594 C 779.148438 210.9375 768.214844 210.449219 763.449219 210.417969 C 761.652344 210.175781 760.023438 210.183594 758.726562 210.5 C 737.714844 215.402344 716.707031 220.320312 695.699219 225.222656 C 693.160156 225.40625 689.640625 225.574219 685.375 225.574219 C 673.339844 225.589844 655.460938 224.179688 637.476562 218.144531 C 637.472656 218.144531 637.472656 218.144531 637.46875 218.144531 C 626.949219 214.605469 616.464844 209.574219 606.804688 202.398438 C 599.898438 197.269531 593.40625 191.050781 587.632812 183.464844 C 587.3125 183.042969 586.96875 182.648438 586.613281 182.273438 C 581.777344 177.203125 573.808594 176.464844 568.097656 180.800781 C 567.078125 181.578125 566.203125 182.476562 565.460938 183.449219 C 561.746094 188.3125 561.554688 195.226562 565.4375 200.332031 C 568.464844 204.316406 571.65625 207.992188 574.964844 211.414062 C 591.203125 228.21875 610.417969 238.511719 628.617188 244.578125 C 628.617188 244.578125 628.617188 244.578125 628.621094 244.582031 C 650.582031 251.910156 671.257812 253.4375 685.375 253.453125 C 685.589844 253.453125 685.796875 253.449219 686.011719 253.449219 C 699.71875 275.328125 707.699219 293.390625 701.898438 323.226562 C 697.457031 320.464844 692.644531 317.828125 687.449219 315.503906 C 677.546875 311.109375 666.136719 307.789062 653.503906 307.765625 C 638.21875 307.609375 621.347656 313.320312 607.601562 325.636719 C 593.742188 337.902344 582.613281 355.683594 573.542969 380.058594 C 569.355469 391.335938 575.101562 403.867188 586.378906 408.058594 C 588.878906 408.984375 591.441406 409.421875 593.957031 409.421875 C 602.804688 409.421875 611.121094 403.996094 614.378906 395.21875 C 621.75 375.285156 629.863281 364.023438 636.398438 358.320312 C 643.046875 352.671875 647.730469 351.488281 653.503906 351.332031 C 658.230469 351.308594 663.851562 352.671875 669.726562 355.296875 C 678.539062 359.179688 687.527344 365.824219 693.90625 371.496094 C 697.109375 374.320312 699.695312 376.882812 701.410156 378.667969 C 702.269531 379.558594 702.914062 380.253906 703.308594 380.695312 C 703.507812 380.914062 703.648438 381.070312 703.71875 381.15625 C 703.734375 381.171875 703.746094 381.183594 703.753906 381.191406 C 703.761719 381.203125 703.765625 381.207031 703.769531 381.210938 C 709.230469 387.566406 717.566406 389.992188 725.210938 388.226562 C 724.71875 393.085938 724.398438 398.457031 724.398438 404.378906 C 724.359375 433.640625 732.066406 475.34375 760.878906 524.816406 C 764.921875 531.769531 772.222656 535.65625 779.730469 535.65625 C 783.445312 535.65625 787.210938 534.703125 790.65625 532.703125 C 801.054688 526.65625 804.585938 513.328125 798.539062 502.925781 C 773.394531 459.578125 768.003906 426.175781 767.960938 404.378906 C 767.960938 394.085938 769.207031 386.363281 770.332031 381.464844 C 770.890625 379.019531 771.425781 377.277344 771.757812 376.28125 C 771.925781 375.785156 772.042969 375.476562 772.085938 375.363281 L 772.097656 375.332031 C 772.488281 374.40625 772.78125 373.46875 773.035156 372.527344 C 773.632812 371.265625 774.125 369.917969 774.453125 368.476562 C 783.914062 327.105469 792.132812 285.511719 787.441406 243.992188 C 788.464844 244.511719 789.484375 245.066406 790.476562 245.683594 C 795.835938 248.988281 800.683594 253.476562 804.484375 260.398438 C 808.25 267.328125 811.058594 276.972656 811.078125 291.03125 C 811.078125 301.074219 809.597656 313.324219 805.941406 328.066406 C 804.085938 335.539062 808.640625 343.097656 816.113281 344.953125 C 817.238281 345.234375 818.367188 345.367188 819.480469 345.367188 C 825.738281 345.367188 831.425781 341.125 833 334.78125 C 837.101562 318.253906 838.957031 303.800781 838.957031 291.03125 C 838.976562 273.21875 835.269531 258.597656 828.960938 247.046875 C 819.5 229.625 804.582031 220.171875 791.832031 215.558594 Z M 791.832031 215.558594 " fill-opacity="1" fill-rule="nonzero"/><g clip-path="url(#469b74d330)"><path fill="#ffffff" d="M 275.078125 404.488281 L 573.347656 404.488281 L 573.347656 543.886719 L 275.078125 543.886719 Z M 275.078125 404.488281 " fill-opacity="1" fill-rule="nonzero"/></g></svg>