<svg xmlns="http://www.w3.org/2000/svg" xmlns:xlink="http://www.w3.org/1999/xlink" width="272" zoomAndPan="magnify" viewBox="0 0 204 244.499993" height="326" preserveAspectRatio="xMidYMid meet" version="1.0"><defs><clipPath id="6b5df8b831"><path d="M 0.207031 40.113281 L 203.359375 40.113281 L 203.359375 243.261719 L 0.207031 243.261719 Z M 0.207031 40.113281 " clip-rule="nonzero"/></clipPath><clipPath id="267a3b1800"><path d="M 101.78125 40.113281 C 45.683594 40.113281 0.207031 85.589844 0.207031 141.6875 C 0.207031 197.785156 45.683594 243.261719 101.78125 243.261719 C 157.882812 243.261719 203.359375 197.785156 203.359375 141.6875 C 203.359375 85.589844 157.882812 40.113281 101.78125 40.113281 Z M 101.78125 40.113281 " clip-rule="nonzero"/></clipPath><clipPath id="ef48a0a335"><path d="M 77.652344 0 L 99.804688 0 L 99.804688 22.152344 L 77.652344 22.152344 Z M 77.652344 0 " clip-rule="nonzero"/></clipPath><clipPath id="524f596246"><path d="M 88.730469 0 C 82.613281 0 77.652344 4.957031 77.652344 11.074219 C 77.652344 17.191406 82.613281 22.152344 88.730469 22.152344 C 94.847656 22.152344 99.804688 17.191406 99.804688 11.074219 C 99.804688 4.957031 94.847656 0 88.730469 0 Z M 88.730469 0 " clip-rule="nonzero"/></clipPath></defs><g clip-path="url(#6b5df8b831)"><g clip-path="url(#267a3b1800)"><path fill="#1865f2" d="M 0.207031 40.113281 L 203.359375 40.113281 L 203.359375 243.261719 L 0.207031 243.261719 Z M 0.207031 40.113281 " fill-opacity="1" fill-rule="nonzero"/></g></g><g clip-path="url(#ef48a0a335)"><g clip-path="url(#524f596246)"><path fill="#00e88f" d="M 77.652344 0 L 99.804688 0 L 99.804688 22.152344 L 77.652344 22.152344 Z M 77.652344 0 " fill-opacity="1" fill-rule="nonzero"/></g></g></svg>