<svg xmlns="http://www.w3.org/2000/svg" xmlns:xlink="http://www.w3.org/1999/xlink" width="1366" zoomAndPan="magnify" viewBox="0 0 1024.5 576" height="768" preserveAspectRatio="xMidYMid meet" version="1.0"><defs><clipPath id="e108025823"><path d="M 8.089844 0.140625 L 1015.597656 0.140625 L 1015.597656 575.859375 L 8.089844 575.859375 Z M 8.089844 0.140625 " clip-rule="nonzero"/></clipPath></defs><g clip-path="url(#e108025823)"><path fill="#0066ff" d="M 295.742188 551.742188 C 295.742188 564.769531 285.191406 575.371094 272.117188 575.371094 C 259.089844 575.371094 248.539062 564.816406 248.539062 551.742188 C 248.539062 487.804688 271.355469 429.140625 309.292969 383.503906 C 297.789062 368.578125 283.429688 355.980469 266.980469 346.613281 C 246.398438 334.921875 222.488281 328.21875 196.957031 328.21875 C 157.835938 328.21875 122.417969 344.046875 96.796875 369.671875 C 71.171875 395.292969 55.339844 430.710938 55.339844 469.835938 C 55.339844 482.859375 44.789062 493.460938 31.714844 493.460938 C 18.691406 493.460938 8.089844 482.90625 8.089844 469.835938 C 8.089844 417.683594 29.242188 370.480469 63.421875 336.300781 C 78.875 320.847656 97.03125 308.0625 117.09375 298.648438 C 114.71875 296.605469 112.386719 294.464844 110.152344 292.230469 C 87.953125 270.03125 74.214844 239.320312 74.214844 205.425781 C 74.214844 171.53125 87.953125 140.820312 110.152344 118.621094 C 132.355469 96.421875 163.0625 82.683594 196.957031 82.683594 C 230.851562 82.683594 261.515625 96.421875 283.761719 118.621094 C 305.964844 140.820312 319.703125 171.53125 319.703125 205.425781 C 319.703125 239.320312 305.964844 269.984375 283.761719 292.230469 C 281.527344 294.464844 279.199219 296.605469 276.824219 298.648438 C 281.386719 300.789062 285.902344 303.117188 290.277344 305.636719 C 310.386719 317.09375 328.210938 332.117188 342.804688 349.847656 C 364.722656 331.449219 389.726562 316.570312 416.917969 306.015625 C 408.550781 300.21875 400.707031 293.703125 393.578125 286.527344 C 363.292969 256.246094 344.566406 214.363281 344.566406 168.15625 C 344.566406 121.949219 363.296875 80.066406 393.578125 49.785156 C 423.859375 19.503906 465.738281 0.773438 511.949219 0.773438 C 558.15625 0.773438 600.035156 19.503906 630.316406 49.785156 C 660.601562 80.066406 679.328125 121.949219 679.328125 168.15625 C 679.328125 214.363281 660.601562 256.246094 630.316406 286.527344 C 623.140625 293.703125 615.34375 300.21875 606.976562 306.015625 C 634.121094 316.523438 659.125 331.449219 681.089844 349.847656 C 695.683594 332.117188 713.511719 317.09375 733.617188 305.636719 C 737.992188 303.117188 742.507812 300.789062 747.070312 298.648438 C 744.695312 296.605469 742.367188 294.464844 740.132812 292.230469 C 717.929688 270.03125 704.191406 239.320312 704.191406 205.425781 C 704.191406 171.53125 717.929688 140.820312 740.132812 118.621094 C 762.332031 96.421875 793.042969 82.683594 826.9375 82.683594 C 860.832031 82.683594 891.539062 96.421875 913.742188 118.621094 C 935.941406 140.820312 949.679688 171.53125 949.679688 205.425781 C 949.679688 239.320312 935.941406 269.984375 913.742188 292.230469 C 911.507812 294.464844 909.226562 296.605469 906.800781 298.648438 C 926.863281 308.011719 945.019531 320.847656 960.472656 336.300781 C 994.652344 370.480469 1015.804688 417.683594 1015.804688 469.835938 C 1015.804688 482.859375 1005.253906 493.460938 992.179688 493.460938 C 979.152344 493.460938 968.554688 482.90625 968.554688 469.835938 C 968.554688 430.710938 952.722656 395.292969 927.097656 369.671875 C 901.476562 344.046875 866.058594 328.21875 826.9375 328.21875 C 801.40625 328.21875 777.496094 334.921875 756.914062 346.613281 C 740.464844 355.980469 726.105469 368.578125 714.601562 383.503906 C 752.539062 429.140625 775.355469 487.757812 775.355469 551.742188 C 775.355469 564.769531 764.804688 575.371094 751.777344 575.371094 C 738.753906 575.371094 728.152344 564.816406 728.152344 551.742188 C 728.152344 492.082031 703.953125 438.03125 664.878906 398.953125 C 625.800781 359.878906 571.75 335.679688 512.089844 335.679688 C 452.429688 335.679688 398.378906 359.878906 359.300781 398.953125 C 320.226562 438.03125 296.027344 492.082031 296.027344 551.742188 Z M 143.523438 258.859375 C 157.167969 272.503906 176.042969 280.964844 196.910156 280.964844 C 217.78125 280.964844 236.652344 272.503906 250.296875 258.859375 C 263.941406 245.214844 272.402344 226.296875 272.402344 205.472656 C 272.402344 184.605469 263.941406 165.730469 250.296875 152.089844 C 236.652344 138.445312 217.734375 129.984375 196.910156 129.984375 C 176.042969 129.984375 157.167969 138.445312 143.523438 152.089844 C 129.882812 165.730469 121.417969 184.605469 121.417969 205.472656 C 121.417969 226.34375 129.882812 245.214844 143.523438 258.859375 Z M 826.792969 280.964844 C 847.664062 280.964844 866.535156 272.503906 880.179688 258.859375 C 893.824219 245.214844 902.285156 226.296875 902.285156 205.472656 C 902.285156 184.605469 893.824219 165.730469 880.179688 152.089844 C 866.535156 138.445312 847.664062 129.984375 826.792969 129.984375 C 805.925781 129.984375 787.050781 138.445312 773.40625 152.089844 C 759.765625 165.730469 751.304688 184.605469 751.304688 205.472656 C 751.304688 226.34375 759.765625 245.214844 773.40625 258.859375 C 787.050781 272.503906 805.972656 280.964844 826.792969 280.964844 Z M 511.851562 288.429688 C 545.035156 288.429688 575.078125 274.972656 596.851562 253.203125 C 618.574219 231.476562 632.078125 201.433594 632.078125 168.203125 C 632.078125 135.023438 618.625 104.976562 596.851562 83.203125 C 575.125 61.480469 545.035156 48.027344 511.851562 48.027344 C 478.671875 48.027344 448.625 61.480469 426.855469 83.203125 C 405.128906 104.929688 391.628906 135.023438 391.628906 168.203125 C 391.628906 201.386719 405.082031 231.429688 426.855469 253.203125 C 448.578125 274.925781 478.671875 288.429688 511.851562 288.429688 Z M 511.851562 288.429688 " fill-opacity="1" fill-rule="nonzero"/></g></svg>