<svg xmlns="http://www.w3.org/2000/svg" xmlns:xlink="http://www.w3.org/1999/xlink" width="1366" zoomAndPan="magnify" viewBox="0 0 1024.5 576" height="768" preserveAspectRatio="xMidYMid meet" version="1.0"><defs><clipPath id="ec16d5dd01"><path d="M 273.152344 10.992188 L 655 10.992188 L 655 260 L 273.152344 260 Z M 273.152344 10.992188 " clip-rule="nonzero"/></clipPath><clipPath id="dba338b64c"><path d="M 273.152344 185 L 804.640625 185 L 804.640625 542.480469 L 273.152344 542.480469 Z M 273.152344 185 " clip-rule="nonzero"/></clipPath><clipPath id="4e1fb88e78"><path d="M 273.152344 210 L 290 210 L 290 227 L 273.152344 227 Z M 273.152344 210 " clip-rule="nonzero"/></clipPath></defs><g clip-path="url(#ec16d5dd01)"><path fill="#ffffff" d="M 281.453125 193.597656 C 281.996094 193.597656 282.535156 193.546875 283.070312 193.441406 C 283.605469 193.332031 284.125 193.175781 284.628906 192.96875 C 285.132812 192.757812 285.609375 192.503906 286.0625 192.199219 C 286.515625 191.898438 286.9375 191.554688 287.320312 191.167969 C 287.707031 190.78125 288.050781 190.363281 288.351562 189.910156 C 288.65625 189.457031 288.910156 188.980469 289.121094 188.476562 C 289.328125 187.972656 289.484375 187.453125 289.59375 186.917969 C 289.699219 186.382812 289.75 185.84375 289.75 185.296875 L 289.75 52.492188 C 289.753906 51.679688 289.792969 50.863281 289.875 50.054688 C 289.953125 49.242188 290.074219 48.4375 290.234375 47.636719 C 290.394531 46.835938 290.59375 46.046875 290.832031 45.269531 C 291.066406 44.488281 291.34375 43.722656 291.65625 42.96875 C 291.96875 42.214844 292.316406 41.480469 292.699219 40.761719 C 293.085938 40.042969 293.503906 39.34375 293.957031 38.664062 C 294.410156 37.988281 294.894531 37.335938 295.414062 36.703125 C 295.929688 36.074219 296.476562 35.472656 297.054688 34.894531 C 297.628906 34.316406 298.234375 33.769531 298.863281 33.253906 C 299.492188 32.734375 300.148438 32.25 300.824219 31.796875 C 301.503906 31.34375 302.203125 30.925781 302.921875 30.542969 C 303.640625 30.15625 304.375 29.808594 305.128906 29.496094 C 305.882812 29.183594 306.648438 28.910156 307.425781 28.671875 C 308.207031 28.433594 308.996094 28.234375 309.796875 28.074219 C 310.597656 27.914062 311.402344 27.796875 312.210938 27.714844 C 313.023438 27.632812 313.835938 27.59375 314.652344 27.59375 L 613.464844 27.59375 C 614.28125 27.59375 615.09375 27.632812 615.902344 27.714844 C 616.714844 27.796875 617.519531 27.914062 618.320312 28.074219 C 619.121094 28.234375 619.910156 28.433594 620.691406 28.671875 C 621.46875 28.910156 622.234375 29.183594 622.988281 29.496094 C 623.742188 29.808594 624.476562 30.15625 625.195312 30.542969 C 625.914062 30.925781 626.613281 31.34375 627.292969 31.796875 C 627.96875 32.25 628.625 32.734375 629.253906 33.253906 C 629.882812 33.769531 630.488281 34.316406 631.0625 34.894531 C 631.640625 35.472656 632.1875 36.074219 632.703125 36.703125 C 633.222656 37.335938 633.707031 37.988281 634.160156 38.664062 C 634.613281 39.34375 635.03125 40.042969 635.417969 40.761719 C 635.800781 41.480469 636.148438 42.214844 636.460938 42.96875 C 636.773438 43.722656 637.050781 44.488281 637.285156 45.269531 C 637.523438 46.046875 637.722656 46.835938 637.882812 47.636719 C 638.042969 48.4375 638.160156 49.242188 638.242188 50.054688 C 638.324219 50.863281 638.363281 51.679688 638.367188 52.492188 L 638.367188 185.296875 L 555.363281 185.296875 C 553.355469 185.300781 551.363281 185.449219 549.378906 185.742188 C 547.394531 186.035156 545.441406 186.46875 543.519531 187.042969 C 541.597656 187.621094 539.726562 188.332031 537.910156 189.175781 C 536.089844 190.023438 534.34375 190.996094 532.664062 192.097656 C 530.988281 193.195312 529.398438 194.410156 527.898438 195.742188 C 526.394531 197.070312 524.996094 198.5 523.703125 200.035156 C 522.410156 201.566406 521.234375 203.183594 520.171875 204.886719 C 519.113281 206.589844 518.183594 208.363281 517.378906 210.199219 L 339.554688 210.199219 C 339.007812 210.199219 338.46875 210.144531 337.933594 210.039062 C 337.402344 209.933594 336.882812 209.773438 336.378906 209.566406 C 335.875 209.355469 335.398438 209.101562 334.945312 208.796875 C 334.492188 208.496094 334.070312 208.152344 333.6875 207.765625 C 333.300781 207.378906 332.957031 206.960938 332.65625 206.507812 C 332.351562 206.054688 332.097656 205.578125 331.886719 205.074219 C 331.679688 204.570312 331.519531 204.050781 331.414062 203.519531 C 331.308594 202.984375 331.253906 202.445312 331.253906 201.898438 L 331.253906 69.09375 C 331.253906 68.550781 331.308594 68.007812 331.414062 67.476562 C 331.519531 66.941406 331.679688 66.421875 331.886719 65.917969 C 332.097656 65.414062 332.351562 64.9375 332.65625 64.484375 C 332.957031 64.03125 333.300781 63.613281 333.6875 63.226562 C 334.070312 62.839844 334.492188 62.496094 334.945312 62.195312 C 335.398438 61.890625 335.875 61.636719 336.378906 61.425781 C 336.882812 61.21875 337.402344 61.0625 337.933594 60.953125 C 338.46875 60.847656 339.007812 60.792969 339.554688 60.792969 L 588.5625 60.792969 C 589.109375 60.792969 589.648438 60.847656 590.183594 60.953125 C 590.714844 61.0625 591.234375 61.21875 591.738281 61.425781 C 592.242188 61.636719 592.71875 61.890625 593.171875 62.195312 C 593.625 62.496094 594.046875 62.839844 594.429688 63.226562 C 594.816406 63.613281 595.160156 64.03125 595.460938 64.484375 C 595.765625 64.9375 596.019531 65.414062 596.230469 65.917969 C 596.4375 66.421875 596.597656 66.941406 596.703125 67.476562 C 596.808594 68.007812 596.863281 68.550781 596.863281 69.09375 L 596.863281 152.097656 C 596.863281 152.640625 596.917969 153.183594 597.023438 153.714844 C 597.128906 154.25 597.285156 154.769531 597.496094 155.273438 C 597.703125 155.777344 597.960938 156.253906 598.261719 156.707031 C 598.566406 157.160156 598.910156 157.582031 599.296875 157.964844 C 599.679688 158.351562 600.097656 158.695312 600.550781 159 C 601.007812 159.300781 601.484375 159.558594 601.988281 159.765625 C 602.492188 159.972656 603.011719 160.132812 603.542969 160.238281 C 604.078125 160.34375 604.621094 160.398438 605.164062 160.398438 C 605.710938 160.398438 606.25 160.34375 606.785156 160.238281 C 607.316406 160.132812 607.835938 159.972656 608.339844 159.765625 C 608.84375 159.558594 609.324219 159.300781 609.777344 159 C 610.230469 158.695312 610.648438 158.351562 611.035156 157.964844 C 611.417969 157.582031 611.761719 157.160156 612.066406 156.707031 C 612.367188 156.253906 612.625 155.777344 612.832031 155.273438 C 613.042969 154.769531 613.199219 154.25 613.304688 153.714844 C 613.410156 153.183594 613.464844 152.640625 613.464844 152.097656 L 613.464844 69.09375 C 613.464844 68.277344 613.421875 67.464844 613.34375 66.652344 C 613.261719 65.84375 613.140625 65.039062 612.980469 64.238281 C 612.820312 63.4375 612.621094 62.648438 612.386719 61.867188 C 612.148438 61.089844 611.875 60.320312 611.5625 59.570312 C 611.25 58.816406 610.898438 58.082031 610.515625 57.363281 C 610.128906 56.644531 609.710938 55.945312 609.257812 55.265625 C 608.804688 54.589844 608.320312 53.933594 607.804688 53.304688 C 607.285156 52.675781 606.738281 52.070312 606.164062 51.496094 C 605.585938 50.917969 604.984375 50.371094 604.351562 49.855469 C 603.722656 49.335938 603.066406 48.851562 602.390625 48.398438 C 601.710938 47.945312 601.015625 47.527344 600.296875 47.140625 C 599.578125 46.757812 598.839844 46.410156 598.089844 46.097656 C 597.335938 45.785156 596.570312 45.507812 595.789062 45.273438 C 595.007812 45.035156 594.21875 44.835938 593.417969 44.675781 C 592.621094 44.515625 591.816406 44.394531 591.003906 44.316406 C 590.191406 44.234375 589.378906 44.195312 588.5625 44.191406 L 339.554688 44.191406 C 338.738281 44.195312 337.925781 44.234375 337.113281 44.316406 C 336.300781 44.394531 335.496094 44.515625 334.699219 44.675781 C 333.898438 44.835938 333.109375 45.035156 332.328125 45.273438 C 331.546875 45.507812 330.78125 45.785156 330.027344 46.097656 C 329.277344 46.410156 328.539062 46.757812 327.820312 47.140625 C 327.101562 47.527344 326.402344 47.945312 325.726562 48.398438 C 325.046875 48.851562 324.394531 49.335938 323.765625 49.855469 C 323.132812 50.371094 322.53125 50.917969 321.953125 51.496094 C 321.378906 52.070312 320.832031 52.675781 320.3125 53.304688 C 319.796875 53.933594 319.3125 54.589844 318.859375 55.265625 C 318.40625 55.945312 317.988281 56.644531 317.601562 57.363281 C 317.21875 58.082031 316.867188 58.816406 316.554688 59.570312 C 316.242188 60.320312 315.96875 61.089844 315.730469 61.867188 C 315.496094 62.648438 315.296875 63.4375 315.136719 64.238281 C 314.976562 65.039062 314.855469 65.84375 314.773438 66.652344 C 314.695312 67.464844 314.652344 68.277344 314.652344 69.09375 L 314.652344 201.898438 C 314.652344 202.714844 314.695312 203.527344 314.773438 204.339844 C 314.855469 205.148438 314.976562 205.957031 315.136719 206.753906 C 315.296875 207.554688 315.496094 208.34375 315.730469 209.125 C 315.96875 209.902344 316.242188 210.671875 316.554688 211.421875 C 316.867188 212.175781 317.21875 212.914062 317.601562 213.632812 C 317.988281 214.351562 318.40625 215.046875 318.859375 215.726562 C 319.3125 216.402344 319.796875 217.058594 320.3125 217.6875 C 320.832031 218.316406 321.378906 218.921875 321.953125 219.496094 C 322.53125 220.074219 323.132812 220.621094 323.765625 221.136719 C 324.394531 221.65625 325.046875 222.140625 325.726562 222.59375 C 326.402344 223.046875 327.101562 223.464844 327.820312 223.851562 C 328.539062 224.234375 329.277344 224.582031 330.027344 224.894531 C 330.78125 225.207031 331.546875 225.484375 332.328125 225.722656 C 333.109375 225.957031 333.898438 226.15625 334.699219 226.316406 C 335.496094 226.476562 336.300781 226.597656 337.113281 226.675781 C 337.925781 226.757812 338.738281 226.800781 339.554688 226.800781 L 513.859375 226.800781 L 513.859375 251.699219 C 513.859375 252.246094 513.914062 252.785156 514.019531 253.320312 C 514.125 253.855469 514.285156 254.375 514.492188 254.878906 C 514.699219 255.382812 514.957031 255.859375 515.257812 256.3125 C 515.5625 256.765625 515.90625 257.183594 516.292969 257.570312 C 516.675781 257.957031 517.097656 258.300781 517.550781 258.601562 C 518.003906 258.90625 518.480469 259.160156 518.984375 259.371094 C 519.488281 259.578125 520.007812 259.734375 520.542969 259.84375 C 521.074219 259.949219 521.617188 260 522.160156 260 C 522.707031 260 523.246094 259.949219 523.78125 259.84375 C 524.316406 259.734375 524.832031 259.578125 525.335938 259.371094 C 525.839844 259.160156 526.320312 258.90625 526.773438 258.601562 C 527.226562 258.300781 527.644531 257.957031 528.03125 257.570312 C 528.414062 257.183594 528.757812 256.765625 529.0625 256.3125 C 529.363281 255.859375 529.621094 255.382812 529.828125 254.878906 C 530.039062 254.375 530.195312 253.855469 530.300781 253.320312 C 530.40625 252.785156 530.460938 252.246094 530.460938 251.699219 L 530.460938 226.800781 C 530.460938 225.984375 530.503906 225.171875 530.582031 224.359375 C 530.664062 223.550781 530.785156 222.742188 530.945312 221.945312 C 531.105469 221.144531 531.304688 220.355469 531.539062 219.574219 C 531.777344 218.796875 532.050781 218.027344 532.363281 217.277344 C 532.675781 216.523438 533.027344 215.785156 533.410156 215.066406 C 533.796875 214.347656 534.214844 213.652344 534.667969 212.972656 C 535.121094 212.296875 535.605469 211.640625 536.121094 211.011719 C 536.640625 210.382812 537.1875 209.777344 537.761719 209.203125 C 538.339844 208.625 538.941406 208.078125 539.574219 207.5625 C 540.203125 207.042969 540.855469 206.558594 541.535156 206.105469 C 542.210938 205.652344 542.910156 205.234375 543.628906 204.847656 C 544.347656 204.464844 545.085938 204.113281 545.835938 203.800781 C 546.589844 203.488281 547.355469 203.214844 548.136719 202.976562 C 548.917969 202.742188 549.707031 202.542969 550.507812 202.382812 C 551.304688 202.222656 552.109375 202.101562 552.921875 202.023438 C 553.734375 201.941406 554.546875 201.898438 555.363281 201.898438 L 646.664062 201.898438 C 647.210938 201.898438 647.75 201.847656 648.285156 201.738281 C 648.820312 201.632812 649.339844 201.476562 649.84375 201.269531 C 650.347656 201.058594 650.824219 200.804688 651.277344 200.5 C 651.730469 200.199219 652.148438 199.855469 652.535156 199.46875 C 652.921875 199.082031 653.265625 198.664062 653.566406 198.210938 C 653.871094 197.757812 654.125 197.277344 654.335938 196.777344 C 654.542969 196.273438 654.699219 195.753906 654.808594 195.21875 C 654.914062 194.683594 654.964844 194.144531 654.964844 193.597656 L 654.964844 52.492188 C 654.964844 51.132812 654.898438 49.777344 654.761719 48.425781 C 654.628906 47.074219 654.425781 45.730469 654.160156 44.398438 C 653.894531 43.066406 653.5625 41.75 653.167969 40.449219 C 652.773438 39.152344 652.316406 37.875 651.792969 36.617188 C 651.273438 35.363281 650.691406 34.136719 650.050781 32.9375 C 649.410156 31.742188 648.710938 30.578125 647.957031 29.445312 C 647.203125 28.316406 646.394531 27.226562 645.53125 26.175781 C 644.667969 25.128906 643.757812 24.121094 642.796875 23.160156 C 641.835938 22.199219 640.832031 21.289062 639.78125 20.425781 C 638.730469 19.5625 637.640625 18.753906 636.511719 18 C 635.382812 17.246094 634.21875 16.546875 633.019531 15.90625 C 631.820312 15.265625 630.59375 14.683594 629.339844 14.164062 C 628.085938 13.640625 626.804688 13.183594 625.507812 12.789062 C 624.207031 12.394531 622.890625 12.0625 621.558594 11.796875 C 620.226562 11.53125 618.882812 11.328125 617.53125 11.195312 C 616.179688 11.0625 614.824219 10.992188 613.464844 10.992188 L 314.652344 10.992188 C 313.292969 10.992188 311.9375 11.0625 310.585938 11.195312 C 309.234375 11.328125 307.890625 11.53125 306.558594 11.796875 C 305.226562 12.0625 303.910156 12.394531 302.609375 12.789062 C 301.308594 13.183594 300.03125 13.640625 298.777344 14.164062 C 297.523438 14.683594 296.296875 15.265625 295.097656 15.90625 C 293.898438 16.546875 292.734375 17.246094 291.605469 18 C 290.476562 18.753906 289.386719 19.5625 288.335938 20.425781 C 287.285156 21.289062 286.28125 22.199219 285.320312 23.160156 C 284.359375 24.121094 283.449219 25.128906 282.585938 26.175781 C 281.722656 27.226562 280.914062 28.316406 280.160156 29.445312 C 279.40625 30.578125 278.707031 31.742188 278.066406 32.9375 C 277.425781 34.136719 276.84375 35.363281 276.324219 36.617188 C 275.800781 37.875 275.34375 39.152344 274.949219 40.449219 C 274.554688 41.75 274.222656 43.066406 273.957031 44.398438 C 273.691406 45.730469 273.488281 47.074219 273.355469 48.425781 C 273.21875 49.777344 273.152344 51.132812 273.152344 52.492188 L 273.152344 185.296875 C 273.152344 185.84375 273.203125 186.382812 273.308594 186.917969 C 273.417969 187.453125 273.574219 187.972656 273.78125 188.476562 C 273.992188 188.980469 274.246094 189.457031 274.550781 189.910156 C 274.851562 190.363281 275.195312 190.78125 275.582031 191.167969 C 275.964844 191.554688 276.386719 191.898438 276.839844 192.199219 C 277.292969 192.503906 277.769531 192.757812 278.273438 192.96875 C 278.777344 193.175781 279.296875 193.332031 279.832031 193.441406 C 280.367188 193.546875 280.90625 193.597656 281.453125 193.597656 Z M 281.453125 193.597656 " fill-opacity="1" fill-rule="nonzero"/></g><path fill="#ffffff" d="M 506.308594 121.304688 L 447.707031 86.109375 C 446.445312 85.355469 445.105469 84.78125 443.691406 84.378906 C 442.277344 83.980469 440.835938 83.773438 439.367188 83.757812 C 437.894531 83.742188 436.449219 83.917969 435.027344 84.285156 C 433.601562 84.652344 432.253906 85.199219 430.972656 85.925781 C 429.695312 86.648438 428.535156 87.527344 427.488281 88.5625 C 426.445312 89.597656 425.554688 90.75 424.8125 92.019531 C 424.074219 93.289062 423.511719 94.632812 423.128906 96.050781 C 422.746094 97.472656 422.554688 98.917969 422.558594 100.386719 L 422.558594 170.605469 C 422.546875 172.074219 422.734375 173.519531 423.109375 174.9375 C 423.488281 176.355469 424.042969 177.699219 424.78125 178.96875 C 425.519531 180.238281 426.410156 181.390625 427.453125 182.421875 C 428.5 183.453125 429.660156 184.328125 430.941406 185.050781 C 432.222656 185.769531 433.578125 186.3125 435 186.679688 C 436.425781 187.046875 437.875 187.222656 439.347656 187.207031 C 440.816406 187.191406 442.261719 186.988281 443.679688 186.59375 C 445.097656 186.199219 446.4375 185.628906 447.707031 184.882812 L 506.308594 149.691406 C 506.917969 149.324219 507.503906 148.921875 508.0625 148.480469 C 508.621094 148.039062 509.148438 147.5625 509.648438 147.054688 C 510.144531 146.546875 510.609375 146.007812 511.035156 145.4375 C 511.464844 144.867188 511.855469 144.273438 512.207031 143.65625 C 512.558594 143.035156 512.867188 142.398438 513.136719 141.738281 C 513.40625 141.078125 513.628906 140.402344 513.8125 139.714844 C 513.992188 139.027344 514.128906 138.328125 514.222656 137.625 C 514.3125 136.917969 514.359375 136.207031 514.359375 135.496094 C 514.359375 134.785156 514.3125 134.074219 514.222656 133.367188 C 514.128906 132.664062 513.992188 131.964844 513.8125 131.277344 C 513.628906 130.589844 513.40625 129.914062 513.136719 129.253906 C 512.867188 128.597656 512.558594 127.957031 512.207031 127.335938 C 511.855469 126.71875 511.464844 126.125 511.035156 125.554688 C 510.609375 124.984375 510.144531 124.445312 509.648438 123.9375 C 509.148438 123.429688 508.621094 122.953125 508.0625 122.511719 C 507.503906 122.070312 506.917969 121.667969 506.308594 121.304688 Z M 439.15625 170.605469 L 439.15625 100.386719 L 497.757812 135.496094 Z M 439.15625 170.605469 " fill-opacity="1" fill-rule="nonzero"/><path fill="#ffffff" d="M 497.300781 251.660156 C 497.300781 252.207031 497.246094 252.75 497.140625 253.285156 C 497.035156 253.824219 496.875 254.347656 496.667969 254.851562 C 496.457031 255.359375 496.199219 255.839844 495.894531 256.292969 C 495.589844 256.75 495.246094 257.171875 494.859375 257.558594 C 494.472656 257.945312 494.050781 258.292969 493.59375 258.59375 C 493.136719 258.898438 492.65625 259.15625 492.152344 259.367188 C 491.644531 259.574219 491.125 259.734375 490.585938 259.839844 C 490.050781 259.949219 489.507812 260 488.960938 260 C 488.410156 260 487.871094 259.949219 487.332031 259.839844 C 486.792969 259.734375 486.273438 259.574219 485.765625 259.367188 C 485.261719 259.15625 484.78125 258.898438 484.324219 258.59375 C 483.871094 258.292969 483.449219 257.945312 483.0625 257.558594 C 482.671875 257.171875 482.328125 256.75 482.023438 256.292969 C 481.71875 255.839844 481.460938 255.359375 481.253906 254.851562 C 481.042969 254.347656 480.886719 253.824219 480.777344 253.285156 C 480.671875 252.75 480.617188 252.207031 480.617188 251.660156 C 480.617188 251.113281 480.671875 250.570312 480.777344 250.03125 C 480.886719 249.496094 481.042969 248.972656 481.253906 248.46875 C 481.460938 247.960938 481.71875 247.480469 482.023438 247.023438 C 482.328125 246.570312 482.671875 246.148438 483.0625 245.761719 C 483.449219 245.375 483.871094 245.027344 484.324219 244.722656 C 484.78125 244.417969 485.261719 244.164062 485.765625 243.953125 C 486.273438 243.742188 486.792969 243.585938 487.332031 243.476562 C 487.871094 243.371094 488.410156 243.316406 488.960938 243.316406 C 489.507812 243.316406 490.050781 243.371094 490.585938 243.476562 C 491.125 243.585938 491.644531 243.742188 492.152344 243.953125 C 492.65625 244.164062 493.136719 244.417969 493.59375 244.722656 C 494.050781 245.027344 494.472656 245.375 494.859375 245.761719 C 495.246094 246.148438 495.589844 246.570312 495.894531 247.023438 C 496.199219 247.480469 496.457031 247.960938 496.667969 248.46875 C 496.875 248.972656 497.035156 249.496094 497.140625 250.03125 C 497.246094 250.570312 497.300781 251.113281 497.300781 251.660156 Z M 497.300781 251.660156 " fill-opacity="1" fill-rule="nonzero"/><path fill="#ffffff" d="M 331.253906 243.402344 C 330.707031 243.402344 330.167969 243.453125 329.632812 243.558594 C 329.097656 243.667969 328.582031 243.824219 328.078125 244.03125 C 327.574219 244.242188 327.09375 244.496094 326.640625 244.800781 C 326.1875 245.101562 325.769531 245.445312 325.382812 245.832031 C 325 246.21875 324.65625 246.636719 324.351562 247.089844 C 324.050781 247.542969 323.792969 248.019531 323.585938 248.523438 C 323.375 249.027344 323.21875 249.546875 323.113281 250.082031 C 323.007812 250.617188 322.953125 251.15625 322.953125 251.699219 C 322.953125 252.246094 323.007812 252.785156 323.113281 253.320312 C 323.21875 253.855469 323.375 254.375 323.585938 254.878906 C 323.792969 255.382812 324.050781 255.859375 324.351562 256.3125 C 324.65625 256.765625 325 257.183594 325.382812 257.570312 C 325.769531 257.957031 326.1875 258.300781 326.640625 258.601562 C 327.09375 258.90625 327.574219 259.160156 328.078125 259.371094 C 328.582031 259.578125 329.097656 259.734375 329.632812 259.84375 C 330.167969 259.949219 330.707031 260 331.253906 260 L 430.855469 260 C 431.402344 260 431.941406 259.949219 432.476562 259.84375 C 433.011719 259.734375 433.53125 259.578125 434.035156 259.371094 C 434.539062 259.160156 435.015625 258.90625 435.46875 258.601562 C 435.921875 258.300781 436.339844 257.957031 436.726562 257.570312 C 437.113281 257.183594 437.457031 256.765625 437.757812 256.3125 C 438.0625 255.859375 438.316406 255.382812 438.527344 254.878906 C 438.734375 254.375 438.890625 253.855469 439 253.320312 C 439.105469 252.785156 439.15625 252.246094 439.15625 251.699219 C 439.15625 251.15625 439.105469 250.617188 439 250.082031 C 438.890625 249.546875 438.734375 249.027344 438.527344 248.523438 C 438.316406 248.019531 438.0625 247.542969 437.757812 247.089844 C 437.457031 246.636719 437.113281 246.21875 436.726562 245.832031 C 436.339844 245.445312 435.921875 245.101562 435.46875 244.800781 C 435.015625 244.496094 434.539062 244.242188 434.035156 244.03125 C 433.53125 243.824219 433.011719 243.667969 432.476562 243.558594 C 431.941406 243.453125 431.402344 243.402344 430.855469 243.402344 Z M 331.253906 243.402344 " fill-opacity="1" fill-rule="nonzero"/><g clip-path="url(#dba338b64c)"><path fill="#ffffff" d="M 762.871094 185.296875 L 679.867188 185.296875 C 679.320312 185.296875 678.78125 185.351562 678.246094 185.457031 C 677.714844 185.5625 677.195312 185.722656 676.691406 185.929688 C 676.1875 186.140625 675.707031 186.394531 675.253906 186.695312 C 674.800781 187 674.382812 187.34375 673.996094 187.730469 C 673.613281 188.113281 673.269531 188.535156 672.964844 188.988281 C 672.664062 189.441406 672.40625 189.917969 672.199219 190.421875 C 671.988281 190.925781 671.832031 191.445312 671.726562 191.980469 C 671.621094 192.515625 671.566406 193.054688 671.566406 193.597656 C 671.566406 194.144531 671.621094 194.683594 671.726562 195.21875 C 671.832031 195.753906 671.988281 196.273438 672.199219 196.773438 C 672.40625 197.277344 672.664062 197.757812 672.964844 198.210938 C 673.269531 198.664062 673.613281 199.082031 673.996094 199.46875 C 674.382812 199.851562 674.800781 200.199219 675.253906 200.5 C 675.707031 200.804688 676.1875 201.058594 676.691406 201.265625 C 677.195312 201.476562 677.714844 201.632812 678.246094 201.738281 C 678.78125 201.847656 679.320312 201.898438 679.867188 201.898438 L 762.871094 201.898438 C 763.683594 201.902344 764.5 201.945312 765.308594 202.027344 C 766.121094 202.109375 766.925781 202.230469 767.722656 202.390625 C 768.523438 202.550781 769.3125 202.75 770.089844 202.988281 C 770.871094 203.226562 771.636719 203.5 772.386719 203.8125 C 773.140625 204.125 773.875 204.476562 774.59375 204.859375 C 775.3125 205.246094 776.011719 205.664062 776.6875 206.117188 C 777.363281 206.570312 778.019531 207.054688 778.648438 207.574219 C 779.277344 208.089844 779.878906 208.636719 780.457031 209.214844 C 781.03125 209.789062 781.578125 210.394531 782.097656 211.023438 C 782.613281 211.652344 783.097656 212.304688 783.550781 212.984375 C 784.003906 213.660156 784.425781 214.359375 784.808594 215.078125 C 785.195312 215.792969 785.542969 216.53125 785.855469 217.28125 C 786.167969 218.035156 786.445312 218.800781 786.683594 219.578125 C 786.921875 220.359375 787.121094 221.148438 787.28125 221.945312 C 787.441406 222.746094 787.5625 223.550781 787.644531 224.363281 C 787.726562 225.171875 787.769531 225.984375 787.769531 226.800781 L 787.769531 359.605469 C 787.769531 360.421875 787.726562 361.234375 787.644531 362.042969 C 787.5625 362.855469 787.441406 363.660156 787.28125 364.457031 C 787.121094 365.257812 786.921875 366.046875 786.683594 366.824219 C 786.445312 367.605469 786.167969 368.371094 785.855469 369.125 C 785.542969 369.875 785.195312 370.609375 784.808594 371.328125 C 784.425781 372.046875 784.003906 372.746094 783.550781 373.421875 C 783.097656 374.097656 782.613281 374.753906 782.097656 375.382812 C 781.578125 376.011719 781.03125 376.617188 780.457031 377.191406 C 779.878906 377.769531 779.277344 378.316406 778.648438 378.832031 C 778.019531 379.347656 777.363281 379.835938 776.6875 380.289062 C 776.011719 380.742188 775.3125 381.160156 774.59375 381.542969 C 773.875 381.929688 773.140625 382.277344 772.386719 382.589844 C 771.636719 382.902344 770.871094 383.179688 770.089844 383.417969 C 769.3125 383.65625 768.523438 383.855469 767.722656 384.015625 C 766.925781 384.175781 766.121094 384.296875 765.308594 384.378906 C 764.5 384.460938 763.683594 384.503906 762.871094 384.507812 L 580.261719 384.507812 L 580.261719 376.207031 C 580.261719 374.847656 580.195312 373.492188 580.0625 372.136719 C 579.929688 370.785156 579.730469 369.445312 579.464844 368.109375 C 579.199219 366.777344 578.867188 365.460938 578.472656 364.160156 C 578.078125 362.859375 577.621094 361.582031 577.101562 360.328125 C 576.578125 359.070312 576 357.84375 575.359375 356.644531 C 574.71875 355.445312 574.019531 354.28125 573.265625 353.152344 C 572.507812 352.023438 571.699219 350.933594 570.839844 349.882812 C 569.976562 348.832031 569.0625 347.824219 568.101562 346.863281 C 567.140625 345.902344 566.136719 344.992188 565.085938 344.128906 C 564.035156 343.265625 562.945312 342.457031 561.816406 341.703125 C 560.683594 340.949219 559.519531 340.25 558.324219 339.609375 C 557.125 338.96875 555.898438 338.386719 554.640625 337.867188 C 553.386719 337.347656 552.109375 336.890625 550.808594 336.496094 C 549.507812 336.101562 548.191406 335.769531 546.855469 335.503906 C 545.523438 335.238281 544.179688 335.039062 542.828125 334.90625 C 541.476562 334.773438 540.121094 334.703125 538.761719 334.703125 L 530.460938 334.703125 L 530.460938 284.902344 C 530.460938 284.359375 530.40625 283.820312 530.296875 283.285156 C 530.191406 282.75 530.03125 282.234375 529.824219 281.730469 C 529.613281 281.226562 529.359375 280.75 529.054688 280.296875 C 528.753906 279.84375 528.40625 279.425781 528.023438 279.039062 C 527.636719 278.65625 527.21875 278.3125 526.765625 278.007812 C 526.3125 277.707031 525.835938 277.449219 525.332031 277.242188 C 524.832031 277.03125 524.3125 276.871094 523.777344 276.765625 C 523.246094 276.65625 522.707031 276.605469 522.160156 276.601562 L 314.652344 276.601562 C 313.835938 276.597656 313.023438 276.558594 312.214844 276.476562 C 311.402344 276.394531 310.597656 276.273438 309.800781 276.113281 C 309 275.949219 308.210938 275.75 307.433594 275.511719 C 306.652344 275.277344 305.886719 275 305.132812 274.6875 C 304.382812 274.375 303.648438 274.023438 302.929688 273.640625 C 302.210938 273.253906 301.511719 272.835938 300.835938 272.382812 C 300.160156 271.929688 299.503906 271.445312 298.875 270.925781 C 298.246094 270.410156 297.640625 269.863281 297.066406 269.289062 C 296.488281 268.710938 295.945312 268.109375 295.425781 267.476562 C 294.910156 266.847656 294.421875 266.195312 293.96875 265.519531 C 293.515625 264.839844 293.097656 264.144531 292.714844 263.425781 C 292.328125 262.707031 291.980469 261.972656 291.667969 261.21875 C 291.355469 260.464844 291.078125 259.699219 290.839844 258.921875 C 290.601562 258.140625 290.402344 257.351562 290.242188 256.554688 C 290.082031 255.753906 289.960938 254.949219 289.878906 254.140625 C 289.796875 253.328125 289.753906 252.515625 289.75 251.699219 C 289.75 251.15625 289.699219 250.617188 289.59375 250.082031 C 289.484375 249.546875 289.328125 249.027344 289.121094 248.523438 C 288.910156 248.019531 288.65625 247.542969 288.351562 247.089844 C 288.050781 246.636719 287.707031 246.21875 287.320312 245.832031 C 286.933594 245.445312 286.515625 245.101562 286.0625 244.800781 C 285.609375 244.496094 285.132812 244.242188 284.628906 244.03125 C 284.125 243.824219 283.605469 243.667969 283.070312 243.558594 C 282.535156 243.453125 281.996094 243.402344 281.453125 243.402344 C 280.90625 243.402344 280.367188 243.453125 279.832031 243.558594 C 279.296875 243.667969 278.777344 243.824219 278.273438 244.03125 C 277.769531 244.242188 277.292969 244.496094 276.839844 244.800781 C 276.386719 245.101562 275.96875 245.445312 275.582031 245.832031 C 275.195312 246.21875 274.851562 246.636719 274.550781 247.089844 C 274.246094 247.542969 273.992188 248.019531 273.78125 248.523438 C 273.574219 249.027344 273.417969 249.546875 273.308594 250.082031 C 273.203125 250.617188 273.152344 251.15625 273.152344 251.699219 C 273.152344 253.058594 273.21875 254.414062 273.351562 255.769531 C 273.484375 257.121094 273.683594 258.464844 273.949219 259.796875 C 274.214844 261.128906 274.546875 262.445312 274.941406 263.746094 C 275.335938 265.046875 275.792969 266.324219 276.3125 267.582031 C 276.835938 268.835938 277.414062 270.0625 278.054688 271.261719 C 278.695312 272.460938 279.394531 273.625 280.148438 274.753906 C 280.90625 275.882812 281.714844 276.976562 282.574219 278.023438 C 283.4375 279.074219 284.351562 280.082031 285.3125 281.042969 C 286.273438 282.003906 287.277344 282.914062 288.328125 283.777344 C 289.378906 284.640625 290.46875 285.449219 291.597656 286.203125 C 292.730469 286.957031 293.894531 287.65625 295.09375 288.296875 C 296.289062 288.9375 297.515625 289.519531 298.773438 290.039062 C 300.027344 290.558594 301.304688 291.015625 302.605469 291.414062 C 303.90625 291.808594 305.222656 292.136719 306.558594 292.402344 C 307.890625 292.667969 309.234375 292.867188 310.585938 293 C 311.9375 293.136719 313.292969 293.203125 314.652344 293.203125 L 513.859375 293.203125 L 513.859375 334.703125 L 314.652344 334.703125 C 313.292969 334.703125 311.9375 334.773438 310.585938 334.90625 C 309.234375 335.039062 307.890625 335.238281 306.558594 335.503906 C 305.222656 335.769531 303.90625 336.101562 302.605469 336.496094 C 301.304688 336.890625 300.027344 337.347656 298.773438 337.867188 C 297.515625 338.386719 296.289062 338.96875 295.09375 339.609375 C 293.894531 340.25 292.730469 340.949219 291.597656 341.703125 C 290.46875 342.457031 289.378906 343.265625 288.328125 344.128906 C 287.277344 344.992188 286.273438 345.902344 285.3125 346.863281 C 284.351562 347.824219 283.4375 348.832031 282.574219 349.882812 C 281.714844 350.933594 280.90625 352.023438 280.148438 353.152344 C 279.394531 354.28125 278.695312 355.445312 278.054688 356.644531 C 277.414062 357.84375 276.835938 359.070312 276.3125 360.328125 C 275.792969 361.582031 275.335938 362.859375 274.941406 364.160156 C 274.546875 365.460938 274.214844 366.777344 273.949219 368.109375 C 273.683594 369.445312 273.484375 370.785156 273.351562 372.136719 C 273.21875 373.492188 273.152344 374.847656 273.152344 376.207031 L 273.152344 500.710938 C 273.152344 502.070312 273.21875 503.425781 273.351562 504.777344 C 273.484375 506.132812 273.683594 507.472656 273.949219 508.804688 C 274.214844 510.140625 274.546875 511.457031 274.941406 512.757812 C 275.335938 514.058594 275.792969 515.335938 276.3125 516.589844 C 276.835938 517.847656 277.414062 519.074219 278.054688 520.273438 C 278.695312 521.46875 279.394531 522.632812 280.148438 523.765625 C 280.90625 524.894531 281.714844 525.984375 282.574219 527.035156 C 283.4375 528.085938 284.351562 529.089844 285.3125 530.050781 C 286.273438 531.011719 287.277344 531.925781 288.328125 532.789062 C 289.378906 533.648438 290.46875 534.457031 291.597656 535.214844 C 292.730469 535.96875 293.894531 536.667969 295.09375 537.308594 C 296.289062 537.949219 297.515625 538.527344 298.773438 539.050781 C 300.027344 539.570312 301.304688 540.027344 302.605469 540.421875 C 303.90625 540.816406 305.222656 541.148438 306.558594 541.414062 C 307.890625 541.679688 309.234375 541.878906 310.585938 542.011719 C 311.9375 542.144531 313.292969 542.210938 314.652344 542.210938 L 538.761719 542.210938 C 540.121094 542.210938 541.476562 542.144531 542.828125 542.011719 C 544.179688 541.878906 545.523438 541.679688 546.855469 541.414062 C 548.191406 541.148438 549.507812 540.816406 550.808594 540.421875 C 552.109375 540.027344 553.386719 539.570312 554.640625 539.050781 C 555.898438 538.527344 557.125 537.949219 558.324219 537.308594 C 559.519531 536.667969 560.683594 535.96875 561.816406 535.214844 C 562.945312 534.457031 564.035156 533.648438 565.085938 532.789062 C 566.136719 531.925781 567.140625 531.011719 568.101562 530.050781 C 569.0625 529.089844 569.976562 528.085938 570.839844 527.035156 C 571.699219 525.984375 572.507812 524.894531 573.265625 523.765625 C 574.019531 522.632812 574.71875 521.46875 575.359375 520.273438 C 576 519.074219 576.578125 517.847656 577.101562 516.589844 C 577.621094 515.335938 578.078125 514.058594 578.472656 512.757812 C 578.867188 511.457031 579.199219 510.140625 579.464844 508.804688 C 579.730469 507.472656 579.929688 506.132812 580.0625 504.777344 C 580.195312 503.425781 580.261719 502.070312 580.261719 500.710938 L 580.261719 434.308594 C 580.261719 433.761719 580.210938 433.222656 580.105469 432.6875 C 579.996094 432.15625 579.839844 431.636719 579.632812 431.132812 C 579.421875 430.628906 579.167969 430.148438 578.863281 429.695312 C 578.5625 429.242188 578.21875 428.824219 577.832031 428.4375 C 577.445312 428.054688 577.027344 427.710938 576.574219 427.40625 C 576.121094 427.105469 575.644531 426.847656 575.140625 426.640625 C 574.636719 426.429688 574.117188 426.273438 573.582031 426.167969 C 573.046875 426.0625 572.507812 426.007812 571.960938 426.007812 C 571.417969 426.007812 570.878906 426.0625 570.34375 426.167969 C 569.808594 426.273438 569.289062 426.429688 568.785156 426.640625 C 568.28125 426.847656 567.804688 427.105469 567.351562 427.40625 C 566.898438 427.710938 566.480469 428.054688 566.09375 428.4375 C 565.707031 428.824219 565.363281 429.242188 565.0625 429.695312 C 564.757812 430.148438 564.503906 430.628906 564.292969 431.132812 C 564.085938 431.636719 563.929688 432.15625 563.820312 432.6875 C 563.714844 433.222656 563.664062 433.761719 563.664062 434.308594 L 563.664062 464.105469 L 536.355469 436.714844 C 535.960938 436.339844 535.535156 436.003906 535.078125 435.710938 C 534.621094 435.414062 534.140625 435.164062 533.636719 434.964844 C 533.132812 434.761719 532.613281 434.609375 532.078125 434.503906 C 531.542969 434.402344 531.003906 434.351562 530.460938 434.351562 C 529.917969 434.351562 529.378906 434.402344 528.84375 434.503906 C 528.308594 434.609375 527.789062 434.761719 527.285156 434.964844 C 526.78125 435.164062 526.300781 435.414062 525.84375 435.710938 C 525.386719 436.003906 524.960938 436.339844 524.566406 436.714844 L 468.125 493.324219 L 395 420.113281 C 394.613281 419.730469 394.191406 419.386719 393.734375 419.082031 C 393.277344 418.78125 392.800781 418.527344 392.292969 418.316406 C 391.789062 418.109375 391.265625 417.953125 390.730469 417.847656 C 390.195312 417.738281 389.652344 417.6875 389.105469 417.6875 C 388.558594 417.6875 388.019531 417.738281 387.480469 417.847656 C 386.945312 417.953125 386.425781 418.109375 385.917969 418.316406 C 385.414062 418.527344 384.933594 418.78125 384.476562 419.082031 C 384.023438 419.386719 383.601562 419.730469 383.214844 420.113281 L 292.160156 511.253906 C 290.582031 507.914062 289.78125 504.402344 289.75 500.710938 L 289.75 376.207031 C 289.753906 375.390625 289.796875 374.578125 289.878906 373.765625 C 289.960938 372.957031 290.082031 372.152344 290.242188 371.351562 C 290.402344 370.554688 290.601562 369.765625 290.839844 368.984375 C 291.078125 368.207031 291.355469 367.441406 291.667969 366.6875 C 291.980469 365.9375 292.328125 365.199219 292.714844 364.480469 C 293.097656 363.765625 293.515625 363.066406 293.96875 362.390625 C 294.421875 361.710938 294.910156 361.058594 295.425781 360.429688 C 295.945312 359.796875 296.488281 359.195312 297.066406 358.621094 C 297.640625 358.042969 298.246094 357.496094 298.875 356.980469 C 299.503906 356.460938 300.160156 355.976562 300.835938 355.523438 C 301.511719 355.070312 302.210938 354.652344 302.929688 354.265625 C 303.648438 353.882812 304.382812 353.53125 305.132812 353.21875 C 305.886719 352.90625 306.652344 352.632812 307.433594 352.394531 C 308.210938 352.15625 309 351.957031 309.800781 351.796875 C 310.597656 351.636719 311.402344 351.511719 312.214844 351.429688 C 313.023438 351.347656 313.835938 351.308594 314.652344 351.304688 L 538.761719 351.304688 C 539.578125 351.308594 540.390625 351.347656 541.199219 351.429688 C 542.011719 351.511719 542.816406 351.636719 543.613281 351.796875 C 544.414062 351.957031 545.203125 352.15625 545.980469 352.394531 C 546.761719 352.632812 547.527344 352.90625 548.28125 353.21875 C 549.03125 353.53125 549.765625 353.882812 550.484375 354.265625 C 551.203125 354.652344 551.902344 355.070312 552.578125 355.523438 C 553.253906 355.976562 553.910156 356.460938 554.539062 356.980469 C 555.167969 357.496094 555.773438 358.042969 556.347656 358.621094 C 556.925781 359.195312 557.472656 359.800781 557.988281 360.429688 C 558.503906 361.058594 558.992188 361.710938 559.445312 362.390625 C 559.898438 363.066406 560.316406 363.765625 560.699219 364.480469 C 561.085938 365.199219 561.433594 365.9375 561.746094 366.6875 C 562.058594 367.441406 562.335938 368.207031 562.574219 368.984375 C 562.8125 369.765625 563.011719 370.554688 563.171875 371.351562 C 563.332031 372.152344 563.453125 372.957031 563.535156 373.765625 C 563.617188 374.578125 563.660156 375.390625 563.664062 376.207031 L 563.664062 392.804688 C 563.664062 393.351562 563.71875 393.890625 563.824219 394.425781 C 563.933594 394.957031 564.089844 395.476562 564.300781 395.980469 C 564.511719 396.480469 564.765625 396.960938 565.070312 397.414062 C 565.371094 397.863281 565.714844 398.285156 566.101562 398.667969 C 566.484375 399.054688 566.90625 399.398438 567.355469 399.699219 C 567.808594 400.003906 568.289062 400.257812 568.789062 400.46875 C 569.292969 400.679688 569.8125 400.835938 570.34375 400.945312 C 570.878906 401.050781 571.417969 401.105469 571.960938 401.105469 L 762.871094 401.105469 C 764.230469 401.105469 765.585938 401.039062 766.9375 400.90625 C 768.289062 400.773438 769.632812 400.574219 770.964844 400.308594 C 772.300781 400.042969 773.617188 399.710938 774.917969 399.316406 C 776.214844 398.921875 777.496094 398.464844 778.75 397.945312 C 780.003906 397.421875 781.234375 396.84375 782.429688 396.203125 C 783.628906 395.5625 784.792969 394.863281 785.925781 394.109375 C 787.054688 393.351562 788.144531 392.542969 789.195312 391.683594 C 790.246094 390.820312 791.25 389.90625 792.210938 388.945312 C 793.171875 387.984375 794.085938 386.980469 794.945312 385.929688 C 795.808594 384.878906 796.617188 383.789062 797.375 382.660156 C 798.128906 381.527344 798.828125 380.363281 799.46875 379.167969 C 800.109375 377.96875 800.6875 376.742188 801.210938 375.484375 C 801.730469 374.230469 802.1875 372.953125 802.582031 371.652344 C 802.976562 370.351562 803.308594 369.035156 803.570312 367.699219 C 803.835938 366.367188 804.039062 365.023438 804.171875 363.671875 C 804.304688 362.320312 804.371094 360.964844 804.371094 359.605469 L 804.371094 226.800781 C 804.371094 225.441406 804.304688 224.085938 804.171875 222.734375 C 804.039062 221.378906 803.835938 220.039062 803.570312 218.703125 C 803.308594 217.371094 802.976562 216.054688 802.582031 214.753906 C 802.1875 213.453125 801.730469 212.175781 801.210938 210.921875 C 800.6875 209.664062 800.109375 208.4375 799.46875 207.238281 C 798.828125 206.039062 798.128906 204.875 797.375 203.746094 C 796.617188 202.617188 795.808594 201.527344 794.945312 200.476562 C 794.085938 199.425781 793.171875 198.417969 792.210938 197.457031 C 791.25 196.496094 790.246094 195.585938 789.195312 194.722656 C 788.144531 193.859375 787.054688 193.050781 785.925781 192.296875 C 784.792969 191.542969 783.628906 190.84375 782.429688 190.203125 C 781.234375 189.5625 780.003906 188.980469 778.75 188.460938 C 777.496094 187.941406 776.214844 187.484375 774.917969 187.089844 C 773.617188 186.695312 772.300781 186.363281 770.964844 186.097656 C 769.632812 185.832031 768.289062 185.632812 766.9375 185.5 C 765.585938 185.367188 764.230469 185.300781 762.871094 185.296875 Z M 530.460938 454.3125 L 563.664062 487.511719 L 563.664062 500.710938 C 563.660156 501.527344 563.617188 502.339844 563.535156 503.148438 C 563.453125 503.960938 563.332031 504.765625 563.171875 505.5625 C 563.011719 506.363281 562.8125 507.152344 562.574219 507.929688 C 562.335938 508.710938 562.058594 509.476562 561.746094 510.230469 C 561.433594 510.980469 561.085938 511.714844 560.699219 512.433594 C 560.316406 513.152344 559.898438 513.851562 559.445312 514.527344 C 558.992188 515.207031 558.503906 515.859375 557.988281 516.488281 C 557.472656 517.117188 556.925781 517.722656 556.347656 518.296875 C 555.773438 518.875 555.167969 519.421875 554.539062 519.9375 C 553.910156 520.453125 553.253906 520.941406 552.578125 521.394531 C 551.902344 521.847656 551.203125 522.265625 550.484375 522.648438 C 549.765625 523.035156 549.03125 523.382812 548.28125 523.695312 C 547.527344 524.011719 546.761719 524.285156 545.980469 524.523438 C 545.203125 524.761719 544.414062 524.960938 543.613281 525.121094 C 542.816406 525.28125 542.011719 525.402344 541.199219 525.484375 C 540.390625 525.566406 539.578125 525.609375 538.761719 525.613281 L 500.414062 525.613281 L 479.828125 505.027344 Z M 389.105469 437.710938 L 477.007812 525.613281 L 314.652344 525.613281 C 310.855469 525.585938 307.261719 524.730469 303.863281 523.039062 Z M 389.105469 437.710938 " fill-opacity="1" fill-rule="nonzero"/></g><path fill="#ffffff" d="M 710.992188 233.773438 C 709.398438 232.609375 707.691406 231.652344 705.867188 230.898438 C 704.042969 230.148438 702.15625 229.625 700.203125 229.328125 C 698.253906 229.03125 696.296875 228.972656 694.332031 229.148438 C 692.367188 229.324219 690.449219 229.730469 688.582031 230.371094 L 612.136719 255.851562 L 588.5625 255.851562 C 587.75 255.855469 586.9375 255.894531 586.125 255.976562 C 585.3125 256.058594 584.507812 256.179688 583.710938 256.339844 C 582.910156 256.503906 582.121094 256.703125 581.34375 256.941406 C 580.5625 257.175781 579.796875 257.453125 579.046875 257.765625 C 578.292969 258.078125 577.558594 258.429688 576.839844 258.8125 C 576.121094 259.199219 575.421875 259.617188 574.746094 260.070312 C 574.070312 260.523438 573.414062 261.007812 572.785156 261.527344 C 572.15625 262.042969 571.554688 262.589844 570.976562 263.164062 C 570.402344 263.742188 569.855469 264.34375 569.335938 264.976562 C 568.820312 265.605469 568.335938 266.257812 567.882812 266.933594 C 567.429688 267.613281 567.007812 268.308594 566.625 269.027344 C 566.238281 269.746094 565.890625 270.480469 565.578125 271.234375 C 565.265625 271.988281 564.988281 272.753906 564.75 273.53125 C 564.511719 274.3125 564.3125 275.101562 564.152344 275.898438 C 563.992188 276.699219 563.871094 277.503906 563.789062 278.3125 C 563.707031 279.125 563.664062 279.9375 563.664062 280.753906 L 563.664062 289.050781 C 563.667969 290.460938 563.789062 291.859375 564.03125 293.246094 C 564.269531 294.636719 564.628906 295.992188 565.097656 297.320312 C 565.566406 298.648438 566.148438 299.929688 566.832031 301.160156 C 567.519531 302.386719 568.304688 303.550781 569.191406 304.648438 C 570.074219 305.746094 571.042969 306.761719 572.097656 307.695312 C 573.152344 308.628906 574.28125 309.464844 575.476562 310.207031 C 576.675781 310.953125 577.925781 311.589844 579.230469 312.121094 C 580.535156 312.648438 581.875 313.066406 583.25 313.371094 L 586.820312 342.007812 C 586.917969 342.753906 587.046875 343.488281 587.210938 344.222656 C 587.375 344.953125 587.570312 345.675781 587.800781 346.390625 C 588.027344 347.105469 588.289062 347.804688 588.578125 348.496094 C 588.871094 349.1875 589.195312 349.863281 589.546875 350.523438 C 589.898438 351.1875 590.28125 351.832031 590.691406 352.457031 C 591.101562 353.085938 591.539062 353.691406 592.003906 354.28125 C 592.472656 354.867188 592.960938 355.433594 593.476562 355.976562 C 593.996094 356.519531 594.535156 357.039062 595.097656 357.535156 C 595.660156 358.03125 596.242188 358.5 596.847656 358.941406 C 597.453125 359.382812 598.078125 359.796875 598.722656 360.183594 C 599.363281 360.570312 600.023438 360.925781 600.695312 361.253906 C 601.371094 361.582031 602.058594 361.878906 602.761719 362.140625 C 603.460938 362.40625 604.171875 362.640625 604.894531 362.839844 C 605.617188 363.042969 606.347656 363.210938 607.085938 363.34375 C 607.824219 363.480469 608.566406 363.582031 609.3125 363.652344 C 610.058594 363.71875 610.804688 363.753906 611.554688 363.753906 L 621.765625 363.753906 C 622.308594 363.753906 622.847656 363.699219 623.382812 363.59375 C 623.917969 363.484375 624.433594 363.328125 624.9375 363.117188 C 625.441406 362.90625 625.917969 362.652344 626.371094 362.347656 C 626.824219 362.046875 627.242188 361.703125 627.628906 361.316406 C 628.011719 360.933594 628.355469 360.511719 628.660156 360.0625 C 628.960938 359.609375 629.21875 359.128906 629.425781 358.628906 C 629.636719 358.125 629.792969 357.605469 629.902344 357.074219 C 630.007812 356.539062 630.0625 356 630.066406 355.457031 L 630.066406 319.929688 L 688.582031 339.433594 C 690.453125 340.039062 692.371094 340.421875 694.332031 340.582031 C 696.292969 340.738281 698.246094 340.671875 700.1875 340.375 C 702.132812 340.082031 704.019531 339.566406 705.84375 338.832031 C 707.667969 338.097656 709.386719 337.164062 710.992188 336.03125 C 712.605469 334.894531 714.0625 333.578125 715.359375 332.089844 C 716.652344 330.601562 717.753906 328.976562 718.65625 327.222656 C 719.558594 325.464844 720.242188 323.625 720.699219 321.707031 C 721.160156 319.785156 721.382812 317.835938 721.367188 315.863281 L 721.367188 253.941406 C 721.382812 251.96875 721.160156 250.019531 720.699219 248.097656 C 720.242188 246.179688 719.558594 244.339844 718.65625 242.582031 C 717.753906 240.828125 716.652344 239.203125 715.359375 237.714844 C 714.0625 236.222656 712.605469 234.910156 710.992188 233.773438 Z M 588.5625 297.351562 C 588.019531 297.351562 587.480469 297.296875 586.945312 297.1875 C 586.410156 297.082031 585.894531 296.921875 585.390625 296.714844 C 584.886719 296.503906 584.410156 296.25 583.957031 295.945312 C 583.503906 295.644531 583.085938 295.300781 582.703125 294.914062 C 582.316406 294.53125 581.972656 294.109375 581.667969 293.65625 C 581.367188 293.207031 581.109375 292.726562 580.902344 292.226562 C 580.691406 291.722656 580.535156 291.203125 580.425781 290.671875 C 580.320312 290.136719 580.265625 289.597656 580.261719 289.050781 L 580.261719 280.753906 C 580.265625 280.207031 580.320312 279.667969 580.425781 279.132812 C 580.535156 278.601562 580.691406 278.082031 580.902344 277.578125 C 581.109375 277.078125 581.367188 276.597656 581.667969 276.144531 C 581.972656 275.695312 582.316406 275.273438 582.703125 274.890625 C 583.085938 274.503906 583.503906 274.160156 583.957031 273.859375 C 584.410156 273.554688 584.886719 273.300781 585.390625 273.089844 C 585.894531 272.882812 586.410156 272.722656 586.945312 272.617188 C 587.480469 272.507812 588.019531 272.453125 588.5625 272.453125 L 605.164062 272.453125 L 605.164062 297.351562 Z M 613.464844 347.15625 C 608.648438 347.15625 604.003906 345.328125 603.253906 339.933594 L 600.019531 313.953125 L 612.136719 313.953125 L 613.464844 314.367188 Z M 704.769531 315.863281 C 704.769531 316.523438 704.695312 317.171875 704.539062 317.8125 C 704.386719 318.453125 704.15625 319.066406 703.851562 319.652344 C 703.550781 320.238281 703.179688 320.78125 702.746094 321.277344 C 702.308594 321.769531 701.824219 322.207031 701.28125 322.585938 C 700.753906 322.976562 700.183594 323.296875 699.574219 323.546875 C 698.964844 323.796875 698.332031 323.96875 697.683594 324.0625 C 697.03125 324.15625 696.378906 324.167969 695.722656 324.101562 C 695.066406 324.035156 694.429688 323.890625 693.8125 323.664062 L 621.765625 299.675781 L 621.765625 270.128906 L 693.8125 246.140625 C 694.429688 245.914062 695.066406 245.769531 695.722656 245.703125 C 696.378906 245.636719 697.03125 245.648438 697.683594 245.742188 C 698.332031 245.835938 698.964844 246.007812 699.574219 246.257812 C 700.183594 246.507812 700.753906 246.828125 701.28125 247.21875 C 701.824219 247.597656 702.308594 248.03125 702.746094 248.527344 C 703.179688 249.023438 703.550781 249.566406 703.851562 250.152344 C 704.15625 250.738281 704.386719 251.351562 704.539062 251.992188 C 704.695312 252.632812 704.769531 253.28125 704.769531 253.941406 Z M 704.769531 315.863281 " fill-opacity="1" fill-rule="nonzero"/><path fill="#ffffff" d="M 754.570312 301.503906 L 754.570312 268.300781 C 754.570312 267.757812 754.515625 267.21875 754.410156 266.683594 C 754.304688 266.148438 754.148438 265.628906 753.9375 265.125 C 753.730469 264.621094 753.472656 264.144531 753.171875 263.691406 C 752.867188 263.238281 752.523438 262.816406 752.140625 262.433594 C 751.753906 262.046875 751.335938 261.703125 750.882812 261.398438 C 750.429688 261.097656 749.949219 260.839844 749.445312 260.632812 C 748.941406 260.425781 748.421875 260.265625 747.890625 260.160156 C 747.355469 260.054688 746.816406 260 746.269531 260 C 745.726562 260 745.183594 260.054688 744.652344 260.160156 C 744.117188 260.265625 743.597656 260.425781 743.09375 260.632812 C 742.589844 260.839844 742.113281 261.097656 741.660156 261.398438 C 741.207031 261.703125 740.785156 262.046875 740.402344 262.433594 C 740.015625 262.816406 739.671875 263.238281 739.367188 263.691406 C 739.066406 264.144531 738.808594 264.621094 738.601562 265.125 C 738.394531 265.628906 738.234375 266.148438 738.128906 266.683594 C 738.023438 267.21875 737.96875 267.757812 737.96875 268.300781 L 737.96875 301.503906 C 737.96875 302.046875 738.023438 302.585938 738.128906 303.121094 C 738.234375 303.65625 738.394531 304.175781 738.601562 304.679688 C 738.808594 305.183594 739.066406 305.660156 739.367188 306.113281 C 739.671875 306.566406 740.015625 306.988281 740.402344 307.371094 C 740.785156 307.757812 741.207031 308.101562 741.660156 308.40625 C 742.113281 308.707031 742.589844 308.960938 743.09375 309.171875 C 743.597656 309.378906 744.117188 309.539062 744.652344 309.644531 C 745.183594 309.75 745.726562 309.804688 746.269531 309.804688 C 746.816406 309.804688 747.355469 309.75 747.890625 309.644531 C 748.421875 309.539062 748.941406 309.378906 749.445312 309.171875 C 749.949219 308.960938 750.429688 308.707031 750.882812 308.40625 C 751.335938 308.101562 751.753906 307.757812 752.140625 307.371094 C 752.523438 306.988281 752.867188 306.566406 753.171875 306.113281 C 753.472656 305.660156 753.730469 305.183594 753.9375 304.679688 C 754.148438 304.175781 754.304688 303.65625 754.410156 303.121094 C 754.515625 302.585938 754.570312 302.046875 754.570312 301.503906 Z M 754.570312 301.503906 " fill-opacity="1" fill-rule="nonzero"/><path fill="#ffffff" d="M 480.660156 367.90625 C 479.84375 367.90625 479.03125 367.945312 478.21875 368.027344 C 477.40625 368.105469 476.601562 368.226562 475.800781 368.382812 C 475 368.542969 474.210938 368.742188 473.429688 368.976562 C 472.652344 369.214844 471.882812 369.488281 471.128906 369.800781 C 470.375 370.113281 469.640625 370.460938 468.921875 370.847656 C 468.203125 371.230469 467.503906 371.648438 466.824219 372.101562 C 466.148438 372.554688 465.492188 373.039062 464.863281 373.558594 C 464.230469 374.074219 463.628906 374.621094 463.050781 375.199219 C 462.476562 375.777344 461.929688 376.378906 461.410156 377.007812 C 460.894531 377.640625 460.40625 378.292969 459.953125 378.972656 C 459.5 379.652344 459.082031 380.347656 458.699219 381.066406 C 458.3125 381.789062 457.964844 382.523438 457.652344 383.277344 C 457.339844 384.03125 457.066406 384.796875 456.832031 385.578125 C 456.59375 386.359375 456.394531 387.148438 456.238281 387.949219 C 456.078125 388.75 455.957031 389.554688 455.878906 390.367188 C 455.796875 391.175781 455.757812 391.992188 455.757812 392.804688 C 455.757812 393.621094 455.796875 394.4375 455.878906 395.246094 C 455.957031 396.058594 456.078125 396.863281 456.238281 397.664062 C 456.394531 398.464844 456.59375 399.253906 456.832031 400.035156 C 457.066406 400.816406 457.339844 401.582031 457.652344 402.335938 C 457.964844 403.089844 458.3125 403.824219 458.699219 404.542969 C 459.082031 405.265625 459.5 405.960938 459.953125 406.640625 C 460.40625 407.320312 460.894531 407.972656 461.410156 408.605469 C 461.929688 409.234375 462.476562 409.835938 463.050781 410.414062 C 463.628906 410.992188 464.230469 411.539062 464.863281 412.054688 C 465.492188 412.574219 466.148438 413.058594 466.824219 413.511719 C 467.503906 413.964844 468.203125 414.382812 468.921875 414.765625 C 469.640625 415.152344 470.375 415.5 471.128906 415.8125 C 471.882812 416.125 472.652344 416.398438 473.429688 416.636719 C 474.210938 416.871094 475 417.070312 475.800781 417.230469 C 476.601562 417.386719 477.40625 417.507812 478.21875 417.585938 C 479.03125 417.667969 479.84375 417.707031 480.660156 417.707031 C 481.476562 417.707031 482.289062 417.667969 483.101562 417.585938 C 483.910156 417.507812 484.71875 417.386719 485.515625 417.230469 C 486.316406 417.070312 487.105469 416.871094 487.886719 416.636719 C 488.667969 416.398438 489.433594 416.125 490.1875 415.8125 C 490.941406 415.5 491.679688 415.152344 492.398438 414.765625 C 493.117188 414.382812 493.816406 413.964844 494.492188 413.511719 C 495.171875 413.058594 495.824219 412.574219 496.457031 412.054688 C 497.085938 411.539062 497.691406 410.992188 498.265625 410.414062 C 498.84375 409.835938 499.390625 409.234375 499.90625 408.605469 C 500.425781 407.972656 500.910156 407.320312 501.363281 406.640625 C 501.816406 405.960938 502.234375 405.265625 502.621094 404.542969 C 503.003906 403.824219 503.351562 403.089844 503.664062 402.335938 C 503.976562 401.582031 504.25 400.816406 504.488281 400.035156 C 504.726562 399.253906 504.921875 398.464844 505.082031 397.664062 C 505.242188 396.863281 505.359375 396.058594 505.441406 395.246094 C 505.519531 394.4375 505.558594 393.621094 505.558594 392.804688 C 505.558594 391.992188 505.515625 391.179688 505.433594 390.367188 C 505.351562 389.558594 505.230469 388.753906 505.070312 387.953125 C 504.910156 387.15625 504.710938 386.367188 504.472656 385.585938 C 504.234375 384.808594 503.957031 384.042969 503.644531 383.289062 C 503.332031 382.535156 502.984375 381.800781 502.597656 381.082031 C 502.214844 380.363281 501.792969 379.667969 501.339844 378.988281 C 500.886719 378.3125 500.402344 377.660156 499.886719 377.027344 C 499.367188 376.398438 498.820312 375.796875 498.246094 375.21875 C 497.667969 374.644531 497.066406 374.097656 496.4375 373.582031 C 495.808594 373.0625 495.152344 372.578125 494.476562 372.125 C 493.800781 371.671875 493.101562 371.253906 492.382812 370.867188 C 491.664062 370.484375 490.929688 370.132812 490.175781 369.820312 C 489.425781 369.507812 488.660156 369.230469 487.878906 368.996094 C 487.101562 368.757812 486.3125 368.558594 485.511719 368.394531 C 484.714844 368.234375 483.910156 368.113281 483.097656 368.03125 C 482.285156 367.949219 481.472656 367.90625 480.660156 367.90625 Z M 480.660156 401.105469 C 480.113281 401.105469 479.574219 401.054688 479.039062 400.949219 C 478.503906 400.839844 477.984375 400.683594 477.484375 400.476562 C 476.980469 400.265625 476.5 400.011719 476.046875 399.707031 C 475.59375 399.40625 475.175781 399.0625 474.789062 398.675781 C 474.40625 398.289062 474.058594 397.871094 473.757812 397.417969 C 473.453125 396.964844 473.199219 396.488281 472.992188 395.984375 C 472.78125 395.480469 472.625 394.960938 472.519531 394.425781 C 472.410156 393.890625 472.359375 393.351562 472.359375 392.804688 C 472.359375 392.261719 472.410156 391.722656 472.519531 391.1875 C 472.625 390.652344 472.78125 390.132812 472.992188 389.628906 C 473.199219 389.125 473.453125 388.648438 473.757812 388.195312 C 474.058594 387.742188 474.40625 387.324219 474.789062 386.9375 C 475.175781 386.550781 475.59375 386.207031 476.046875 385.90625 C 476.5 385.601562 476.980469 385.347656 477.484375 385.136719 C 477.984375 384.929688 478.503906 384.773438 479.039062 384.664062 C 479.574219 384.558594 480.113281 384.507812 480.660156 384.507812 C 481.203125 384.507812 481.742188 384.558594 482.277344 384.664062 C 482.8125 384.773438 483.332031 384.929688 483.835938 385.136719 C 484.339844 385.347656 484.816406 385.601562 485.269531 385.90625 C 485.722656 386.207031 486.144531 386.550781 486.527344 386.9375 C 486.914062 387.324219 487.257812 387.742188 487.5625 388.195312 C 487.863281 388.648438 488.117188 389.125 488.328125 389.628906 C 488.535156 390.132812 488.695312 390.652344 488.800781 391.1875 C 488.90625 391.722656 488.960938 392.261719 488.960938 392.804688 C 488.957031 393.351562 488.902344 393.890625 488.796875 394.425781 C 488.6875 394.957031 488.53125 395.476562 488.320312 395.980469 C 488.113281 396.480469 487.855469 396.960938 487.554688 397.414062 C 487.25 397.863281 486.90625 398.285156 486.519531 398.667969 C 486.136719 399.054688 485.71875 399.398438 485.265625 399.699219 C 484.8125 400.003906 484.335938 400.257812 483.832031 400.46875 C 483.328125 400.675781 482.8125 400.835938 482.277344 400.945312 C 481.742188 401.050781 481.203125 401.105469 480.660156 401.105469 Z M 480.660156 401.105469 " fill-opacity="1" fill-rule="nonzero"/><g clip-path="url(#4e1fb88e78)"><path fill="#ffffff" d="M 289.835938 218.542969 C 289.835938 219.089844 289.78125 219.632812 289.675781 220.167969 C 289.566406 220.707031 289.410156 221.226562 289.199219 221.734375 C 288.988281 222.238281 288.734375 222.71875 288.429688 223.175781 C 288.125 223.632812 287.777344 224.050781 287.390625 224.441406 C 287.003906 224.828125 286.582031 225.171875 286.128906 225.476562 C 285.671875 225.78125 285.191406 226.039062 284.683594 226.246094 C 284.179688 226.457031 283.65625 226.617188 283.121094 226.722656 C 282.582031 226.828125 282.039062 226.882812 281.492188 226.882812 C 280.945312 226.882812 280.402344 226.828125 279.867188 226.722656 C 279.328125 226.617188 278.804688 226.457031 278.300781 226.246094 C 277.792969 226.039062 277.3125 225.78125 276.859375 225.476562 C 276.402344 225.171875 275.980469 224.828125 275.59375 224.441406 C 275.207031 224.050781 274.859375 223.632812 274.558594 223.175781 C 274.253906 222.71875 273.996094 222.238281 273.785156 221.734375 C 273.578125 221.226562 273.417969 220.707031 273.3125 220.167969 C 273.203125 219.632812 273.152344 219.089844 273.152344 218.542969 C 273.152344 217.992188 273.203125 217.449219 273.3125 216.914062 C 273.417969 216.375 273.578125 215.855469 273.785156 215.347656 C 273.996094 214.84375 274.253906 214.363281 274.558594 213.90625 C 274.859375 213.453125 275.207031 213.03125 275.59375 212.644531 C 275.980469 212.253906 276.402344 211.910156 276.859375 211.605469 C 277.3125 211.300781 277.792969 211.042969 278.300781 210.835938 C 278.804688 210.625 279.328125 210.464844 279.867188 210.359375 C 280.402344 210.253906 280.945312 210.199219 281.492188 210.199219 C 282.039062 210.199219 282.582031 210.253906 283.121094 210.359375 C 283.65625 210.464844 284.179688 210.625 284.683594 210.835938 C 285.191406 211.042969 285.671875 211.300781 286.128906 211.605469 C 286.582031 211.910156 287.003906 212.253906 287.390625 212.644531 C 287.777344 213.03125 288.125 213.453125 288.429688 213.90625 C 288.734375 214.363281 288.988281 214.84375 289.199219 215.347656 C 289.410156 215.855469 289.566406 216.375 289.675781 216.914062 C 289.78125 217.449219 289.835938 217.992188 289.835938 218.542969 Z M 289.835938 218.542969 " fill-opacity="1" fill-rule="nonzero"/></g></svg>