<svg xmlns="http://www.w3.org/2000/svg" xmlns:xlink="http://www.w3.org/1999/xlink" width="1366" zoomAndPan="magnify" viewBox="0 0 1024.5 576" height="768" preserveAspectRatio="xMidYMid meet" version="1.0"><defs><clipPath id="b922064a6c"><path d="M 265.804688 39.003906 L 758.3125 39.003906 L 758.3125 533 L 265.804688 533 Z M 265.804688 39.003906 " clip-rule="nonzero"/></clipPath></defs><g clip-path="url(#b922064a6c)"><path fill="#0066ff" d="M 747.65625 138.824219 C 738.394531 97.007812 697.859375 58.703125 655.929688 50.570312 C 630.386719 45.460938 559.125 39.152344 511.996094 39.671875 C 464.863281 39.152344 393.601562 45.460938 368.058594 50.570312 C 326.128906 58.703125 285.59375 97.007812 276.335938 138.824219 C 271.066406 164.210938 265.882812 198.753906 265.804688 245.90625 C 265.882812 293.058594 271.066406 327.589844 276.335938 352.980469 C 285.59375 394.792969 326.128906 433.097656 368.058594 441.234375 C 381.851562 443.992188 408.96875 447.097656 438.425781 449.292969 C 441.761719 454.53125 445.378906 460.109375 449.292969 466.023438 C 464.921875 489.691406 476.882812 506.183594 485.941406 517.675781 C 501.023438 536.804688 522.976562 536.804688 538.054688 517.675781 C 547.113281 506.183594 559.070312 489.691406 574.707031 466.023438 C 578.621094 460.101562 582.226562 454.53125 585.574219 449.292969 C 615.027344 447.097656 642.148438 443.992188 655.949219 441.234375 C 697.878906 433.097656 738.414062 394.792969 747.671875 352.980469 C 752.945312 327.589844 758.128906 293.058594 758.203125 245.90625 C 758.128906 198.753906 752.945312 164.21875 747.671875 138.832031 Z M 539.179688 388.859375 C 538.144531 394.714844 532.835938 400.023438 526.976562 401.0625 C 523.429688 401.648438 518.589844 402.207031 511.984375 402.21875 C 505.386719 402.21875 500.550781 401.660156 496.992188 401.0625 C 491.136719 400.023438 485.828125 394.714844 484.789062 388.859375 C 484.203125 385.3125 483.644531 380.472656 483.632812 373.867188 C 483.632812 367.269531 484.191406 362.433594 484.789062 358.875 C 485.828125 353.019531 491.136719 347.710938 496.992188 346.671875 C 500.539062 346.085938 505.378906 345.527344 511.984375 345.515625 C 518.582031 345.515625 523.417969 346.074219 526.976562 346.671875 C 532.835938 347.710938 538.144531 353.019531 539.179688 358.875 C 539.769531 362.421875 540.324219 367.261719 540.335938 373.867188 C 540.335938 380.464844 539.777344 385.300781 539.179688 388.859375 Z M 597.726562 231.347656 C 590.304688 241.847656 579.175781 251.433594 562.714844 261.503906 C 541.875 274.351562 538.535156 279.632812 538.535156 289.96875 L 538.535156 294.058594 C 538.535156 308.714844 526.613281 320.636719 511.957031 320.636719 C 497.300781 320.636719 485.375 308.714844 485.375 294.058594 L 485.375 284.585938 C 485.375 272.390625 488.421875 262.042969 494.695312 252.953125 C 500.773438 244.144531 509.878906 236.316406 523.390625 228.289062 C 548.289062 213.640625 552.847656 205.417969 552.847656 194.503906 C 552.847656 180.789062 541.164062 171.921875 523.09375 171.921875 C 503.28125 171.921875 490.386719 180.925781 484.757812 198.6875 C 481.046875 210.402344 470.199219 218.265625 457.773438 218.265625 C 457.082031 218.265625 456.390625 218.238281 455.699219 218.191406 C 446.925781 217.554688 439.070312 213.007812 434.144531 205.707031 C 429.269531 198.484375 427.992188 189.609375 430.636719 181.347656 C 436.695312 162.460938 448.3125 146.746094 464.226562 135.898438 C 480.34375 124.917969 500.703125 119.117188 523.082031 119.117188 C 545.460938 119.117188 567.898438 126.53125 583.824219 139.996094 C 600.210938 153.855469 609.238281 172.953125 609.238281 193.792969 C 609.238281 208.101562 605.480469 220.390625 597.726562 231.347656 Z M 597.726562 231.347656 " fill-opacity="1" fill-rule="nonzero"/></g></svg>