<svg xmlns="http://www.w3.org/2000/svg" xmlns:xlink="http://www.w3.org/1999/xlink" width="1366" zoomAndPan="magnify" viewBox="0 0 1024.5 576" height="768" preserveAspectRatio="xMidYMid meet" version="1.0"><defs><filter x="0%" y="0%" width="100%" height="100%" id="1528de9a3b"><feColorMatrix values="0 0 0 0 1 0 0 0 0 1 0 0 0 0 1 0 0 0 1 0" color-interpolation-filters="sRGB"/></filter><clipPath id="04bd9abdbe"><path d="M 0 0.140625 L 1024 0.140625 L 1024 402 L 0 402 Z M 0 0.140625 " clip-rule="nonzero"/></clipPath><clipPath id="1d6051fc7c"><path d="M 0 0.140625 L 667 0.140625 L 667 438 L 0 438 Z M 0 0.140625 " clip-rule="nonzero"/></clipPath><clipPath id="6b24d9d98d"><path d="M 0 0.140625 L 1024 0.140625 L 1024 279 L 0 279 Z M 0 0.140625 " clip-rule="nonzero"/></clipPath><mask id="6435b3f58a"><g filter="url(#1528de9a3b)"><rect x="-102.45" width="1229.4" fill="#000000" y="-57.6" height="691.2" fill-opacity="0.42"/></g></mask><clipPath id="20bdbdb8d6"><path d="M 0 0.140625 L 1024 0.140625 L 1024 278.644531 L 0 278.644531 Z M 0 0.140625 " clip-rule="nonzero"/></clipPath><clipPath id="c887b3702c"><rect x="0" width="1024" y="0" height="279"/></clipPath><clipPath id="09c5407a9d"><path d="M 0 0.140625 L 825 0.140625 L 825 223 L 0 223 Z M 0 0.140625 " clip-rule="nonzero"/></clipPath><mask id="2d1d882b8a"><g filter="url(#1528de9a3b)"><rect x="-102.45" width="1229.4" fill="#000000" y="-57.6" height="691.2" fill-opacity="0.42"/></g></mask><clipPath id="efee93ca7f"><path d="M 0 0.140625 L 824 0.140625 L 824 222.75 L 0 222.75 Z M 0 0.140625 " clip-rule="nonzero"/></clipPath><clipPath id="b90bb074fa"><rect x="0" width="825" y="0" height="223"/></clipPath></defs><g clip-path="url(#04bd9abdbe)"><path fill="#1f5ccd" d="M 1023.917969 327.273438 C 657.015625 543.671875 308.707031 224.152344 197.148438 139.585938 C 85.59375 55.015625 0.0820312 26.347656 0.0820312 26.347656 L 0.0820312 -36.71875 L 1023.917969 -36.71875 Z M 1023.917969 327.273438 " fill-opacity="1" fill-rule="nonzero"/></g><g clip-path="url(#1d6051fc7c)"><path fill="#617eea" d="M 666.3125 -36.71875 C 666.3125 140.363281 422.515625 169.070312 271.929688 169.070312 C 121.34375 169.070312 0.0820312 414.667969 0.0820312 437.972656 L 0.0820312 -36.71875 Z M 666.3125 -36.71875 " fill-opacity="1" fill-rule="nonzero"/></g><g clip-path="url(#6b24d9d98d)"><g mask="url(#6435b3f58a)"><g transform="matrix(1, 0, 0, 1, 0, 0.000000000000055289)"><g clip-path="url(#c887b3702c)"><g clip-path="url(#20bdbdb8d6)"><path fill="#1865f2" d="M 1023.917969 222.230469 C 867.558594 38.429688 735.769531 262.078125 558.890625 277.679688 C 382.054688 293.28125 0.0820312 76.558594 0.0820312 76.558594 L 0.0820312 -36.71875 L 1023.917969 -36.71875 Z M 1023.917969 222.230469 " fill-opacity="1" fill-rule="nonzero"/></g></g></g></g></g><g clip-path="url(#09c5407a9d)"><g mask="url(#2d1d882b8a)"><g transform="matrix(1, 0, 0, 1, 0, 0.000000000000055289)"><g clip-path="url(#b90bb074fa)"><g clip-path="url(#efee93ca7f)"><path fill="#1865f2" d="M 806.128906 -36.71875 C 806.128906 -36.71875 870.671875 110.261719 752.355469 200.605469 C 634.042969 290.949219 320.339844 68.652344 209.191406 74.058594 C 98.042969 79.425781 0.0820312 222.230469 0.0820312 222.230469 L 0.0820312 -36.71875 Z M 806.128906 -36.71875 " fill-opacity="1" fill-rule="nonzero"/></g></g></g></g></g></svg>