<svg xmlns="http://www.w3.org/2000/svg" xmlns:xlink="http://www.w3.org/1999/xlink" width="1366" zoomAndPan="magnify" viewBox="0 0 1024.5 576" height="768" preserveAspectRatio="xMidYMid meet" version="1.0"><defs><clipPath id="1a010e1d4c"><path d="M 111.054688 7.039062 L 1001 7.039062 L 1001 569.265625 L 111.054688 569.265625 Z M 111.054688 7.039062 " clip-rule="nonzero"/></clipPath></defs><g clip-path="url(#1a010e1d4c)"><path fill="#ffffff" d="M 957.222656 403.355469 C 956.671875 402.988281 956.121094 402.804688 955.570312 402.621094 C 956.671875 393.257812 958.324219 384.445312 961.078125 370.859375 C 965.664062 348.097656 970.070312 325.882812 973.003906 310.828125 C 974.105469 305.503906 975.757812 297.058594 976.859375 292.652344 C 981.265625 274.109375 987.503906 248.773438 972.273438 219.949219 C 963.828125 203.792969 950.984375 191.125 934.835938 183.597656 C 923.089844 178.089844 908.40625 174.601562 895.746094 174.601562 C 892.625 174.601562 889.6875 174.785156 886.753906 175.152344 C 884.183594 175.152344 880.878906 175.152344 877.027344 175.335938 C 865.832031 175.335938 858.308594 175.703125 853.167969 176.070312 C 844.175781 172.582031 834.449219 170.746094 824.722656 170.746094 C 809.125 170.746094 793.894531 175.519531 780.863281 184.148438 C 773.523438 184.332031 766.183594 185.800781 759.394531 188.003906 C 747.097656 180.660156 733.148438 176.804688 718.835938 176.804688 C 710.578125 176.804688 702.503906 178.089844 694.976562 180.476562 C 681.582031 173.5 666.902344 169.644531 651.851562 169.277344 C 648.914062 139.351562 629.648438 115.117188 602.851562 105.019531 C 595.878906 71.789062 569.085938 47.1875 535.320312 44.800781 C 530.179688 36.171875 523.941406 29.5625 518.070312 24.972656 C 500.265625 10.285156 481.914062 7.164062 469.621094 7.164062 C 460.261719 7.164062 446.863281 9 432.734375 16.894531 C 417.5 9.183594 403.371094 8.449219 398.414062 8.449219 C 383.183594 8.449219 368.320312 13.039062 355.65625 21.851562 C 354.554688 21.300781 353.453125 20.75 352.351562 20.199219 C 343.175781 16.160156 333.265625 14.324219 323.175781 14.324219 C 313.449219 14.324219 303.722656 16.160156 294.546875 19.832031 C 278.027344 26.441406 264.449219 38.558594 256.191406 54.164062 C 234.535156 54.347656 214.347656 63.894531 200.21875 80.417969 C 189.023438 93.453125 182.96875 109.792969 182.417969 126.867188 C 167 132.375 153.605469 142.65625 144.246094 156.976562 C 128.648438 180.476562 127.363281 208.75 140.023438 232.800781 C 121.855469 247.488281 111.027344 269.886719 111.578125 293.566406 C 111.945312 320.738281 127.179688 345.523438 151.035156 358.558594 C 151.585938 358.742188 151.953125 359.109375 152.503906 359.292969 C 151.402344 364.25 151.035156 369.207031 151.035156 374.347656 C 151.035156 407.027344 170.488281 434.382812 198.75 445.398438 C 200.585938 457.882812 205.722656 469.632812 213.613281 479.914062 C 227.929688 498.640625 249.765625 509.289062 273.625 509.289062 C 293.078125 509.289062 310.328125 501.578125 322.808594 494.050781 C 324.089844 496.253906 325.191406 498.089844 326.109375 499.742188 C 328.679688 510.941406 333.082031 519.570312 336.203125 524.527344 L 336.570312 525.261719 C 351.433594 548.578125 373.273438 561.429688 401.902344 563.632812 C 411.261719 566.570312 419.703125 567.671875 427.042969 568.40625 C 431.816406 568.957031 436.21875 569.140625 440.441406 569.140625 C 460.445312 569.140625 475.859375 564.183594 488.15625 559.226562 C 520.085938 546.742188 545.046875 526.914062 558.992188 503.046875 C 570.1875 519.386719 585.234375 534.625 604.6875 543.804688 C 621.203125 551.515625 634.601562 552.617188 645.429688 552.617188 C 651.300781 552.617188 657.539062 552.25 664.515625 550.964844 C 672.589844 556.289062 681.949219 560.511719 692.777344 562.53125 C 697.730469 563.449219 703.050781 564 708.191406 564 C 726.910156 564 744.710938 557.574219 758.839844 545.824219 C 768.75 545.089844 778.84375 542.519531 788.203125 538.480469 C 792.792969 541.234375 797.5625 543.804688 802.703125 545.640625 C 806.371094 547.109375 817.015625 551.148438 830.964844 551.148438 C 836.835938 551.148438 842.15625 550.414062 846.746094 549.496094 C 854.636719 552.433594 863.445312 554.636719 873.722656 555.738281 C 876.84375 556.105469 882.347656 556.472656 893.542969 556.472656 C 929.511719 556.472656 938.6875 553.71875 944.925781 551.699219 C 975.390625 541.96875 997.046875 515.347656 1000.164062 483.21875 C 1003.101562 449.804688 986.402344 418.777344 957.222656 403.355469 Z M 957.222656 403.355469 " fill-opacity="1" fill-rule="nonzero"/></g><path fill="#000000" d="M 467.050781 80.050781 C 463.929688 82.253906 458.425781 98.960938 458.425781 106.121094 C 458.425781 108.507812 458.792969 109.792969 460.261719 111.261719 C 463.929688 115.117188 464.664062 114.199219 469.621094 101.898438 C 472.925781 93.636719 473.65625 90.699219 473.839844 86.84375 C 473.839844 82.4375 473.65625 81.703125 472.007812 80.417969 C 469.988281 78.582031 469.070312 78.398438 467.050781 80.050781 Z M 395.847656 81.335938 C 393.828125 82.804688 393.09375 86.109375 393.09375 91.984375 C 393.09375 98.59375 394.195312 103 396.398438 105.203125 C 398.601562 107.589844 401.71875 107.40625 403.554688 105.019531 C 405.941406 101.898438 406.308594 98.410156 404.472656 91.066406 C 402.269531 81.703125 399.515625 78.582031 395.847656 81.335938 Z M 320.972656 86.476562 C 317.484375 87.761719 318.21875 94.554688 322.625 103.183594 C 327.394531 111.996094 332.351562 115.667969 335.285156 112.179688 C 337.121094 109.792969 337.121094 107.957031 334.367188 102.449219 C 331.617188 96.941406 325.011719 86.660156 323.542969 86.109375 C 323.175781 86.109375 321.890625 86.109375 320.972656 86.476562 Z M 527.429688 116.953125 C 525.777344 117.871094 517.335938 130.355469 514.949219 135.3125 C 512.746094 139.902344 512.5625 143.574219 514.398438 145.226562 C 516.050781 146.878906 516.601562 146.695312 518.070312 144.308594 C 518.804688 143.207031 521.371094 140.269531 523.757812 137.515625 C 529.078125 131.824219 532.199219 125.765625 532.199219 121.542969 C 532.382812 116.953125 530.546875 115.117188 527.429688 116.953125 Z M 254.539062 127.050781 C 253.988281 127.785156 253.804688 129.253906 254.171875 130.90625 C 255.273438 136.597656 265.917969 144.125 273.441406 144.308594 C 276.746094 144.492188 277.113281 144.308594 276.929688 143.023438 C 276.378906 140.269531 273.808594 137.332031 266.46875 131.640625 C 259.128906 125.949219 256.558594 124.847656 254.539062 127.050781 Z M 377.496094 150.917969 C 355.65625 153.488281 333.269531 160.648438 313.082031 171.664062 C 300.601562 178.457031 297.113281 180.660156 286.839844 188.738281 C 272.523438 199.9375 263.53125 210.21875 257.660156 222.152344 C 250.683594 236.65625 248.117188 250.609375 248.851562 271.722656 C 249.402344 292.835938 252.335938 308.257812 258.578125 324.230469 C 262.613281 334.511719 267.386719 341.851562 276.5625 351.03125 C 283.167969 357.640625 285.554688 359.476562 295.097656 365.167969 C 308.125 372.878906 313.816406 375.816406 325.191406 380.589844 C 329.78125 382.609375 336.753906 386.097656 340.792969 388.300781 C 344.828125 390.6875 349.96875 393.625 352.355469 394.726562 C 354.738281 396.011719 357.859375 398.03125 359.328125 399.132812 C 362.8125 402.253906 369.789062 413.269531 372.722656 420.796875 C 374.007812 424.101562 375.660156 427.589844 376.210938 428.324219 C 376.761719 429.242188 377.3125 430.710938 377.3125 431.8125 C 377.3125 437.136719 382.632812 443.195312 387.039062 443.195312 C 388.261719 443.195312 388.445312 443.625 387.589844 444.480469 C 385.753906 446.683594 384.101562 451.089844 384.101562 454.210938 C 384.101562 456.230469 385.019531 458.433594 387.222656 461.921875 C 390.707031 467.246094 393.09375 469.082031 397.683594 469.082031 L 400.800781 469.082031 L 398.601562 473.488281 C 395.480469 479.363281 395.113281 483.21875 397.132812 486.339844 C 399.882812 490.5625 402.085938 491.480469 409.976562 491.664062 C 414.199219 491.664062 417.867188 492.214844 419.152344 492.949219 C 423.007812 494.96875 426.675781 495.703125 434.019531 496.4375 C 444.113281 497.355469 450.351562 496.4375 461.914062 491.847656 C 479.53125 485.054688 492.925781 474.957031 498.066406 464.308594 C 499.535156 461.371094 500.816406 458.25 500.816406 457.148438 C 500.816406 456.046875 501.917969 454.578125 503.9375 453.109375 C 508.160156 449.621094 510.910156 444.847656 511.277344 439.523438 C 511.828125 434.199219 509.992188 430.160156 505.773438 426.671875 L 503.019531 424.46875 L 504.304688 422.082031 C 505.589844 419.328125 505.957031 411.066406 504.671875 407.761719 C 502.652344 402.253906 496.230469 396.195312 492.375 396.195312 C 491.640625 396.195312 491.089844 396.195312 491.089844 396.011719 C 491.089844 396.011719 491.640625 394.542969 492.191406 392.890625 C 493.660156 388.851562 493.660156 382.242188 492.191406 379.488281 C 490.90625 376.917969 487.605469 374.164062 485.769531 374.164062 C 485.035156 374.164062 484.117188 373.796875 483.566406 373.246094 C 482.648438 372.144531 479.53125 355.070312 479.53125 350.847656 C 479.53125 347.359375 483.382812 339.464844 490.359375 328.632812 C 492.558594 325.144531 498.433594 315.96875 503.203125 308.4375 C 517.886719 285.859375 520.636719 277.964844 520.820312 260.523438 C 520.820312 253.179688 520.453125 249.691406 518.804688 242.347656 C 514.765625 224.90625 507.609375 208.015625 499.167969 195.714844 C 496.964844 192.59375 490.726562 185.433594 485.21875 179.925781 C 478.613281 173.316406 471.882812 168.296875 465.03125 164.871094 C 441.542969 153.488281 427.226562 150.550781 396.398438 150.734375 C 387.039062 150.550781 378.78125 150.734375 377.496094 150.917969 Z M 416.953125 159.179688 C 434.203125 161.199219 443.195312 163.769531 459.160156 171.480469 C 469.253906 176.4375 469.4375 176.621094 478.613281 185.617188 C 483.566406 190.574219 489.625 197.550781 491.824219 200.855469 C 499.902344 212.972656 507.609375 232.25 510.175781 246.9375 C 511.460938 254.464844 511.277344 267.316406 509.808594 274.109375 C 508.34375 281.269531 504.121094 289.714844 496.046875 302.566406 C 492.375 308.257812 488.15625 314.867188 486.6875 317.4375 C 485.21875 320.007812 482.648438 323.863281 481.183594 326.25 C 479.53125 328.453125 476.777344 333.59375 474.757812 337.449219 C 471.457031 344.242188 471.273438 344.789062 471.273438 351.214844 C 471.273438 355.4375 472.007812 360.761719 473.105469 365.71875 L 474.941406 373.429688 L 471.824219 374.347656 C 469.988281 374.714844 466.683594 376.367188 464.113281 377.652344 C 460.261719 379.855469 449.066406 383.34375 446.3125 383.34375 C 445.03125 383.34375 436.953125 360.578125 435.121094 351.582031 C 433.835938 345.339844 430.53125 321.839844 429.796875 312.84375 L 429.246094 307.523438 L 435.121094 303.300781 C 442.09375 298.34375 444.847656 295.589844 451.636719 286.410156 C 457.507812 278.515625 458.976562 275.945312 461.363281 268.417969 C 463.015625 263.460938 463.199219 261.257812 463.199219 251.34375 C 463.015625 236.839844 462.097656 231.515625 458.609375 224.355469 C 453.65625 214.625 448.699219 213.523438 441.175781 220.867188 C 436.585938 225.273438 429.796875 235.003906 427.226562 240.878906 C 422.273438 252.445312 419.886719 270.253906 420.621094 290.816406 L 420.988281 302.75 L 417.136719 304.402344 C 413.28125 306.054688 404.65625 308.257812 401.535156 308.257812 C 400.191406 308.257812 400.007812 306.175781 400.984375 302.015625 C 402.636719 296.140625 402.085938 275.210938 400.066406 264.5625 C 396.582031 245.285156 388.691406 232.984375 379.699219 232.984375 C 368.503906 232.984375 355.65625 252.996094 355.65625 270.253906 C 355.65625 280.902344 360.980469 294.304688 368.503906 302.382812 C 372.171875 306.421875 380.796875 312.664062 384.101562 313.949219 C 385.9375 314.683594 385.753906 315.234375 381.714844 320.742188 C 377.496094 326.25 370.707031 331.941406 368.320312 331.941406 C 368.136719 331.941406 365.382812 328.820312 362.261719 324.78125 C 359.144531 320.925781 352.71875 314.316406 347.949219 310.09375 C 336.753906 299.996094 336.386719 299.628906 329.78125 296.507812 C 320.238281 291.917969 312.53125 293.019531 307.390625 299.996094 C 305.007812 303.117188 303.171875 308.992188 303.171875 313.398438 C 303.171875 317.621094 305.738281 327.167969 308.125 331.757812 C 311.0625 337.632812 321.890625 347.175781 329.046875 350.484375 C 336.570312 353.96875 351.070312 351.953125 361.894531 346.261719 C 365.75 344.242188 366.484375 344.058594 367.402344 344.976562 C 370.703125 348.464844 389.238281 377.835938 395.113281 389.035156 C 398.964844 396.195312 401.902344 402.253906 401.71875 402.4375 C 401.535156 402.621094 398.78125 404.457031 395.480469 406.660156 C 392.175781 408.863281 387.40625 412.71875 384.835938 415.105469 L 380.0625 419.511719 L 379.144531 416.390625 C 377.679688 411.433594 370.703125 399.316406 367.21875 395.277344 C 365.382812 393.441406 362.261719 390.6875 360.0625 389.402344 C 357.859375 388.117188 352.351562 384.996094 347.949219 382.425781 C 339.875 377.652344 336.753906 376.183594 321.523438 369.574219 C 316.75 367.371094 307.941406 362.964844 301.703125 359.476562 C 291.425781 353.601562 289.773438 352.316406 281.332031 343.871094 C 273.992188 336.53125 271.605469 333.59375 269.035156 328.636719 C 258.578125 308.625 253.4375 275.578125 257.109375 251.527344 C 258.941406 238.308594 264.082031 225.089844 270.320312 216.460938 C 276.746094 207.648438 289.957031 195.714844 303.171875 186.71875 C 321.707031 174.234375 353.453125 161.933594 375.109375 159.179688 C 383.917969 157.710938 406.308594 157.894531 416.953125 159.179688 Z M 451.453125 227.109375 C 453.65625 231.515625 454.386719 235.1875 455.304688 246.386719 C 456.222656 257.953125 455.304688 264.378906 452.003906 271.722656 C 448.332031 279.617188 432.367188 297.425781 428.695312 297.425781 C 427.59375 297.425781 427.59375 283.289062 428.695312 270.253906 C 429.980469 254.648438 433.652344 243.265625 440.257812 233.535156 C 443.5625 228.761719 447.597656 224.355469 448.882812 224.355469 C 449.433594 224.171875 450.71875 225.457031 451.453125 227.109375 Z M 382.816406 242.898438 C 388.507812 249.140625 392.359375 263.828125 393.460938 283.472656 C 393.828125 291 393.644531 294.304688 392.726562 298.710938 C 390.890625 306.605469 390.890625 306.789062 387.222656 304.953125 C 374.558594 298.527344 365.933594 286.226562 364.464844 272.824219 C 363.546875 263.09375 367.585938 251.34375 374.375 244.183594 C 378.046875 240.328125 380.066406 239.960938 382.816406 242.898438 Z M 327.210938 303.484375 C 333.636719 306.605469 348.5 320.191406 356.023438 329.734375 C 358.777344 333.222656 360.980469 336.160156 360.796875 336.34375 C 360.613281 336.34375 358.777344 337.445312 356.757812 338.546875 C 350.152344 341.851562 344.644531 342.953125 338.039062 342.769531 C 332.535156 342.585938 331.800781 342.402344 327.761719 339.464844 C 316.933594 331.941406 312.53125 325.148438 311.796875 314.5 C 311.246094 308.257812 311.796875 306.421875 314.367188 303.300781 C 316.933594 300.179688 320.421875 300.179688 327.210938 303.484375 Z M 422.640625 312.664062 C 422.640625 313.03125 423.375 319.457031 424.109375 326.433594 C 426.675781 348.648438 429.429688 358.925781 436.953125 375.082031 C 439.523438 380.40625 441.542969 384.996094 441.359375 384.996094 C 441.175781 385.179688 437.503906 386.28125 433.285156 387.75 C 428.878906 389.035156 421.90625 391.789062 417.867188 393.441406 C 413.648438 395.277344 409.976562 396.5625 409.609375 396.378906 C 409.242188 396.195312 406.308594 390.871094 403.003906 384.445312 C 399.699219 378.019531 391.992188 365.351562 385.570312 355.804688 L 374.007812 338.734375 L 378.414062 335.429688 C 382.632812 332.308594 387.773438 326.800781 392.542969 320.191406 L 394.746094 317.070312 L 402.636719 316.152344 C 406.859375 315.785156 412.730469 314.5 415.484375 313.398438 C 421.722656 311.5625 422.640625 311.378906 422.640625 312.664062 Z M 483.933594 382.792969 C 484.667969 383.710938 484.851562 385.546875 484.667969 388.117188 C 484.300781 391.605469 483.933594 392.15625 479.164062 396.746094 C 474.941406 400.601562 471.273438 402.988281 459.527344 408.863281 C 451.636719 412.902344 440.257812 418.226562 434.386719 420.429688 C 398.050781 435.300781 393.09375 437.136719 388.691406 437.136719 C 385.019531 437.136719 382.449219 431.078125 384.285156 426.121094 C 384.835938 424.46875 386.304688 422.082031 387.773438 420.613281 C 390.890625 417.492188 406.859375 406.660156 408.507812 406.660156 C 409.242188 406.660156 410.34375 405.925781 411.261719 405.007812 C 414.382812 401.886719 431.449219 395.09375 463.199219 384.261719 C 471.457031 381.507812 473.839844 380.957031 477.878906 381.140625 C 481.734375 381.324219 483.199219 381.691406 483.933594 382.792969 Z M 491.09375 405.007812 C 494.578125 407.578125 496.046875 410.332031 496.414062 414.921875 C 496.78125 419.144531 496.597656 419.511719 494.210938 422.082031 C 490.542969 425.570312 480.816406 430.710938 470.722656 434.015625 C 465.949219 435.667969 456.039062 439.523438 448.699219 442.828125 C 441.359375 445.949219 435.121094 448.519531 434.9375 448.519531 C 434.570312 448.519531 430.53125 450.171875 425.578125 452.191406 C 416.21875 456.230469 403.003906 460.820312 398.964844 461.738281 C 396.949219 462.105469 396.214844 461.921875 394.5625 460.085938 C 393.460938 458.984375 391.992188 456.964844 391.441406 455.496094 C 390.339844 453.292969 390.339844 452.742188 391.441406 450.539062 C 392.175781 449.253906 393.828125 447.234375 395.296875 445.949219 C 397.867188 443.746094 408.507812 438.789062 420.070312 434.382812 C 449.066406 423.183594 470.171875 413.085938 481 405.191406 C 483.75 403.171875 484.851562 402.804688 487.054688 403.171875 C 487.972656 403.539062 489.992188 404.273438 491.09375 405.007812 Z M 498.800781 433.097656 C 501.183594 435.484375 501.734375 436.402344 501.734375 439.15625 C 501.734375 446.316406 493.660156 451.824219 465.582031 464.125 C 458.976562 467.0625 449.066406 471.285156 443.929688 473.488281 C 433.46875 478.078125 420.4375 483.035156 414.566406 484.871094 C 410.527344 486.15625 405.023438 485.789062 403.1875 484.320312 C 400.984375 482.484375 402.820312 475.875 406.675781 472.386719 C 409.609375 469.632812 429.429688 459.535156 436.402344 456.964844 C 440.074219 455.679688 449.433594 451.640625 457.324219 447.785156 C 465.214844 443.929688 472.921875 440.441406 474.574219 440.074219 C 476.226562 439.523438 481.550781 437.136719 486.320312 434.75 C 491.09375 432.179688 495.128906 430.34375 495.496094 430.34375 C 495.863281 430.34375 497.332031 431.628906 498.800781 433.097656 Z M 487.421875 464.308594 C 484.851562 467.980469 476.226562 475.691406 471.457031 478.8125 C 466.316406 482.117188 452.921875 487.625 445.761719 489.277344 C 440.992188 490.378906 427.777344 490.5625 425.210938 489.644531 C 424.109375 489.277344 425.210938 488.542969 429.980469 486.890625 C 442.09375 482.851562 472.191406 470.183594 483.015625 464.492188 C 488.707031 461.738281 489.257812 461.738281 487.421875 464.308594 Z M 562.113281 178.273438 C 551.285156 185.800781 548.53125 188.921875 550.183594 192.59375 C 551.835938 196.082031 552.9375 195.898438 568.351562 188.554688 C 570.554688 187.453125 574.042969 185.066406 576.242188 183.046875 C 579.363281 180.109375 579.914062 179.007812 579.914062 176.804688 C 579.914062 173.5 578.078125 171.664062 574.410156 171.664062 C 572.574219 171.664062 569.820312 173.132812 562.113281 178.273438 Z M 203.890625 196.449219 C 202.605469 198.285156 202.605469 198.46875 204.074219 200.488281 C 205.90625 203.242188 214.347656 207.28125 219.121094 208.015625 C 221.445312 208.257812 222.605469 207.769531 222.605469 206.546875 C 222.605469 203.792969 218.570312 199.753906 213.25 197 C 207.742188 193.878906 205.539062 193.878906 203.890625 196.449219 Z M 642.125 242.164062 C 637.539062 243.816406 631.847656 247.671875 627.445312 252.078125 C 617.535156 262.175781 608.542969 282.738281 601.9375 310.277344 C 595.511719 336.347656 594.226562 347.363281 594.226562 373.613281 C 594.226562 395.277344 594.960938 401.519531 599.183594 418.410156 C 606.707031 447.785156 620.839844 471.46875 634.785156 478.078125 C 638.273438 479.730469 640.105469 480.097656 645.0625 480.097656 C 650.382812 480.097656 651.667969 479.730469 654.605469 478.078125 C 661.578125 474.039062 668.367188 464.675781 672.039062 454.761719 C 672.957031 452.191406 674.058594 449.988281 674.242188 449.988281 C 674.609375 449.988281 676.445312 453.109375 678.460938 456.964844 C 683.601562 466.878906 686.535156 471.46875 691.859375 478.261719 C 697.730469 485.789062 703.238281 490.746094 706.355469 491.296875 C 711.679688 492.398438 717 487.074219 715.714844 481.566406 C 715.347656 480.28125 713.148438 476.976562 710.210938 473.855469 C 703.789062 467.0625 700.667969 462.65625 695.710938 453.660156 C 690.390625 444.113281 687.820312 440.257812 684.152344 436.402344 L 681.214844 433.28125 L 685.070312 418.410156 C 689.472656 401.335938 693.878906 378.753906 695.527344 363.699219 C 698.28125 340.199219 694.796875 305.136719 687.636719 282.738281 C 684.519531 273.007812 678.828125 261.257812 673.875 254.28125 C 665.800781 243.449219 653.136719 238.308594 642.125 242.164062 Z M 654.605469 258.6875 C 661.945312 262.359375 671.671875 282.738281 675.527344 302.015625 C 678.644531 317.804688 679.378906 326.25 679.378906 344.605469 C 679.378906 362.414062 679.378906 363.332031 676.261719 382.609375 C 674.425781 393.441406 671.855469 406.660156 670.753906 411.800781 C 669.46875 416.941406 668.550781 421.714844 668.550781 422.449219 C 668.550781 424.652344 667.632812 424.652344 661.394531 422.816406 C 658.089844 421.714844 652.585938 420.613281 649.28125 420.429688 C 643.226562 420.0625 643.042969 420.0625 641.023438 422.082031 C 636.621094 426.488281 639.371094 434.015625 646.164062 434.933594 C 652.21875 435.851562 658.824219 437.871094 659.191406 438.789062 C 659.558594 440.074219 656.808594 449.804688 654.789062 453.84375 C 652.585938 458.433594 647.449219 463.574219 645.246094 463.574219 C 639.007812 463.574219 629.28125 451.640625 622.855469 436.035156 C 617.71875 423.367188 613.3125 406.660156 611.664062 393.625 C 610.746094 385.363281 610.746094 361.128906 611.664062 351.03125 C 614.230469 326.25 621.9375 296.140625 630.746094 277.597656 C 637.722656 262.175781 647.082031 254.832031 654.605469 258.6875 Z M 820.136719 244.183594 C 817.199219 246.9375 817.015625 249.140625 817.933594 260.707031 C 819.035156 273.558594 819.035156 302.566406 817.933594 337.082031 C 817.015625 368.105469 817.933594 412.351562 820.320312 442.828125 C 821.054688 453.292969 821.972656 464.308594 821.972656 467.246094 C 822.339844 473.671875 823.808594 476.425781 828.210938 477.894531 C 830.597656 478.8125 831.148438 478.8125 833.71875 477.527344 C 839.222656 474.957031 839.40625 471.652344 837.203125 443.011719 C 835 416.023438 833.71875 367.1875 834.632812 334.144531 C 835.550781 301.097656 834.816406 269.152344 833.167969 258.503906 C 832.433594 254.28125 831.882812 250.058594 831.882812 248.773438 C 831.882812 247.304688 831.148438 245.652344 829.679688 244.367188 C 826.742188 241.796875 822.890625 241.613281 820.136719 244.183594 Z M 894.828125 246.570312 C 894.644531 246.753906 886.753906 246.9375 877.394531 246.9375 C 868.035156 246.9375 859.042969 247.304688 857.390625 247.671875 C 853.902344 248.40625 851.152344 250.792969 850.050781 254.28125 C 848.398438 259.421875 853.167969 264.746094 858.125 263.277344 C 859.960938 262.726562 891.890625 262.726562 892.441406 263.277344 C 892.441406 263.277344 891.523438 267.5 890.421875 272.457031 C 889.140625 277.414062 887.304688 286.410156 886.203125 292.46875 C 883.449219 307.339844 879.046875 329.003906 874.089844 353.789062 C 867.667969 385.546875 866.015625 399.5 864.363281 434.75 C 863.078125 460.085938 863.628906 472.9375 866.015625 476.976562 C 868.402344 481.015625 872.621094 482.667969 880.878906 483.585938 C 889.140625 484.503906 919.417969 483.769531 922.90625 482.667969 C 929.878906 480.648438 930.429688 470.734375 923.824219 467.246094 C 922.171875 466.328125 919.601562 466.328125 910.058594 466.878906 C 895.746094 467.796875 882.714844 467.796875 881.613281 467.0625 C 879.414062 465.59375 879.78125 444.847656 882.53125 411.066406 C 884 391.972656 886.019531 379.304688 890.605469 356.726562 C 895.195312 334.144531 899.417969 312.113281 902.351562 297.609375 C 903.453125 291.550781 905.472656 281.820312 906.941406 275.945312 C 910.609375 260.890625 910.792969 257.585938 908.59375 253.363281 C 907.492188 251.160156 905.839844 249.507812 904.1875 248.589844 C 901.25 247.121094 895.378906 245.835938 894.828125 246.570312 Z M 713.695312 250.792969 C 712.597656 252.078125 711.679688 253.546875 711.679688 253.914062 C 711.496094 261.074219 709.84375 287.328125 709.109375 296.140625 C 705.4375 331.941406 705.988281 370.859375 710.578125 398.398438 C 712.230469 407.761719 717.183594 428.140625 720.121094 437.136719 C 722.875 445.582031 728.195312 456.597656 731.867188 461.554688 C 737.554688 469.265625 744.710938 473.488281 752.050781 473.488281 C 757.558594 473.488281 765.816406 469.449219 769.851562 465.042969 C 772.972656 461.554688 777.378906 452.558594 778.480469 447.601562 C 779.578125 443.195312 783.617188 413.453125 784.351562 405.742188 C 784.535156 402.621094 785.269531 394.726562 786.003906 388.300781 C 787.839844 368.289062 789.304688 342.589844 790.039062 314.5 C 790.40625 299.628906 791.140625 282.003906 791.507812 275.394531 C 792.425781 260.523438 791.507812 257.769531 785.820312 255.933594 C 782.699219 254.832031 778.296875 256.667969 776.828125 259.789062 C 775.542969 261.992188 774.808594 276.679688 773.339844 319.089844 C 771.320312 378.753906 765.265625 439.523438 760.128906 449.804688 C 756.273438 457.332031 752.050781 458.617188 747.28125 453.476562 C 741.226562 447.234375 737.003906 436.953125 731.683594 415.65625 C 724.15625 385.546875 722.140625 358.007812 724.523438 313.398438 C 725.441406 298.710938 725.992188 278.882812 725.992188 269.335938 L 725.992188 251.894531 L 723.789062 250.058594 C 720.304688 247.488281 716.082031 247.855469 713.699219 250.792969 Z M 553.488281 255.933594 C 549.632812 257.21875 547.613281 262.359375 550 264.378906 C 551.835938 266.03125 567.25 269.886719 569.636719 269.519531 C 574.957031 268.417969 576.242188 264.195312 572.390625 260.707031 C 568.535156 257.035156 557.707031 254.28125 553.488281 255.933594 Z M 204.804688 280.71875 C 198.566406 282.554688 188.289062 286.410156 185.71875 288.0625 C 182.601562 289.898438 182.234375 293.570312 184.804688 295.039062 C 189.574219 297.609375 204.988281 293.753906 211.230469 288.429688 C 214.347656 285.675781 216.367188 282.371094 215.265625 281.269531 C 213.980469 279.984375 208.476562 279.800781 204.804688 280.71875 Z M 525.410156 332.121094 C 524.308594 332.492188 523.023438 333.59375 522.472656 334.878906 C 521.554688 336.714844 521.554688 337.261719 522.839844 339.097656 C 527.246094 344.972656 543.945312 349.746094 548.714844 346.257812 C 549.632812 345.707031 550.367188 344.421875 550.367188 343.6875 C 550.367188 341.304688 544.496094 337.082031 537.886719 334.695312 C 530.730469 331.941406 527.980469 331.390625 525.410156 332.125 Z M 231.785156 366.085938 C 227.011719 367.554688 222.605469 371.59375 222.605469 374.347656 C 222.605469 380.957031 229.765625 380.039062 240.042969 372.328125 C 242.609375 370.308594 244.8125 368.289062 244.8125 368.105469 C 244.628906 365.71875 236.554688 364.433594 231.785156 366.085938 Z M 289.40625 417.308594 C 282.617188 419.328125 270.320312 428.507812 269.402344 432.179688 C 268.671875 435.117188 270.136719 437.136719 272.890625 437.136719 C 276.5625 437.136719 287.390625 431.628906 291.609375 427.40625 C 295.28125 423.917969 297.113281 419.511719 295.832031 417.492188 C 295.464844 416.390625 292.34375 416.390625 289.40625 417.308594 Z M 289.40625 417.308594 " fill-opacity="1" fill-rule="nonzero"/></svg>