<svg xmlns="http://www.w3.org/2000/svg" xmlns:xlink="http://www.w3.org/1999/xlink" width="1366" zoomAndPan="magnify" viewBox="0 0 1024.5 576" height="768" preserveAspectRatio="xMidYMid meet" version="1.0"><defs><clipPath id="eeab6772a3"><path d="M 256 6 L 768 6 L 768 570.667969 L 256 570.667969 Z M 256 6 " clip-rule="nonzero"/></clipPath></defs><g clip-path="url(#eeab6772a3)"><path fill="#0066ff" d="M 730.566406 304.976562 C 697.277344 434.914062 623.753906 517.734375 512.007812 551.171875 C 400.410156 517.777344 326.925781 435.136719 293.5625 305.476562 C 272.667969 224.246094 274.871094 148.753906 276.339844 124.226562 C 380.667969 120.929688 467.722656 59.402344 512.019531 27.265625 C 556.046875 59.097656 643.332031 120.914062 747.660156 124.226562 C 749.136719 148.679688 751.355469 223.8125 730.566406 304.976562 Z M 765.707031 114.042969 C 765.226562 109.25 761.195312 105.605469 756.378906 105.605469 C 652.285156 105.605469 566.601562 43.601562 520.5625 10.292969 L 517.503906 8.078125 C 514.214844 5.710938 509.777344 5.710938 506.503906 8.085938 L 504.125 9.8125 C 461.324219 40.902344 372.25 105.605469 267.617188 105.605469 C 262.804688 105.605469 258.769531 109.25 258.285156 114.042969 C 257.902344 117.828125 249.207031 207.917969 275.261719 309.632812 C 310.074219 445.527344 391.035156 535.546875 509.390625 569.957031 C 510.242188 570.207031 511.128906 570.332031 512.007812 570.332031 C 512.890625 570.332031 513.773438 570.207031 514.625 569.957031 C 632.972656 535.546875 713.929688 445.527344 748.738281 309.632812 C 774.792969 207.917969 766.09375 117.828125 765.707031 114.042969 " fill-opacity="1" fill-rule="nonzero"/></g><path fill="#0066ff" d="M 615.585938 214.9375 L 495.277344 371.570312 C 492.140625 375.660156 487.476562 378.296875 482.359375 378.886719 C 481.636719 378.972656 480.902344 379.011719 480.179688 379.011719 C 475.800781 379.011719 471.535156 377.507812 468.113281 374.707031 L 407.5 325.078125 C 399.367188 318.414062 398.167969 306.425781 404.828125 298.28125 C 411.492188 290.152344 423.484375 288.953125 431.621094 295.613281 L 477.039062 332.800781 L 585.378906 191.742188 C 591.789062 183.394531 603.738281 181.835938 612.078125 188.238281 C 620.421875 194.644531 621.988281 206.59375 615.585938 214.9375 Z M 512 63.886719 C 471.335938 93.21875 397.339844 143.234375 308.304688 148.695312 C 305.964844 211.121094 310.222656 453.164062 512 515.546875 C 713.753906 453.164062 718.011719 211.121094 715.6875 148.695312 C 626.636719 143.199219 552.441406 93.019531 512 63.886719 " fill-opacity="1" fill-rule="nonzero"/></svg>