<svg xmlns="http://www.w3.org/2000/svg" xmlns:xlink="http://www.w3.org/1999/xlink" width="1366" zoomAndPan="magnify" viewBox="0 0 1024.5 576" height="768" preserveAspectRatio="xMidYMid meet" version="1.0"><defs><clipPath id="de75bfb8d9"><path d="M 490 133 L 629.417969 133 L 629.417969 507 L 490 507 Z M 490 133 " clip-rule="nonzero"/></clipPath><clipPath id="4c0feb7d9d"><path d="M 564 11.65625 L 629.417969 11.65625 L 629.417969 118 L 564 118 Z M 564 11.65625 " clip-rule="nonzero"/></clipPath><clipPath id="27fe22ea0d"><path d="M 321.320312 368 L 435 368 L 435 530.402344 L 321.320312 530.402344 Z M 321.320312 368 " clip-rule="nonzero"/></clipPath></defs><g clip-path="url(#de75bfb8d9)"><path fill="#ffffff" d="M 547.652344 234.492188 C 582.070312 217.488281 629.035156 194.8125 629.035156 141.773438 C 629.035156 137.320312 625.394531 133.675781 620.9375 133.675781 C 616.484375 133.675781 612.839844 137.320312 612.839844 141.773438 C 612.839844 184.691406 574.375 203.316406 540.367188 219.917969 C 514.855469 232.46875 490.96875 244.210938 490.96875 260.40625 C 490.96875 277.007812 514.855469 288.75 540.367188 300.894531 C 574.375 317.902344 612.839844 336.527344 612.839844 379.445312 C 612.839844 422.363281 574.375 440.988281 540.367188 457.589844 C 514.855469 470.140625 490.96875 481.882812 490.96875 498.078125 C 490.96875 502.53125 494.613281 506.175781 499.066406 506.175781 C 503.519531 506.175781 507.164062 502.53125 507.164062 498.078125 C 507.164062 491.597656 535.507812 477.832031 547.652344 471.757812 C 582.070312 455.160156 629.035156 432.082031 629.035156 379.039062 C 629.035156 354.339844 618.914062 336.527344 604.742188 322.355469 L 604.742188 297.65625 C 616.484375 293.203125 624.988281 279.4375 624.988281 262.835938 C 624.988281 242.589844 612.4375 226.394531 596.644531 226.394531 C 580.855469 226.394531 568.304688 242.589844 568.304688 262.835938 C 568.304688 279.4375 576.804688 293.605469 588.546875 297.65625 L 588.546875 308.992188 C 575.1875 299.679688 560.609375 292.390625 547.652344 286.320312 C 535.507812 280.246094 507.164062 266.480469 507.164062 260.40625 C 507.164062 254.332031 535.507812 240.160156 547.652344 234.492188 Z M 584.5 263.238281 C 584.5 251.5 590.976562 242.996094 596.644531 242.996094 C 602.3125 242.996094 608.792969 251.5 608.792969 263.238281 C 608.792969 269.3125 607.171875 274.578125 604.742188 277.816406 L 604.742188 267.289062 C 604.742188 262.835938 601.097656 259.191406 596.644531 259.191406 C 592.191406 259.191406 588.546875 262.835938 588.546875 267.289062 L 588.546875 277.816406 C 586.117188 274.578125 584.5 269.3125 584.5 263.238281 Z M 584.5 263.238281 " fill-opacity="1" fill-rule="nonzero"/></g><path fill="#ffffff" d="M 490.96875 419.933594 C 516.476562 407.382812 540.367188 395.640625 540.367188 379.445312 C 540.367188 362.84375 516.476562 351.101562 490.96875 338.953125 C 456.957031 321.949219 418.492188 303.324219 418.492188 260.40625 C 418.492188 217.488281 456.957031 198.863281 490.96875 182.261719 C 516.476562 169.710938 540.367188 157.96875 540.367188 141.773438 C 540.367188 137.320312 536.722656 133.675781 532.265625 133.675781 C 527.8125 133.675781 524.167969 137.320312 524.167969 141.773438 C 524.167969 148.25 478.011719 170.519531 475.179688 172.140625 L 475.179688 156.753906 C 486.917969 152.300781 495.421875 138.535156 495.421875 121.933594 C 495.421875 101.6875 482.871094 85.492188 467.078125 85.492188 C 451.289062 85.492188 438.738281 101.6875 438.738281 121.933594 C 438.738281 138.535156 447.238281 152.703125 458.980469 156.753906 L 458.980469 180.640625 C 430.234375 196.835938 402.296875 219.511719 402.296875 260.8125 C 402.296875 313.851562 449.265625 336.929688 483.679688 353.53125 C 495.828125 359.605469 524.167969 373.371094 524.167969 379.445312 C 524.167969 385.921875 495.828125 399.6875 483.679688 405.355469 C 473.152344 410.621094 461.816406 415.882812 450.480469 422.769531 C 450.480469 424.386719 450.882812 426.007812 450.882812 427.625 C 450.882812 432.484375 450.480469 437.75 449.265625 443.011719 C 461.816406 434.105469 476.796875 426.816406 490.96875 419.933594 Z M 454.933594 121.527344 C 454.933594 109.785156 461.410156 101.285156 467.078125 101.285156 C 472.75 101.285156 479.226562 109.785156 479.226562 121.527344 C 479.226562 127.601562 477.605469 132.863281 475.179688 136.105469 L 475.179688 125.578125 C 475.179688 121.121094 471.535156 117.480469 467.078125 117.480469 C 462.625 117.480469 458.980469 121.121094 458.980469 125.578125 L 458.980469 136.105469 C 456.550781 132.863281 454.933594 127.601562 454.933594 121.527344 Z M 454.933594 121.527344 " fill-opacity="1" fill-rule="nonzero"/><g clip-path="url(#4c0feb7d9d)"><path fill="#ffffff" d="M 621.34375 40.144531 L 628.226562 23.140625 C 629.441406 20.710938 629.035156 17.875 627.417969 15.445312 C 625.796875 13.015625 623.367188 11.800781 620.535156 11.800781 L 572.351562 11.800781 C 567.898438 11.800781 564.253906 15.445312 564.253906 19.898438 L 564.253906 108.976562 C 564.253906 113.429688 567.898438 117.074219 572.351562 117.074219 C 576.804688 117.074219 580.449219 113.429688 580.449219 108.976562 L 580.449219 68.890625 L 620.9375 68.890625 C 625.394531 68.890625 629.035156 65.246094 629.035156 60.792969 C 629.035156 59.175781 628.632812 57.960938 627.820312 56.746094 Z M 621.34375 40.144531 " fill-opacity="1" fill-rule="nonzero"/></g><path fill="#ffffff" d="M 386.101562 425.195312 C 386.101562 425.730469 386.050781 426.253906 385.945312 426.777344 C 385.84375 427.296875 385.6875 427.804688 385.484375 428.296875 C 385.28125 428.789062 385.03125 429.253906 384.738281 429.695312 C 384.441406 430.136719 384.105469 430.546875 383.730469 430.921875 C 383.355469 431.300781 382.945312 431.632812 382.503906 431.929688 C 382.058594 432.226562 381.59375 432.476562 381.101562 432.679688 C 380.609375 432.882812 380.105469 433.035156 379.582031 433.140625 C 379.0625 433.242188 378.535156 433.292969 378.003906 433.296875 C 377.472656 433.292969 376.945312 433.242188 376.421875 433.140625 C 375.902344 433.035156 375.394531 432.882812 374.90625 432.679688 C 374.414062 432.476562 373.945312 432.226562 373.503906 431.929688 C 373.0625 431.632812 372.652344 431.300781 372.277344 430.921875 C 371.902344 430.546875 371.566406 430.136719 371.269531 429.695312 C 370.976562 429.253906 370.726562 428.789062 370.523438 428.296875 C 370.320312 427.804688 370.164062 427.296875 370.0625 426.777344 C 369.957031 426.253906 369.90625 425.730469 369.90625 425.195312 C 369.90625 424.664062 369.957031 424.140625 370.0625 423.617188 C 370.164062 423.097656 370.320312 422.589844 370.523438 422.097656 C 370.726562 421.605469 370.976562 421.140625 371.269531 420.699219 C 371.566406 420.257812 371.902344 419.847656 372.277344 419.472656 C 372.652344 419.09375 373.0625 418.757812 373.503906 418.464844 C 373.945312 418.167969 374.414062 417.917969 374.90625 417.714844 C 375.394531 417.511719 375.902344 417.359375 376.421875 417.253906 C 376.945312 417.152344 377.472656 417.097656 378.003906 417.097656 C 378.535156 417.097656 379.0625 417.152344 379.582031 417.253906 C 380.105469 417.359375 380.609375 417.511719 381.101562 417.714844 C 381.59375 417.917969 382.058594 418.167969 382.503906 418.464844 C 382.945312 418.757812 383.355469 419.09375 383.730469 419.472656 C 384.105469 419.847656 384.441406 420.257812 384.738281 420.699219 C 385.03125 421.140625 385.28125 421.605469 385.484375 422.097656 C 385.6875 422.589844 385.84375 423.097656 385.945312 423.617188 C 386.050781 424.140625 386.101562 424.664062 386.101562 425.195312 Z M 386.101562 425.195312 " fill-opacity="1" fill-rule="nonzero"/><g clip-path="url(#27fe22ea0d)"><path fill="#ffffff" d="M 434.6875 428.03125 C 434.6875 395.234375 409.179688 368.511719 378.003906 368.511719 C 346.828125 368.511719 321.320312 395.234375 321.320312 428.03125 C 321.320312 439.367188 324.558594 450.707031 330.226562 460.019531 L 371.121094 526.421875 C 372.738281 528.847656 375.167969 530.46875 378.003906 530.46875 C 380.835938 530.46875 383.265625 528.847656 384.886719 526.421875 L 425.78125 460.019531 C 429.425781 454.347656 431.855469 448.277344 433.070312 441.394531 C 434.285156 437.34375 434.6875 432.484375 434.6875 428.03125 Z M 378.003906 449.492188 C 364.640625 449.492188 353.710938 438.558594 353.710938 425.195312 C 353.710938 411.835938 364.640625 400.902344 378.003906 400.902344 C 391.363281 400.902344 402.296875 411.835938 402.296875 425.195312 C 402.296875 438.558594 391.363281 449.492188 378.003906 449.492188 Z M 378.003906 449.492188 " fill-opacity="1" fill-rule="nonzero"/></g><path fill="#ffffff" d="M 578.832031 141.773438 C 578.832031 142.304688 578.777344 142.832031 578.675781 143.351562 C 578.570312 143.875 578.417969 144.378906 578.214844 144.871094 C 578.011719 145.363281 577.761719 145.828125 577.464844 146.269531 C 577.171875 146.714844 576.835938 147.121094 576.457031 147.5 C 576.082031 147.875 575.671875 148.210938 575.230469 148.503906 C 574.789062 148.800781 574.324219 149.050781 573.832031 149.253906 C 573.339844 149.457031 572.832031 149.609375 572.3125 149.714844 C 571.789062 149.820312 571.265625 149.871094 570.730469 149.871094 C 570.199219 149.871094 569.675781 149.820312 569.152344 149.714844 C 568.632812 149.609375 568.125 149.457031 567.632812 149.253906 C 567.140625 149.050781 566.675781 148.800781 566.234375 148.503906 C 565.792969 148.210938 565.382812 147.875 565.007812 147.5 C 564.628906 147.121094 564.292969 146.714844 564 146.269531 C 563.703125 145.828125 563.453125 145.363281 563.25 144.871094 C 563.046875 144.378906 562.894531 143.875 562.789062 143.351562 C 562.6875 142.832031 562.632812 142.304688 562.632812 141.773438 C 562.632812 141.242188 562.6875 140.714844 562.789062 140.191406 C 562.894531 139.671875 563.046875 139.164062 563.25 138.671875 C 563.453125 138.183594 563.703125 137.714844 564 137.273438 C 564.292969 136.832031 564.628906 136.421875 565.007812 136.046875 C 565.382812 135.671875 565.792969 135.335938 566.234375 135.039062 C 566.675781 134.742188 567.140625 134.496094 567.632812 134.289062 C 568.125 134.085938 568.632812 133.933594 569.152344 133.832031 C 569.675781 133.726562 570.199219 133.675781 570.730469 133.675781 C 571.265625 133.675781 571.789062 133.726562 572.3125 133.832031 C 572.832031 133.933594 573.339844 134.085938 573.832031 134.289062 C 574.324219 134.496094 574.789062 134.742188 575.230469 135.039062 C 575.671875 135.335938 576.082031 135.671875 576.457031 136.046875 C 576.835938 136.421875 577.171875 136.832031 577.464844 137.273438 C 577.761719 137.714844 578.011719 138.183594 578.214844 138.671875 C 578.417969 139.164062 578.570312 139.671875 578.675781 140.191406 C 578.777344 140.714844 578.832031 141.242188 578.832031 141.773438 Z M 578.832031 141.773438 " fill-opacity="1" fill-rule="nonzero"/><path fill="#ffffff" d="M 567.898438 171.734375 C 567.898438 172.265625 567.847656 172.792969 567.742188 173.3125 C 567.640625 173.835938 567.484375 174.34375 567.28125 174.832031 C 567.078125 175.324219 566.828125 175.792969 566.535156 176.234375 C 566.238281 176.675781 565.902344 177.085938 565.527344 177.460938 C 565.148438 177.835938 564.742188 178.171875 564.300781 178.46875 C 563.855469 178.761719 563.390625 179.011719 562.898438 179.214844 C 562.40625 179.417969 561.902344 179.574219 561.378906 179.675781 C 560.859375 179.78125 560.332031 179.832031 559.800781 179.832031 C 559.269531 179.832031 558.742188 179.78125 558.21875 179.675781 C 557.699219 179.574219 557.191406 179.417969 556.703125 179.214844 C 556.210938 179.011719 555.742188 178.761719 555.300781 178.46875 C 554.859375 178.171875 554.449219 177.835938 554.074219 177.460938 C 553.699219 177.085938 553.363281 176.675781 553.066406 176.234375 C 552.773438 175.792969 552.523438 175.324219 552.320312 174.832031 C 552.117188 174.34375 551.960938 173.835938 551.859375 173.3125 C 551.753906 172.792969 551.703125 172.265625 551.703125 171.734375 C 551.703125 171.203125 551.753906 170.675781 551.859375 170.15625 C 551.960938 169.632812 552.117188 169.125 552.320312 168.636719 C 552.523438 168.144531 552.773438 167.675781 553.066406 167.234375 C 553.363281 166.792969 553.699219 166.382812 554.074219 166.007812 C 554.449219 165.632812 554.859375 165.296875 555.300781 165 C 555.742188 164.707031 556.210938 164.457031 556.703125 164.253906 C 557.191406 164.050781 557.699219 163.894531 558.21875 163.792969 C 558.742188 163.6875 559.269531 163.636719 559.800781 163.636719 C 560.332031 163.636719 560.859375 163.6875 561.378906 163.792969 C 561.902344 163.894531 562.40625 164.050781 562.898438 164.253906 C 563.390625 164.457031 563.855469 164.707031 564.300781 165 C 564.742188 165.296875 565.148438 165.632812 565.527344 166.007812 C 565.902344 166.382812 566.238281 166.792969 566.535156 167.234375 C 566.828125 167.675781 567.078125 168.144531 567.28125 168.636719 C 567.484375 169.125 567.640625 169.632812 567.742188 170.15625 C 567.847656 170.675781 567.898438 171.203125 567.898438 171.734375 Z M 567.898438 171.734375 " fill-opacity="1" fill-rule="nonzero"/><path fill="#ffffff" d="M 544.007812 192.789062 C 544.007812 193.320312 543.957031 193.847656 543.855469 194.367188 C 543.75 194.890625 543.597656 195.398438 543.394531 195.886719 C 543.191406 196.378906 542.941406 196.84375 542.644531 197.289062 C 542.347656 197.730469 542.011719 198.140625 541.636719 198.515625 C 541.261719 198.890625 540.851562 199.226562 540.410156 199.523438 C 539.96875 199.816406 539.5 200.066406 539.011719 200.269531 C 538.519531 200.472656 538.011719 200.628906 537.492188 200.730469 C 536.96875 200.835938 536.441406 200.886719 535.910156 200.886719 C 535.378906 200.886719 534.851562 200.835938 534.332031 200.730469 C 533.808594 200.628906 533.304688 200.472656 532.8125 200.269531 C 532.320312 200.066406 531.855469 199.816406 531.414062 199.523438 C 530.96875 199.226562 530.5625 198.890625 530.183594 198.515625 C 529.808594 198.140625 529.472656 197.730469 529.179688 197.289062 C 528.882812 196.84375 528.632812 196.378906 528.429688 195.886719 C 528.226562 195.398438 528.074219 194.890625 527.96875 194.367188 C 527.867188 193.847656 527.8125 193.320312 527.8125 192.789062 C 527.8125 192.257812 527.867188 191.730469 527.96875 191.210938 C 528.074219 190.6875 528.226562 190.179688 528.429688 189.691406 C 528.632812 189.199219 528.882812 188.730469 529.179688 188.289062 C 529.472656 187.847656 529.808594 187.4375 530.183594 187.0625 C 530.5625 186.6875 530.96875 186.351562 531.414062 186.054688 C 531.855469 185.761719 532.320312 185.511719 532.8125 185.308594 C 533.304688 185.105469 533.808594 184.949219 534.332031 184.847656 C 534.851562 184.742188 535.378906 184.691406 535.910156 184.691406 C 536.441406 184.691406 536.96875 184.742188 537.492188 184.847656 C 538.011719 184.949219 538.519531 185.105469 539.011719 185.308594 C 539.5 185.511719 539.96875 185.761719 540.410156 186.054688 C 540.851562 186.351562 541.261719 186.6875 541.636719 187.0625 C 542.011719 187.4375 542.347656 187.847656 542.644531 188.289062 C 542.941406 188.730469 543.191406 189.199219 543.394531 189.691406 C 543.597656 190.179688 543.75 190.6875 543.855469 191.210938 C 543.957031 191.730469 544.007812 192.257812 544.007812 192.789062 Z M 544.007812 192.789062 " fill-opacity="1" fill-rule="nonzero"/><path fill="#ffffff" d="M 514.855469 206.960938 C 514.855469 207.492188 514.804688 208.019531 514.703125 208.539062 C 514.597656 209.0625 514.445312 209.566406 514.242188 210.058594 C 514.039062 210.550781 513.789062 211.015625 513.492188 211.460938 C 513.195312 211.902344 512.863281 212.308594 512.484375 212.6875 C 512.109375 213.0625 511.699219 213.398438 511.257812 213.691406 C 510.816406 213.988281 510.347656 214.238281 509.859375 214.441406 C 509.367188 214.644531 508.859375 214.796875 508.339844 214.902344 C 507.816406 215.007812 507.292969 215.058594 506.757812 215.058594 C 506.226562 215.058594 505.699219 215.007812 505.179688 214.902344 C 504.65625 214.796875 504.152344 214.644531 503.660156 214.441406 C 503.167969 214.238281 502.703125 213.988281 502.261719 213.691406 C 501.816406 213.398438 501.410156 213.0625 501.035156 212.6875 C 500.65625 212.308594 500.320312 211.902344 500.027344 211.460938 C 499.730469 211.015625 499.480469 210.550781 499.277344 210.058594 C 499.074219 209.566406 498.921875 209.0625 498.816406 208.539062 C 498.714844 208.019531 498.660156 207.492188 498.660156 206.960938 C 498.660156 206.429688 498.714844 205.902344 498.816406 205.378906 C 498.921875 204.859375 499.074219 204.351562 499.277344 203.859375 C 499.480469 203.371094 499.730469 202.902344 500.027344 202.460938 C 500.320312 202.019531 500.65625 201.609375 501.035156 201.234375 C 501.410156 200.859375 501.816406 200.523438 502.261719 200.226562 C 502.703125 199.929688 503.167969 199.683594 503.660156 199.480469 C 504.152344 199.273438 504.65625 199.121094 505.179688 199.019531 C 505.699219 198.914062 506.226562 198.863281 506.757812 198.863281 C 507.292969 198.863281 507.816406 198.914062 508.339844 199.019531 C 508.859375 199.121094 509.367188 199.273438 509.859375 199.480469 C 510.347656 199.683594 510.816406 199.929688 511.257812 200.226562 C 511.699219 200.523438 512.109375 200.859375 512.484375 201.234375 C 512.863281 201.609375 513.195312 202.019531 513.492188 202.460938 C 513.789062 202.902344 514.039062 203.371094 514.242188 203.859375 C 514.445312 204.351562 514.597656 204.859375 514.703125 205.378906 C 514.804688 205.902344 514.855469 206.429688 514.855469 206.960938 Z M 514.855469 206.960938 " fill-opacity="1" fill-rule="nonzero"/><path fill="#ffffff" d="M 486.515625 222.347656 C 486.515625 222.878906 486.460938 223.40625 486.359375 223.925781 C 486.253906 224.449219 486.101562 224.953125 485.898438 225.445312 C 485.695312 225.9375 485.445312 226.402344 485.148438 226.84375 C 484.855469 227.285156 484.519531 227.695312 484.144531 228.070312 C 483.765625 228.449219 483.359375 228.785156 482.914062 229.078125 C 482.472656 229.375 482.007812 229.625 481.515625 229.828125 C 481.023438 230.03125 480.519531 230.183594 479.996094 230.289062 C 479.476562 230.390625 478.949219 230.445312 478.417969 230.445312 C 477.886719 230.445312 477.359375 230.390625 476.835938 230.289062 C 476.316406 230.183594 475.808594 230.03125 475.316406 229.828125 C 474.828125 229.625 474.359375 229.375 473.917969 229.078125 C 473.476562 228.785156 473.066406 228.449219 472.691406 228.070312 C 472.316406 227.695312 471.980469 227.285156 471.683594 226.84375 C 471.386719 226.402344 471.140625 225.9375 470.933594 225.445312 C 470.730469 224.953125 470.578125 224.449219 470.476562 223.925781 C 470.371094 223.40625 470.320312 222.878906 470.320312 222.347656 C 470.320312 221.8125 470.371094 221.289062 470.476562 220.765625 C 470.578125 220.246094 470.730469 219.738281 470.933594 219.246094 C 471.140625 218.753906 471.386719 218.289062 471.683594 217.847656 C 471.980469 217.40625 472.316406 216.996094 472.691406 216.621094 C 473.066406 216.242188 473.476562 215.910156 473.917969 215.613281 C 474.359375 215.316406 474.828125 215.066406 475.316406 214.863281 C 475.808594 214.660156 476.316406 214.507812 476.835938 214.402344 C 477.359375 214.300781 477.886719 214.25 478.417969 214.25 C 478.949219 214.25 479.476562 214.300781 479.996094 214.402344 C 480.519531 214.507812 481.023438 214.660156 481.515625 214.863281 C 482.007812 215.066406 482.472656 215.316406 482.914062 215.613281 C 483.359375 215.910156 483.765625 216.242188 484.144531 216.621094 C 484.519531 216.996094 484.855469 217.40625 485.148438 217.847656 C 485.445312 218.289062 485.695312 218.753906 485.898438 219.246094 C 486.101562 219.738281 486.253906 220.246094 486.359375 220.765625 C 486.460938 221.289062 486.515625 221.8125 486.515625 222.347656 Z M 486.515625 222.347656 " fill-opacity="1" fill-rule="nonzero"/><path fill="#ffffff" d="M 463.4375 244.613281 C 463.4375 245.148438 463.382812 245.671875 463.28125 246.195312 C 463.175781 246.714844 463.023438 247.222656 462.820312 247.714844 C 462.617188 248.207031 462.367188 248.671875 462.070312 249.113281 C 461.777344 249.554688 461.441406 249.964844 461.0625 250.339844 C 460.6875 250.71875 460.277344 251.054688 459.835938 251.347656 C 459.394531 251.644531 458.929688 251.894531 458.4375 252.097656 C 457.945312 252.300781 457.4375 252.453125 456.917969 252.558594 C 456.394531 252.660156 455.871094 252.714844 455.339844 252.714844 C 454.804688 252.714844 454.28125 252.660156 453.757812 252.558594 C 453.238281 252.453125 452.730469 252.300781 452.238281 252.097656 C 451.746094 251.894531 451.28125 251.644531 450.839844 251.347656 C 450.398438 251.054688 449.988281 250.71875 449.613281 250.339844 C 449.234375 249.964844 448.898438 249.554688 448.605469 249.113281 C 448.308594 248.671875 448.058594 248.207031 447.855469 247.714844 C 447.652344 247.222656 447.5 246.714844 447.394531 246.195312 C 447.292969 245.671875 447.238281 245.148438 447.238281 244.613281 C 447.238281 244.082031 447.292969 243.558594 447.394531 243.035156 C 447.5 242.515625 447.652344 242.007812 447.855469 241.515625 C 448.058594 241.023438 448.308594 240.558594 448.605469 240.117188 C 448.898438 239.675781 449.234375 239.265625 449.613281 238.890625 C 449.988281 238.511719 450.398438 238.175781 450.839844 237.882812 C 451.28125 237.585938 451.746094 237.335938 452.238281 237.132812 C 452.730469 236.929688 453.238281 236.777344 453.757812 236.671875 C 454.28125 236.570312 454.804688 236.515625 455.339844 236.515625 C 455.871094 236.515625 456.394531 236.570312 456.917969 236.671875 C 457.4375 236.777344 457.945312 236.929688 458.4375 237.132812 C 458.929688 237.335938 459.394531 237.585938 459.835938 237.882812 C 460.277344 238.175781 460.6875 238.511719 461.0625 238.890625 C 461.441406 239.265625 461.777344 239.675781 462.070312 240.117188 C 462.367188 240.558594 462.617188 241.023438 462.820312 241.515625 C 463.023438 242.007812 463.175781 242.515625 463.28125 243.035156 C 463.382812 243.558594 463.4375 244.082031 463.4375 244.613281 Z M 463.4375 244.613281 " fill-opacity="1" fill-rule="nonzero"/><path fill="#ffffff" d="M 463.03125 275.792969 C 463.03125 276.324219 462.980469 276.851562 462.875 277.371094 C 462.773438 277.894531 462.617188 278.398438 462.414062 278.890625 C 462.210938 279.382812 461.960938 279.847656 461.667969 280.289062 C 461.371094 280.734375 461.035156 281.140625 460.660156 281.519531 C 460.28125 281.894531 459.875 282.230469 459.433594 282.523438 C 458.988281 282.820312 458.523438 283.070312 458.03125 283.273438 C 457.539062 283.476562 457.035156 283.628906 456.511719 283.734375 C 455.992188 283.835938 455.464844 283.890625 454.933594 283.890625 C 454.402344 283.890625 453.875 283.835938 453.351562 283.734375 C 452.832031 283.628906 452.324219 283.476562 451.835938 283.273438 C 451.34375 283.070312 450.875 282.820312 450.433594 282.523438 C 449.992188 282.230469 449.582031 281.894531 449.207031 281.519531 C 448.832031 281.140625 448.496094 280.734375 448.199219 280.289062 C 447.90625 279.847656 447.65625 279.382812 447.453125 278.890625 C 447.25 278.398438 447.09375 277.894531 446.992188 277.371094 C 446.886719 276.851562 446.835938 276.324219 446.835938 275.792969 C 446.835938 275.261719 446.886719 274.734375 446.992188 274.210938 C 447.09375 273.691406 447.25 273.183594 447.453125 272.691406 C 447.65625 272.203125 447.90625 271.734375 448.199219 271.292969 C 448.496094 270.851562 448.832031 270.441406 449.207031 270.066406 C 449.582031 269.691406 449.992188 269.355469 450.433594 269.058594 C 450.875 268.761719 451.34375 268.515625 451.835938 268.308594 C 452.324219 268.105469 452.832031 267.953125 453.351562 267.847656 C 453.875 267.746094 454.402344 267.695312 454.933594 267.695312 C 455.464844 267.695312 455.992188 267.746094 456.511719 267.847656 C 457.035156 267.953125 457.539062 268.105469 458.03125 268.308594 C 458.523438 268.515625 458.988281 268.761719 459.433594 269.058594 C 459.875 269.355469 460.28125 269.691406 460.660156 270.066406 C 461.035156 270.441406 461.371094 270.851562 461.667969 271.292969 C 461.960938 271.734375 462.210938 272.203125 462.414062 272.691406 C 462.617188 273.183594 462.773438 273.691406 462.875 274.210938 C 462.980469 274.734375 463.03125 275.261719 463.03125 275.792969 Z M 463.03125 275.792969 " fill-opacity="1" fill-rule="nonzero"/><path fill="#ffffff" d="M 486.515625 297.65625 C 486.515625 298.1875 486.460938 298.714844 486.359375 299.234375 C 486.253906 299.757812 486.101562 300.261719 485.898438 300.753906 C 485.695312 301.246094 485.445312 301.710938 485.148438 302.15625 C 484.855469 302.597656 484.519531 303.007812 484.144531 303.382812 C 483.765625 303.757812 483.359375 304.09375 482.914062 304.390625 C 482.472656 304.683594 482.007812 304.933594 481.515625 305.136719 C 481.023438 305.339844 480.519531 305.496094 479.996094 305.597656 C 479.476562 305.703125 478.949219 305.753906 478.417969 305.753906 C 477.886719 305.753906 477.359375 305.703125 476.835938 305.597656 C 476.316406 305.496094 475.808594 305.339844 475.316406 305.136719 C 474.828125 304.933594 474.359375 304.683594 473.917969 304.390625 C 473.476562 304.09375 473.066406 303.757812 472.691406 303.382812 C 472.316406 303.007812 471.980469 302.597656 471.683594 302.15625 C 471.386719 301.710938 471.140625 301.246094 470.933594 300.753906 C 470.730469 300.261719 470.578125 299.757812 470.476562 299.234375 C 470.371094 298.714844 470.320312 298.1875 470.320312 297.65625 C 470.320312 297.125 470.371094 296.597656 470.476562 296.078125 C 470.578125 295.554688 470.730469 295.046875 470.933594 294.558594 C 471.140625 294.066406 471.386719 293.597656 471.683594 293.15625 C 471.980469 292.714844 472.316406 292.304688 472.691406 291.929688 C 473.066406 291.554688 473.476562 291.21875 473.917969 290.921875 C 474.359375 290.628906 474.828125 290.378906 475.316406 290.175781 C 475.808594 289.972656 476.316406 289.816406 476.835938 289.714844 C 477.359375 289.609375 477.886719 289.558594 478.417969 289.558594 C 478.949219 289.558594 479.476562 289.609375 479.996094 289.714844 C 480.519531 289.816406 481.023438 289.972656 481.515625 290.175781 C 482.007812 290.378906 482.472656 290.628906 482.914062 290.921875 C 483.359375 291.21875 483.765625 291.554688 484.144531 291.929688 C 484.519531 292.304688 484.855469 292.714844 485.148438 293.15625 C 485.445312 293.597656 485.695312 294.066406 485.898438 294.558594 C 486.101562 295.046875 486.253906 295.554688 486.359375 296.078125 C 486.460938 296.597656 486.515625 297.125 486.515625 297.65625 Z M 486.515625 297.65625 " fill-opacity="1" fill-rule="nonzero"/><path fill="#ffffff" d="M 514.855469 313.445312 C 514.855469 313.976562 514.804688 314.503906 514.703125 315.027344 C 514.597656 315.546875 514.445312 316.054688 514.242188 316.546875 C 514.039062 317.035156 513.789062 317.503906 513.492188 317.945312 C 513.195312 318.386719 512.863281 318.796875 512.484375 319.171875 C 512.109375 319.546875 511.699219 319.882812 511.257812 320.179688 C 510.816406 320.476562 510.347656 320.726562 509.859375 320.929688 C 509.367188 321.132812 508.859375 321.285156 508.339844 321.390625 C 507.816406 321.492188 507.292969 321.542969 506.757812 321.542969 C 506.226562 321.542969 505.699219 321.492188 505.179688 321.390625 C 504.65625 321.285156 504.152344 321.132812 503.660156 320.929688 C 503.167969 320.726562 502.703125 320.476562 502.261719 320.179688 C 501.816406 319.882812 501.410156 319.546875 501.035156 319.171875 C 500.65625 318.796875 500.320312 318.386719 500.027344 317.945312 C 499.730469 317.503906 499.480469 317.035156 499.277344 316.546875 C 499.074219 316.054688 498.921875 315.546875 498.816406 315.027344 C 498.714844 314.503906 498.660156 313.976562 498.660156 313.445312 C 498.660156 312.914062 498.714844 312.386719 498.816406 311.867188 C 498.921875 311.34375 499.074219 310.839844 499.277344 310.347656 C 499.480469 309.855469 499.730469 309.390625 500.027344 308.949219 C 500.320312 308.503906 500.65625 308.097656 501.035156 307.722656 C 501.410156 307.34375 501.816406 307.007812 502.261719 306.714844 C 502.703125 306.417969 503.167969 306.167969 503.660156 305.964844 C 504.152344 305.761719 504.65625 305.609375 505.179688 305.503906 C 505.699219 305.402344 506.226562 305.347656 506.757812 305.347656 C 507.292969 305.347656 507.816406 305.402344 508.339844 305.503906 C 508.859375 305.609375 509.367188 305.761719 509.859375 305.964844 C 510.347656 306.167969 510.816406 306.417969 511.257812 306.714844 C 511.699219 307.007812 512.109375 307.34375 512.484375 307.722656 C 512.863281 308.097656 513.195312 308.503906 513.492188 308.949219 C 513.789062 309.390625 514.039062 309.855469 514.242188 310.347656 C 514.445312 310.839844 514.597656 311.34375 514.703125 311.867188 C 514.804688 312.386719 514.855469 312.914062 514.855469 313.445312 Z M 514.855469 313.445312 " fill-opacity="1" fill-rule="nonzero"/><path fill="#ffffff" d="M 543.199219 328.832031 C 543.199219 329.363281 543.148438 329.890625 543.042969 330.414062 C 542.941406 330.933594 542.785156 331.441406 542.582031 331.929688 C 542.378906 332.421875 542.128906 332.890625 541.835938 333.332031 C 541.539062 333.773438 541.203125 334.183594 540.828125 334.558594 C 540.453125 334.933594 540.042969 335.269531 539.601562 335.566406 C 539.160156 335.859375 538.691406 336.109375 538.199219 336.3125 C 537.710938 336.515625 537.203125 336.671875 536.679688 336.773438 C 536.160156 336.878906 535.632812 336.929688 535.101562 336.929688 C 534.570312 336.929688 534.042969 336.878906 533.523438 336.773438 C 533 336.671875 532.496094 336.515625 532.003906 336.3125 C 531.511719 336.109375 531.046875 335.859375 530.601562 335.566406 C 530.160156 335.269531 529.75 334.933594 529.375 334.558594 C 529 334.183594 528.664062 333.773438 528.367188 333.332031 C 528.074219 332.890625 527.824219 332.421875 527.621094 331.929688 C 527.417969 331.441406 527.261719 330.933594 527.160156 330.414062 C 527.054688 329.890625 527.003906 329.363281 527.003906 328.832031 C 527.003906 328.300781 527.054688 327.773438 527.160156 327.253906 C 527.261719 326.730469 527.417969 326.226562 527.621094 325.734375 C 527.824219 325.242188 528.074219 324.777344 528.367188 324.332031 C 528.664062 323.890625 529 323.484375 529.375 323.105469 C 529.75 322.730469 530.160156 322.394531 530.601562 322.097656 C 531.046875 321.804688 531.511719 321.554688 532.003906 321.351562 C 532.496094 321.148438 533 320.996094 533.523438 320.890625 C 534.042969 320.785156 534.570312 320.734375 535.101562 320.734375 C 535.632812 320.734375 536.160156 320.785156 536.679688 320.890625 C 537.203125 320.996094 537.710938 321.148438 538.199219 321.351562 C 538.691406 321.554688 539.160156 321.804688 539.601562 322.097656 C 540.042969 322.394531 540.453125 322.730469 540.828125 323.105469 C 541.203125 323.484375 541.539062 323.890625 541.835938 324.332031 C 542.128906 324.777344 542.378906 325.242188 542.582031 325.734375 C 542.785156 326.226562 542.941406 326.730469 543.042969 327.253906 C 543.148438 327.773438 543.199219 328.300781 543.199219 328.832031 Z M 543.199219 328.832031 " fill-opacity="1" fill-rule="nonzero"/><path fill="#ffffff" d="M 569.113281 347.863281 C 569.113281 348.394531 569.0625 348.921875 568.957031 349.441406 C 568.851562 349.964844 568.699219 350.46875 568.496094 350.960938 C 568.292969 351.453125 568.042969 351.917969 567.746094 352.363281 C 567.453125 352.804688 567.117188 353.210938 566.742188 353.589844 C 566.363281 353.964844 565.957031 354.300781 565.515625 354.597656 C 565.070312 354.890625 564.605469 355.140625 564.113281 355.34375 C 563.621094 355.546875 563.117188 355.699219 562.59375 355.804688 C 562.074219 355.910156 561.546875 355.960938 561.015625 355.960938 C 560.484375 355.960938 559.957031 355.910156 559.433594 355.804688 C 558.914062 355.699219 558.40625 355.546875 557.914062 355.34375 C 557.425781 355.140625 556.957031 354.890625 556.515625 354.597656 C 556.074219 354.300781 555.664062 353.964844 555.289062 353.589844 C 554.914062 353.210938 554.578125 352.804688 554.28125 352.363281 C 553.988281 351.917969 553.738281 351.453125 553.535156 350.960938 C 553.328125 350.46875 553.175781 349.964844 553.074219 349.441406 C 552.96875 348.921875 552.917969 348.394531 552.917969 347.863281 C 552.917969 347.332031 552.96875 346.804688 553.074219 346.28125 C 553.175781 345.761719 553.328125 345.253906 553.535156 344.765625 C 553.738281 344.273438 553.988281 343.804688 554.28125 343.363281 C 554.578125 342.921875 554.914062 342.511719 555.289062 342.136719 C 555.664062 341.761719 556.074219 341.425781 556.515625 341.128906 C 556.957031 340.835938 557.425781 340.585938 557.914062 340.382812 C 558.40625 340.175781 558.914062 340.023438 559.433594 339.921875 C 559.957031 339.816406 560.484375 339.765625 561.015625 339.765625 C 561.546875 339.765625 562.074219 339.816406 562.59375 339.921875 C 563.117188 340.023438 563.621094 340.175781 564.113281 340.382812 C 564.605469 340.585938 565.070312 340.835938 565.515625 341.128906 C 565.957031 341.425781 566.363281 341.761719 566.742188 342.136719 C 567.117188 342.511719 567.453125 342.921875 567.746094 343.363281 C 568.042969 343.804688 568.292969 344.273438 568.496094 344.765625 C 568.699219 345.253906 568.851562 345.761719 568.957031 346.28125 C 569.0625 346.804688 569.113281 347.332031 569.113281 347.863281 Z M 569.113281 347.863281 " fill-opacity="1" fill-rule="nonzero"/><path fill="#ffffff" d="M 584.09375 375.394531 C 584.09375 375.925781 584.042969 376.453125 583.9375 376.976562 C 583.835938 377.496094 583.679688 378.003906 583.476562 378.496094 C 583.273438 378.984375 583.023438 379.453125 582.730469 379.894531 C 582.433594 380.335938 582.097656 380.746094 581.722656 381.121094 C 581.347656 381.496094 580.9375 381.832031 580.496094 382.128906 C 580.050781 382.421875 579.585938 382.671875 579.09375 382.875 C 578.605469 383.082031 578.097656 383.234375 577.574219 383.335938 C 577.054688 383.441406 576.527344 383.492188 575.996094 383.492188 C 575.464844 383.492188 574.9375 383.441406 574.417969 383.335938 C 573.894531 383.234375 573.386719 383.082031 572.898438 382.875 C 572.40625 382.671875 571.9375 382.421875 571.496094 382.128906 C 571.054688 381.832031 570.644531 381.496094 570.269531 381.121094 C 569.894531 380.746094 569.558594 380.335938 569.261719 379.894531 C 568.96875 379.453125 568.71875 378.984375 568.515625 378.496094 C 568.3125 378.003906 568.15625 377.496094 568.054688 376.976562 C 567.949219 376.453125 567.898438 375.925781 567.898438 375.394531 C 567.898438 374.863281 567.949219 374.335938 568.054688 373.816406 C 568.15625 373.292969 568.3125 372.789062 568.515625 372.296875 C 568.71875 371.804688 568.96875 371.339844 569.261719 370.894531 C 569.558594 370.453125 569.894531 370.046875 570.269531 369.667969 C 570.644531 369.292969 571.054688 368.957031 571.496094 368.664062 C 571.9375 368.367188 572.40625 368.117188 572.898438 367.914062 C 573.386719 367.710938 573.894531 367.558594 574.417969 367.453125 C 574.9375 367.347656 575.464844 367.296875 575.996094 367.296875 C 576.527344 367.296875 577.054688 367.347656 577.574219 367.453125 C 578.097656 367.558594 578.605469 367.710938 579.09375 367.914062 C 579.585938 368.117188 580.050781 368.367188 580.496094 368.664062 C 580.9375 368.957031 581.347656 369.292969 581.722656 369.667969 C 582.097656 370.046875 582.433594 370.453125 582.730469 370.894531 C 583.023438 371.339844 583.273438 371.804688 583.476562 372.296875 C 583.679688 372.789062 583.835938 373.292969 583.9375 373.816406 C 584.042969 374.335938 584.09375 374.863281 584.09375 375.394531 Z M 584.09375 375.394531 " fill-opacity="1" fill-rule="nonzero"/><path fill="#ffffff" d="M 576.402344 406.167969 C 576.402344 406.699219 576.347656 407.226562 576.246094 407.746094 C 576.140625 408.269531 575.988281 408.773438 575.785156 409.265625 C 575.582031 409.757812 575.332031 410.222656 575.035156 410.667969 C 574.742188 411.109375 574.40625 411.515625 574.027344 411.894531 C 573.652344 412.269531 573.242188 412.605469 572.800781 412.898438 C 572.359375 413.195312 571.894531 413.445312 571.402344 413.648438 C 570.910156 413.851562 570.402344 414.003906 569.882812 414.109375 C 569.359375 414.214844 568.835938 414.265625 568.304688 414.265625 C 567.769531 414.265625 567.246094 414.214844 566.722656 414.109375 C 566.203125 414.003906 565.695312 413.851562 565.203125 413.648438 C 564.710938 413.445312 564.246094 413.195312 563.804688 412.898438 C 563.363281 412.605469 562.953125 412.269531 562.578125 411.894531 C 562.199219 411.515625 561.867188 411.109375 561.570312 410.667969 C 561.273438 410.222656 561.023438 409.757812 560.820312 409.265625 C 560.617188 408.773438 560.464844 408.269531 560.359375 407.746094 C 560.257812 407.226562 560.207031 406.699219 560.207031 406.167969 C 560.207031 405.636719 560.257812 405.109375 560.359375 404.585938 C 560.464844 404.066406 560.617188 403.558594 560.820312 403.066406 C 561.023438 402.578125 561.273438 402.109375 561.570312 401.667969 C 561.867188 401.226562 562.199219 400.816406 562.578125 400.441406 C 562.953125 400.066406 563.363281 399.730469 563.804688 399.433594 C 564.246094 399.136719 564.710938 398.890625 565.203125 398.6875 C 565.695312 398.480469 566.203125 398.328125 566.722656 398.226562 C 567.246094 398.121094 567.769531 398.070312 568.304688 398.070312 C 568.835938 398.070312 569.359375 398.121094 569.882812 398.226562 C 570.402344 398.328125 570.910156 398.480469 571.402344 398.6875 C 571.894531 398.890625 572.359375 399.136719 572.800781 399.433594 C 573.242188 399.730469 573.652344 400.066406 574.027344 400.441406 C 574.40625 400.816406 574.742188 401.226562 575.035156 401.667969 C 575.332031 402.109375 575.582031 402.578125 575.785156 403.066406 C 575.988281 403.558594 576.140625 404.066406 576.246094 404.585938 C 576.347656 405.109375 576.402344 405.636719 576.402344 406.167969 Z M 576.402344 406.167969 " fill-opacity="1" fill-rule="nonzero"/><path fill="#ffffff" d="M 551.703125 426.816406 C 551.703125 427.347656 551.652344 427.875 551.546875 428.394531 C 551.441406 428.917969 551.289062 429.425781 551.085938 429.914062 C 550.882812 430.40625 550.632812 430.875 550.335938 431.316406 C 550.042969 431.757812 549.707031 432.167969 549.332031 432.542969 C 548.953125 432.917969 548.546875 433.253906 548.101562 433.550781 C 547.660156 433.84375 547.195312 434.09375 546.703125 434.296875 C 546.210938 434.5 545.707031 434.65625 545.183594 434.757812 C 544.664062 434.863281 544.136719 434.914062 543.605469 434.914062 C 543.074219 434.914062 542.546875 434.863281 542.023438 434.757812 C 541.503906 434.65625 540.996094 434.5 540.503906 434.296875 C 540.015625 434.09375 539.546875 433.84375 539.105469 433.550781 C 538.664062 433.253906 538.253906 432.917969 537.878906 432.542969 C 537.503906 432.167969 537.167969 431.757812 536.871094 431.316406 C 536.574219 430.875 536.328125 430.40625 536.125 429.914062 C 535.917969 429.425781 535.765625 428.917969 535.664062 428.394531 C 535.558594 427.875 535.507812 427.347656 535.507812 426.816406 C 535.507812 426.285156 535.558594 425.757812 535.664062 425.238281 C 535.765625 424.714844 535.917969 424.207031 536.125 423.71875 C 536.328125 423.226562 536.574219 422.761719 536.871094 422.316406 C 537.167969 421.875 537.503906 421.464844 537.878906 421.089844 C 538.253906 420.714844 538.664062 420.378906 539.105469 420.082031 C 539.546875 419.789062 540.015625 419.539062 540.503906 419.335938 C 540.996094 419.132812 541.503906 418.976562 542.023438 418.875 C 542.546875 418.769531 543.074219 418.71875 543.605469 418.71875 C 544.136719 418.71875 544.664062 418.769531 545.183594 418.875 C 545.707031 418.976562 546.210938 419.132812 546.703125 419.335938 C 547.195312 419.539062 547.660156 419.789062 548.101562 420.082031 C 548.546875 420.378906 548.953125 420.714844 549.332031 421.089844 C 549.707031 421.464844 550.042969 421.875 550.335938 422.316406 C 550.632812 422.761719 550.882812 423.226562 551.085938 423.71875 C 551.289062 424.207031 551.441406 424.714844 551.546875 425.238281 C 551.652344 425.757812 551.703125 426.285156 551.703125 426.816406 Z M 551.703125 426.816406 " fill-opacity="1" fill-rule="nonzero"/><path fill="#ffffff" d="M 522.550781 440.582031 C 522.550781 441.113281 522.5 441.640625 522.394531 442.164062 C 522.289062 442.683594 522.136719 443.191406 521.933594 443.683594 C 521.730469 444.171875 521.480469 444.640625 521.183594 445.082031 C 520.890625 445.523438 520.554688 445.933594 520.179688 446.308594 C 519.800781 446.683594 519.394531 447.019531 518.953125 447.316406 C 518.507812 447.613281 518.042969 447.859375 517.550781 448.0625 C 517.058594 448.269531 516.554688 448.421875 516.03125 448.523438 C 515.511719 448.628906 514.984375 448.679688 514.453125 448.679688 C 513.921875 448.679688 513.394531 448.628906 512.871094 448.523438 C 512.351562 448.421875 511.84375 448.269531 511.351562 448.0625 C 510.863281 447.859375 510.394531 447.613281 509.953125 447.316406 C 509.511719 447.019531 509.101562 446.683594 508.726562 446.308594 C 508.351562 445.933594 508.015625 445.523438 507.71875 445.082031 C 507.421875 444.640625 507.175781 444.171875 506.972656 443.683594 C 506.765625 443.191406 506.613281 442.683594 506.511719 442.164062 C 506.40625 441.640625 506.355469 441.113281 506.355469 440.582031 C 506.355469 440.050781 506.40625 439.523438 506.511719 439.003906 C 506.613281 438.480469 506.765625 437.976562 506.972656 437.484375 C 507.175781 436.992188 507.421875 436.527344 507.71875 436.085938 C 508.015625 435.640625 508.351562 435.234375 508.726562 434.855469 C 509.101562 434.480469 509.511719 434.144531 509.953125 433.851562 C 510.394531 433.554688 510.863281 433.304688 511.351562 433.101562 C 511.84375 432.898438 512.351562 432.746094 512.871094 432.640625 C 513.394531 432.535156 513.921875 432.484375 514.453125 432.484375 C 514.984375 432.484375 515.511719 432.535156 516.03125 432.640625 C 516.554688 432.746094 517.058594 432.898438 517.550781 433.101562 C 518.042969 433.304688 518.507812 433.554688 518.953125 433.851562 C 519.394531 434.144531 519.800781 434.480469 520.179688 434.855469 C 520.554688 435.234375 520.890625 435.640625 521.183594 436.085938 C 521.480469 436.527344 521.730469 436.992188 521.933594 437.484375 C 522.136719 437.976562 522.289062 438.480469 522.394531 439.003906 C 522.5 439.523438 522.550781 440.050781 522.550781 440.582031 Z M 522.550781 440.582031 " fill-opacity="1" fill-rule="nonzero"/><path fill="#ffffff" d="M 492.992188 454.753906 C 492.992188 455.285156 492.941406 455.8125 492.835938 456.335938 C 492.734375 456.855469 492.578125 457.363281 492.375 457.851562 C 492.171875 458.34375 491.921875 458.8125 491.628906 459.253906 C 491.332031 459.695312 490.996094 460.105469 490.621094 460.480469 C 490.246094 460.855469 489.835938 461.191406 489.394531 461.488281 C 488.953125 461.78125 488.484375 462.03125 487.992188 462.234375 C 487.503906 462.4375 486.996094 462.59375 486.476562 462.695312 C 485.953125 462.800781 485.425781 462.851562 484.894531 462.851562 C 484.363281 462.851562 483.835938 462.800781 483.316406 462.695312 C 482.792969 462.59375 482.289062 462.4375 481.796875 462.234375 C 481.304688 462.03125 480.839844 461.78125 480.394531 461.488281 C 479.953125 461.191406 479.546875 460.855469 479.167969 460.480469 C 478.792969 460.105469 478.457031 459.695312 478.160156 459.253906 C 477.867188 458.8125 477.617188 458.34375 477.414062 457.851562 C 477.210938 457.363281 477.054688 456.855469 476.953125 456.335938 C 476.847656 455.8125 476.796875 455.285156 476.796875 454.753906 C 476.796875 454.222656 476.847656 453.695312 476.953125 453.175781 C 477.054688 452.652344 477.210938 452.148438 477.414062 451.65625 C 477.617188 451.164062 477.867188 450.699219 478.160156 450.253906 C 478.457031 449.8125 478.792969 449.402344 479.167969 449.027344 C 479.546875 448.652344 479.953125 448.316406 480.394531 448.019531 C 480.839844 447.726562 481.304688 447.476562 481.796875 447.273438 C 482.289062 447.070312 482.792969 446.914062 483.316406 446.8125 C 483.835938 446.707031 484.363281 446.65625 484.894531 446.65625 C 485.425781 446.65625 485.953125 446.707031 486.476562 446.8125 C 486.996094 446.914062 487.503906 447.070312 487.992188 447.273438 C 488.484375 447.476562 488.953125 447.726562 489.394531 448.019531 C 489.835938 448.316406 490.246094 448.652344 490.621094 449.027344 C 490.996094 449.402344 491.332031 449.8125 491.628906 450.253906 C 491.921875 450.699219 492.171875 451.164062 492.375 451.65625 C 492.578125 452.148438 492.734375 452.652344 492.835938 453.175781 C 492.941406 453.695312 492.992188 454.222656 492.992188 454.753906 Z M 492.992188 454.753906 " fill-opacity="1" fill-rule="nonzero"/><path fill="#ffffff" d="M 467.078125 473.785156 C 467.078125 474.316406 467.027344 474.84375 466.925781 475.363281 C 466.820312 475.886719 466.667969 476.390625 466.464844 476.882812 C 466.261719 477.375 466.011719 477.839844 465.714844 478.28125 C 465.417969 478.726562 465.085938 479.132812 464.707031 479.511719 C 464.332031 479.886719 463.921875 480.222656 463.480469 480.515625 C 463.039062 480.8125 462.570312 481.0625 462.082031 481.265625 C 461.589844 481.46875 461.082031 481.621094 460.5625 481.726562 C 460.039062 481.832031 459.515625 481.882812 458.980469 481.882812 C 458.449219 481.882812 457.921875 481.832031 457.402344 481.726562 C 456.878906 481.621094 456.375 481.46875 455.882812 481.265625 C 455.390625 481.0625 454.925781 480.8125 454.484375 480.515625 C 454.039062 480.222656 453.632812 479.886719 453.257812 479.511719 C 452.878906 479.132812 452.542969 478.726562 452.25 478.28125 C 451.953125 477.839844 451.703125 477.375 451.5 476.882812 C 451.296875 476.390625 451.144531 475.886719 451.039062 475.363281 C 450.9375 474.84375 450.882812 474.316406 450.882812 473.785156 C 450.882812 473.253906 450.9375 472.726562 451.039062 472.203125 C 451.144531 471.683594 451.296875 471.175781 451.5 470.683594 C 451.703125 470.195312 451.953125 469.726562 452.25 469.285156 C 452.542969 468.84375 452.878906 468.433594 453.257812 468.058594 C 453.632812 467.683594 454.039062 467.347656 454.484375 467.050781 C 454.925781 466.753906 455.390625 466.507812 455.882812 466.300781 C 456.375 466.097656 456.878906 465.945312 457.402344 465.84375 C 457.921875 465.738281 458.449219 465.6875 458.980469 465.6875 C 459.515625 465.6875 460.039062 465.738281 460.5625 465.84375 C 461.082031 465.945312 461.589844 466.097656 462.082031 466.300781 C 462.570312 466.507812 463.039062 466.753906 463.480469 467.050781 C 463.921875 467.347656 464.332031 467.683594 464.707031 468.058594 C 465.085938 468.433594 465.417969 468.84375 465.714844 469.285156 C 466.011719 469.726562 466.261719 470.195312 466.464844 470.683594 C 466.667969 471.175781 466.820312 471.683594 466.925781 472.203125 C 467.027344 472.726562 467.078125 473.253906 467.078125 473.785156 Z M 467.078125 473.785156 " fill-opacity="1" fill-rule="nonzero"/><path fill="#ffffff" d="M 446.835938 498.078125 C 446.835938 498.609375 446.785156 499.136719 446.679688 499.65625 C 446.574219 500.179688 446.421875 500.683594 446.21875 501.175781 C 446.015625 501.667969 445.765625 502.132812 445.46875 502.578125 C 445.175781 503.019531 444.839844 503.429688 444.464844 503.804688 C 444.085938 504.179688 443.679688 504.515625 443.234375 504.8125 C 442.792969 505.105469 442.328125 505.355469 441.835938 505.558594 C 441.34375 505.761719 440.839844 505.917969 440.316406 506.019531 C 439.796875 506.125 439.269531 506.175781 438.738281 506.175781 C 438.207031 506.175781 437.679688 506.125 437.15625 506.019531 C 436.636719 505.917969 436.128906 505.761719 435.636719 505.558594 C 435.148438 505.355469 434.679688 505.105469 434.238281 504.8125 C 433.796875 504.515625 433.386719 504.179688 433.011719 503.804688 C 432.636719 503.429688 432.300781 503.019531 432.003906 502.578125 C 431.707031 502.132812 431.460938 501.667969 431.257812 501.175781 C 431.050781 500.683594 430.898438 500.179688 430.796875 499.65625 C 430.691406 499.136719 430.640625 498.609375 430.640625 498.078125 C 430.640625 497.546875 430.691406 497.019531 430.796875 496.496094 C 430.898438 495.976562 431.050781 495.46875 431.257812 494.980469 C 431.460938 494.488281 431.707031 494.019531 432.003906 493.578125 C 432.300781 493.136719 432.636719 492.726562 433.011719 492.351562 C 433.386719 491.976562 433.796875 491.640625 434.238281 491.34375 C 434.679688 491.050781 435.148438 490.800781 435.636719 490.597656 C 436.128906 490.394531 436.636719 490.238281 437.15625 490.136719 C 437.679688 490.03125 438.207031 489.980469 438.738281 489.980469 C 439.269531 489.980469 439.796875 490.03125 440.316406 490.136719 C 440.839844 490.238281 441.34375 490.394531 441.835938 490.597656 C 442.328125 490.800781 442.792969 491.050781 443.234375 491.34375 C 443.679688 491.640625 444.085938 491.976562 444.464844 492.351562 C 444.839844 492.726562 445.175781 493.136719 445.46875 493.578125 C 445.765625 494.019531 446.015625 494.488281 446.21875 494.980469 C 446.421875 495.46875 446.574219 495.976562 446.679688 496.496094 C 446.785156 497.019531 446.835938 497.546875 446.835938 498.078125 Z M 446.835938 498.078125 " fill-opacity="1" fill-rule="nonzero"/></svg>